<ttFont>
    <TTGlyph name="A" xMin="-8" yMin="0" xMax="672" yMax="720">
      <contour>
        <pt x="262" y="720" on="1"/>
        <pt x="402" y="720" on="1"/>
        <pt x="598" y="80" on="1"/>
        <pt x="672" y="60" on="1"/>
        <pt x="672" y="0" on="1"/>
        <pt x="409" y="0" on="1"/>
        <pt x="409" y="60" on="1"/>
        <pt x="498" y="80" on="1"/>
        <pt x="449" y="246" on="1"/>
        <pt x="215" y="246" on="1"/>
        <pt x="166" y="80" on="1"/>
        <pt x="256" y="60" on="1"/>
        <pt x="256" y="0" on="1"/>
        <pt x="-8" y="0" on="1"/>
        <pt x="-8" y="60" on="1"/>
        <pt x="66" y="80" on="1"/>
      </contour>
      <contour>
        <pt x="239" y="329" on="1"/>
        <pt x="424" y="329" on="1"/>
        <pt x="332" y="643" on="1"/>
      </contour>
    </TTGlyph>
    <TTGlyph name="AE" xMin="-9" yMin="0" xMax="845" yMax="720">
      <contour>
        <pt x="498" y="80" on="1"/>
        <pt x="462" y="251" on="1"/>
        <pt x="237" y="251" on="1"/>
        <pt x="187" y="80" on="1"/>
        <pt x="297" y="65" on="1"/>
        <pt x="297" y="0" on="1"/>
        <pt x="-9" y="0" on="1"/>
        <pt x="-9" y="60" on="1"/>
        <pt x="81" y="80" on="1"/>
        <pt x="270" y="656" on="1"/>
        <pt x="190" y="665" on="1"/>
        <pt x="190" y="720" on="1"/>
        <pt x="838" y="720" on="1"/>
        <pt x="838" y="500" on="1"/>
        <pt x="759" y="500" on="1"/>
        <pt x="746" y="645" on="1"/>
        <pt x="472" y="645" on="1"/>
        <pt x="523" y="406" on="1"/>
        <pt x="745" y="406" on="1"/>
        <pt x="745" y="323" on="1"/>
        <pt x="544" y="323" on="1"/>
        <pt x="599" y="75" on="1"/>
        <pt x="752" y="75" on="1"/>
        <pt x="766" y="235" on="1"/>
        <pt x="845" y="235" on="1"/>
        <pt x="845" y="0" on="1"/>
        <pt x="395" y="0" on="1"/>
        <pt x="395" y="60" on="1"/>
      </contour>
      <contour>
        <pt x="261" y="334" on="1"/>
        <pt x="439" y="334" on="1"/>
        <pt x="374" y="645" on="1"/>
        <pt x="365" y="645" on="1"/>
      </contour>
    </TTGlyph>
    <TTGlyph name="AEacute" xMin="-9" yMin="0" xMax="845" yMax="916">
      <contour>
        <pt x="615" y="916" on="1"/>
        <pt x="738" y="916" on="1"/>
        <pt x="601" y="791" on="1"/>
        <pt x="520" y="791" on="1"/>
      </contour>
      <contour>
        <pt x="498" y="80" on="1"/>
        <pt x="462" y="251" on="1"/>
        <pt x="237" y="251" on="1"/>
        <pt x="187" y="80" on="1"/>
        <pt x="297" y="65" on="1"/>
        <pt x="297" y="0" on="1"/>
        <pt x="-9" y="0" on="1"/>
        <pt x="-9" y="60" on="1"/>
        <pt x="81" y="80" on="1"/>
        <pt x="270" y="656" on="1"/>
        <pt x="190" y="665" on="1"/>
        <pt x="190" y="720" on="1"/>
        <pt x="838" y="720" on="1"/>
        <pt x="838" y="500" on="1"/>
        <pt x="759" y="500" on="1"/>
        <pt x="746" y="645" on="1"/>
        <pt x="472" y="645" on="1"/>
        <pt x="523" y="406" on="1"/>
        <pt x="745" y="406" on="1"/>
        <pt x="745" y="323" on="1"/>
        <pt x="544" y="323" on="1"/>
        <pt x="599" y="75" on="1"/>
        <pt x="752" y="75" on="1"/>
        <pt x="766" y="235" on="1"/>
        <pt x="845" y="235" on="1"/>
        <pt x="845" y="0" on="1"/>
        <pt x="395" y="0" on="1"/>
        <pt x="395" y="60" on="1"/>
      </contour>
      <contour>
        <pt x="261" y="334" on="1"/>
        <pt x="439" y="334" on="1"/>
        <pt x="374" y="645" on="1"/>
        <pt x="365" y="645" on="1"/>
      </contour>
    </TTGlyph>
    <TTGlyph name="Aacute" xMin="-8" yMin="0" xMax="672" yMax="916">
      <contour>
        <pt x="262" y="720" on="1"/>
        <pt x="402" y="720" on="1"/>
        <pt x="598" y="80" on="1"/>
        <pt x="672" y="60" on="1"/>
        <pt x="672" y="0" on="1"/>
        <pt x="409" y="0" on="1"/>
        <pt x="409" y="60" on="1"/>
        <pt x="498" y="80" on="1"/>
        <pt x="449" y="246" on="1"/>
        <pt x="215" y="246" on="1"/>
        <pt x="166" y="80" on="1"/>
        <pt x="256" y="60" on="1"/>
        <pt x="256" y="0" on="1"/>
        <pt x="-8" y="0" on="1"/>
        <pt x="-8" y="60" on="1"/>
        <pt x="66" y="80" on="1"/>
      </contour>
      <contour>
        <pt x="239" y="329" on="1"/>
        <pt x="424" y="329" on="1"/>
        <pt x="332" y="643" on="1"/>
      </contour>
      <contour>
        <pt x="386" y="916" on="1"/>
        <pt x="509" y="916" on="1"/>
        <pt x="372" y="791" on="1"/>
        <pt x="291" y="791" on="1"/>
      </contour>
    </TTGlyph>
    <TTGlyph name="Abreve" xMin="-8" yMin="0" xMax="672" yMax="921">
      <contour>
        <pt x="262" y="720" on="1"/>
        <pt x="402" y="720" on="1"/>
        <pt x="598" y="80" on="1"/>
        <pt x="672" y="60" on="1"/>
        <pt x="672" y="0" on="1"/>
        <pt x="409" y="0" on="1"/>
        <pt x="409" y="60" on="1"/>
        <pt x="498" y="80" on="1"/>
        <pt x="449" y="246" on="1"/>
        <pt x="215" y="246" on="1"/>
        <pt x="166" y="80" on="1"/>
        <pt x="256" y="60" on="1"/>
        <pt x="256" y="0" on="1"/>
        <pt x="-8" y="0" on="1"/>
        <pt x="-8" y="60" on="1"/>
        <pt x="66" y="80" on="1"/>
      </contour>
      <contour>
        <pt x="239" y="329" on="1"/>
        <pt x="424" y="329" on="1"/>
        <pt x="332" y="643" on="1"/>
      </contour>
      <contour>
        <pt x="490" y="921" on="1"/>
        <pt x="490" y="894" on="0"/>
        <pt x="476" y="847" on="0"/>
        <pt x="440" y="811" on="0"/>
        <pt x="378" y="791" on="0"/>
        <pt x="331" y="791" on="1"/>
        <pt x="284" y="791" on="0"/>
        <pt x="224" y="811" on="0"/>
        <pt x="188" y="847" on="0"/>
        <pt x="174" y="894" on="0"/>
        <pt x="174" y="921" on="1"/>
        <pt x="257" y="921" on="1"/>
        <pt x="257" y="894" on="0"/>
        <pt x="294" y="852" on="0"/>
        <pt x="333" y="852" on="1"/>
        <pt x="372" y="852" on="0"/>
        <pt x="408" y="894" on="0"/>
        <pt x="408" y="921" on="1"/>
      </contour>
    </TTGlyph>
    <TTGlyph name="Acircumflex" xMin="-8" yMin="0" xMax="672" yMax="916">
      <contour>
        <pt x="262" y="720" on="1"/>
        <pt x="402" y="720" on="1"/>
        <pt x="598" y="80" on="1"/>
        <pt x="672" y="60" on="1"/>
        <pt x="672" y="0" on="1"/>
        <pt x="409" y="0" on="1"/>
        <pt x="409" y="60" on="1"/>
        <pt x="498" y="80" on="1"/>
        <pt x="449" y="246" on="1"/>
        <pt x="215" y="246" on="1"/>
        <pt x="166" y="80" on="1"/>
        <pt x="256" y="60" on="1"/>
        <pt x="256" y="0" on="1"/>
        <pt x="-8" y="0" on="1"/>
        <pt x="-8" y="60" on="1"/>
        <pt x="66" y="80" on="1"/>
      </contour>
      <contour>
        <pt x="239" y="329" on="1"/>
        <pt x="424" y="329" on="1"/>
        <pt x="332" y="643" on="1"/>
      </contour>
      <contour>
        <pt x="500" y="791" on="1"/>
        <pt x="419" y="791" on="1"/>
        <pt x="333" y="863" on="1"/>
        <pt x="248" y="791" on="1"/>
        <pt x="167" y="791" on="1"/>
        <pt x="272" y="916" on="1"/>
        <pt x="395" y="916" on="1"/>
      </contour>
    </TTGlyph>
    <TTGlyph name="Adieresis" xMin="-8" yMin="0" xMax="672" yMax="909">
      <contour>
        <pt x="262" y="720" on="1"/>
        <pt x="402" y="720" on="1"/>
        <pt x="598" y="80" on="1"/>
        <pt x="672" y="60" on="1"/>
        <pt x="672" y="0" on="1"/>
        <pt x="409" y="0" on="1"/>
        <pt x="409" y="60" on="1"/>
        <pt x="498" y="80" on="1"/>
        <pt x="449" y="246" on="1"/>
        <pt x="215" y="246" on="1"/>
        <pt x="166" y="80" on="1"/>
        <pt x="256" y="60" on="1"/>
        <pt x="256" y="0" on="1"/>
        <pt x="-8" y="0" on="1"/>
        <pt x="-8" y="60" on="1"/>
        <pt x="66" y="80" on="1"/>
      </contour>
      <contour>
        <pt x="239" y="329" on="1"/>
        <pt x="424" y="329" on="1"/>
        <pt x="332" y="643" on="1"/>
      </contour>
      <contour>
        <pt x="229" y="791" on="1"/>
        <pt x="203" y="791" on="0"/>
        <pt x="170" y="824" on="0"/>
        <pt x="170" y="850" on="1"/>
        <pt x="170" y="876" on="0"/>
        <pt x="203" y="909" on="0"/>
        <pt x="229" y="909" on="1"/>
        <pt x="255" y="909" on="0"/>
        <pt x="289" y="876" on="0"/>
        <pt x="289" y="850" on="1"/>
        <pt x="289" y="824" on="0"/>
        <pt x="255" y="791" on="0"/>
      </contour>
      <contour>
        <pt x="435" y="791" on="1"/>
        <pt x="409" y="791" on="0"/>
        <pt x="376" y="824" on="0"/>
        <pt x="376" y="850" on="1"/>
        <pt x="376" y="876" on="0"/>
        <pt x="409" y="909" on="0"/>
        <pt x="435" y="909" on="1"/>
        <pt x="461" y="909" on="0"/>
        <pt x="495" y="876" on="0"/>
        <pt x="495" y="850" on="1"/>
        <pt x="495" y="824" on="0"/>
        <pt x="461" y="791" on="0"/>
      </contour>
    </TTGlyph>
    <TTGlyph name="Agrave" xMin="-8" yMin="0" xMax="672" yMax="916">
      <contour>
        <pt x="262" y="720" on="1"/>
        <pt x="402" y="720" on="1"/>
        <pt x="598" y="80" on="1"/>
        <pt x="672" y="60" on="1"/>
        <pt x="672" y="0" on="1"/>
        <pt x="409" y="0" on="1"/>
        <pt x="409" y="60" on="1"/>
        <pt x="498" y="80" on="1"/>
        <pt x="449" y="246" on="1"/>
        <pt x="215" y="246" on="1"/>
        <pt x="166" y="80" on="1"/>
        <pt x="256" y="60" on="1"/>
        <pt x="256" y="0" on="1"/>
        <pt x="-8" y="0" on="1"/>
        <pt x="-8" y="60" on="1"/>
        <pt x="66" y="80" on="1"/>
      </contour>
      <contour>
        <pt x="239" y="329" on="1"/>
        <pt x="424" y="329" on="1"/>
        <pt x="332" y="643" on="1"/>
      </contour>
      <contour>
        <pt x="373" y="791" on="1"/>
        <pt x="292" y="791" on="1"/>
        <pt x="175" y="916" on="1"/>
        <pt x="298" y="916" on="1"/>
      </contour>
    </TTGlyph>
    <TTGlyph name="Amacron" xMin="-8" yMin="0" xMax="672" yMax="884">
      <contour>
        <pt x="262" y="720" on="1"/>
        <pt x="402" y="720" on="1"/>
        <pt x="598" y="80" on="1"/>
        <pt x="672" y="60" on="1"/>
        <pt x="672" y="0" on="1"/>
        <pt x="409" y="0" on="1"/>
        <pt x="409" y="60" on="1"/>
        <pt x="498" y="80" on="1"/>
        <pt x="449" y="246" on="1"/>
        <pt x="215" y="246" on="1"/>
        <pt x="166" y="80" on="1"/>
        <pt x="256" y="60" on="1"/>
        <pt x="256" y="0" on="1"/>
        <pt x="-8" y="0" on="1"/>
        <pt x="-8" y="60" on="1"/>
        <pt x="66" y="80" on="1"/>
      </contour>
      <contour>
        <pt x="239" y="329" on="1"/>
        <pt x="424" y="329" on="1"/>
        <pt x="332" y="643" on="1"/>
      </contour>
      <contour>
        <pt x="195" y="884" on="1"/>
        <pt x="469" y="884" on="1"/>
        <pt x="469" y="821" on="1"/>
        <pt x="195" y="821" on="1"/>
      </contour>
    </TTGlyph>
    <TTGlyph name="Aogonek" xMin="-8" yMin="-210" xMax="672" yMax="720">
      <contour>
        <pt x="262" y="720" on="1"/>
        <pt x="402" y="720" on="1"/>
        <pt x="598" y="80" on="1"/>
        <pt x="672" y="60" on="1"/>
        <pt x="672" y="0" on="1"/>
        <pt x="599" y="0" on="1"/>
        <pt x="572" y="-30" on="0"/>
        <pt x="551" y="-86" on="0"/>
        <pt x="551" y="-102" on="1"/>
        <pt x="551" y="-118" on="0"/>
        <pt x="571" y="-141" on="0"/>
        <pt x="594" y="-141" on="1"/>
        <pt x="612" y="-141" on="0"/>
        <pt x="625" y="-136" on="1"/>
        <pt x="632" y="-133" on="0"/>
        <pt x="639" y="-130" on="1"/>
        <pt x="639" y="-199" on="1"/>
        <pt x="629" y="-202" on="0"/>
        <pt x="618" y="-205" on="1"/>
        <pt x="598" y="-210" on="0"/>
        <pt x="573" y="-210" on="1"/>
        <pt x="554" y="-210" on="0"/>
        <pt x="518" y="-200" on="0"/>
        <pt x="491" y="-177" on="0"/>
        <pt x="475" y="-142" on="0"/>
        <pt x="475" y="-118" on="1"/>
        <pt x="475" y="-82" on="0"/>
        <pt x="509" y="-31" on="0"/>
        <pt x="539" y="0" on="1"/>
        <pt x="409" y="0" on="1"/>
        <pt x="409" y="60" on="1"/>
        <pt x="498" y="80" on="1"/>
        <pt x="449" y="246" on="1"/>
        <pt x="215" y="246" on="1"/>
        <pt x="166" y="80" on="1"/>
        <pt x="256" y="60" on="1"/>
        <pt x="256" y="0" on="1"/>
        <pt x="-8" y="0" on="1"/>
        <pt x="-8" y="60" on="1"/>
        <pt x="66" y="80" on="1"/>
      </contour>
      <contour>
        <pt x="239" y="329" on="1"/>
        <pt x="424" y="329" on="1"/>
        <pt x="332" y="643" on="1"/>
      </contour>
    </TTGlyph>
    <TTGlyph name="Aring" xMin="-8" yMin="0" xMax="672" yMax="933">
      <contour>
        <pt x="262" y="720" on="1"/>
        <pt x="402" y="720" on="1"/>
        <pt x="598" y="80" on="1"/>
        <pt x="672" y="60" on="1"/>
        <pt x="672" y="0" on="1"/>
        <pt x="409" y="0" on="1"/>
        <pt x="409" y="60" on="1"/>
        <pt x="498" y="80" on="1"/>
        <pt x="449" y="246" on="1"/>
        <pt x="215" y="246" on="1"/>
        <pt x="166" y="80" on="1"/>
        <pt x="256" y="60" on="1"/>
        <pt x="256" y="0" on="1"/>
        <pt x="-8" y="0" on="1"/>
        <pt x="-8" y="60" on="1"/>
        <pt x="66" y="80" on="1"/>
      </contour>
      <contour>
        <pt x="239" y="329" on="1"/>
        <pt x="424" y="329" on="1"/>
        <pt x="332" y="643" on="1"/>
      </contour>
      <contour>
        <pt x="331" y="791" on="1"/>
        <pt x="300" y="791" on="0"/>
        <pt x="260" y="832" on="0"/>
        <pt x="260" y="862" on="1"/>
        <pt x="260" y="894" on="0"/>
        <pt x="300" y="933" on="0"/>
        <pt x="331" y="933" on="1"/>
        <pt x="363" y="933" on="0"/>
        <pt x="403" y="894" on="0"/>
        <pt x="403" y="862" on="1"/>
        <pt x="403" y="832" on="0"/>
        <pt x="363" y="791" on="0"/>
      </contour>
      <contour>
        <pt x="331" y="837" on="1"/>
        <pt x="342" y="837" on="0"/>
        <pt x="355" y="851" on="0"/>
        <pt x="355" y="862" on="1"/>
        <pt x="355" y="873" on="0"/>
        <pt x="342" y="885" on="0"/>
        <pt x="331" y="885" on="1"/>
        <pt x="320" y="885" on="0"/>
        <pt x="307" y="873" on="0"/>
        <pt x="307" y="862" on="1"/>
        <pt x="307" y="851" on="0"/>
        <pt x="320" y="837" on="0"/>
      </contour>
    </TTGlyph>
    <TTGlyph name="Aringacute" xMin="-7" yMin="0" xMax="673" yMax="950">
      <contour>
        <pt x="263" y="694" on="1"/>
        <pt x="285" y="694" on="1"/>
        <pt x="262" y="715" on="0"/>
        <pt x="262" y="748" on="1"/>
        <pt x="262" y="780" on="0"/>
        <pt x="302" y="819" on="0"/>
        <pt x="333" y="819" on="1"/>
        <pt x="365" y="819" on="0"/>
        <pt x="405" y="780" on="0"/>
        <pt x="405" y="748" on="1"/>
        <pt x="405" y="715" on="0"/>
        <pt x="381" y="694" on="1"/>
        <pt x="403" y="694" on="1"/>
        <pt x="599" y="80" on="1"/>
        <pt x="673" y="60" on="1"/>
        <pt x="673" y="0" on="1"/>
        <pt x="410" y="0" on="1"/>
        <pt x="410" y="60" on="1"/>
        <pt x="499" y="80" on="1"/>
        <pt x="451" y="236" on="1"/>
        <pt x="214" y="236" on="1"/>
        <pt x="167" y="80" on="1"/>
        <pt x="257" y="60" on="1"/>
        <pt x="257" y="0" on="1"/>
        <pt x="-7" y="0" on="1"/>
        <pt x="-7" y="60" on="1"/>
        <pt x="67" y="80" on="1"/>
      </contour>
      <contour>
        <pt x="239" y="319" on="1"/>
        <pt x="426" y="319" on="1"/>
        <pt x="333" y="627" on="1"/>
      </contour>
      <contour>
        <pt x="389" y="950" on="1"/>
        <pt x="512" y="950" on="1"/>
        <pt x="375" y="825" on="1"/>
        <pt x="294" y="825" on="1"/>
      </contour>
      <contour>
        <pt x="333" y="723" on="1"/>
        <pt x="344" y="723" on="0"/>
        <pt x="357" y="737" on="0"/>
        <pt x="357" y="748" on="1"/>
        <pt x="357" y="759" on="0"/>
        <pt x="344" y="771" on="0"/>
        <pt x="333" y="771" on="1"/>
        <pt x="322" y="771" on="0"/>
        <pt x="309" y="759" on="0"/>
        <pt x="309" y="748" on="1"/>
        <pt x="309" y="737" on="0"/>
        <pt x="322" y="723" on="0"/>
      </contour>
    </TTGlyph>
    <TTGlyph name="Atilde" xMin="-8" yMin="0" xMax="672" yMax="927">
      <contour>
        <pt x="262" y="720" on="1"/>
        <pt x="402" y="720" on="1"/>
        <pt x="598" y="80" on="1"/>
        <pt x="672" y="60" on="1"/>
        <pt x="672" y="0" on="1"/>
        <pt x="409" y="0" on="1"/>
        <pt x="409" y="60" on="1"/>
        <pt x="498" y="80" on="1"/>
        <pt x="449" y="246" on="1"/>
        <pt x="215" y="246" on="1"/>
        <pt x="166" y="80" on="1"/>
        <pt x="256" y="60" on="1"/>
        <pt x="256" y="0" on="1"/>
        <pt x="-8" y="0" on="1"/>
        <pt x="-8" y="60" on="1"/>
        <pt x="66" y="80" on="1"/>
      </contour>
      <contour>
        <pt x="239" y="329" on="1"/>
        <pt x="424" y="329" on="1"/>
        <pt x="332" y="643" on="1"/>
      </contour>
      <contour>
        <pt x="518" y="924" on="1"/>
        <pt x="518" y="897" on="0"/>
        <pt x="504" y="848" on="0"/>
        <pt x="475" y="812" on="0"/>
        <pt x="434" y="791" on="0"/>
        <pt x="407" y="791" on="1"/>
        <pt x="378" y="791" on="0"/>
        <pt x="337" y="812" on="0"/>
        <pt x="303" y="836" on="0"/>
        <pt x="274" y="857" on="0"/>
        <pt x="258" y="857" on="1"/>
        <pt x="250" y="857" on="0"/>
        <pt x="233" y="851" on="0"/>
        <pt x="217" y="838" on="0"/>
        <pt x="207" y="816" on="0"/>
        <pt x="207" y="801" on="1"/>
        <pt x="146" y="801" on="1"/>
        <pt x="146" y="824" on="0"/>
        <pt x="158" y="869" on="0"/>
        <pt x="184" y="905" on="0"/>
        <pt x="225" y="927" on="0"/>
        <pt x="254" y="927" on="1"/>
        <pt x="284" y="927" on="0"/>
        <pt x="323" y="906" on="0"/>
        <pt x="354" y="882" on="0"/>
        <pt x="382" y="861" on="0"/>
        <pt x="401" y="861" on="1"/>
        <pt x="424" y="861" on="0"/>
        <pt x="458" y="895" on="0"/>
        <pt x="458" y="924" on="1"/>
      </contour>
    </TTGlyph>
    <TTGlyph name="B" xMin="33" yMin="0" xMax="556" yMax="720">
      <contour>
        <pt x="33" y="720" on="1"/>
        <pt x="308" y="720" on="1"/>
        <pt x="378" y="720" on="0"/>
        <pt x="463" y="697" on="0"/>
        <pt x="510" y="650" on="0"/>
        <pt x="526" y="581" on="0"/>
        <pt x="526" y="536" on="1"/>
        <pt x="526" y="504" on="0"/>
        <pt x="512" y="452" on="0"/>
        <pt x="481" y="415" on="0"/>
        <pt x="430" y="393" on="0"/>
        <pt x="393" y="393" on="1"/>
        <pt x="393" y="389" on="1"/>
        <pt x="433" y="389" on="0"/>
        <pt x="494" y="363" on="0"/>
        <pt x="535" y="316" on="0"/>
        <pt x="556" y="252" on="0"/>
        <pt x="556" y="214" on="1"/>
        <pt x="556" y="167" on="0"/>
        <pt x="538" y="89" on="0"/>
        <pt x="487" y="32" on="0"/>
        <pt x="394" y="0" on="0"/>
        <pt x="318" y="0" on="1"/>
        <pt x="33" y="0" on="1"/>
        <pt x="33" y="60" on="1"/>
        <pt x="126" y="80" on="1"/>
        <pt x="126" y="640" on="1"/>
        <pt x="33" y="660" on="1"/>
      </contour>
      <contour>
        <pt x="322" y="75" on="1"/>
        <pt x="362" y="75" on="0"/>
        <pt x="413" y="95" on="0"/>
        <pt x="442" y="131" on="0"/>
        <pt x="452" y="182" on="0"/>
        <pt x="452" y="214" on="1"/>
        <pt x="452" y="248" on="0"/>
        <pt x="441" y="299" on="0"/>
        <pt x="413" y="333" on="0"/>
        <pt x="366" y="351" on="0"/>
        <pt x="329" y="351" on="1"/>
        <pt x="225" y="351" on="1"/>
        <pt x="225" y="75" on="1"/>
      </contour>
      <contour>
        <pt x="422" y="536" on="1"/>
        <pt x="422" y="561" on="0"/>
        <pt x="413" y="602" on="0"/>
        <pt x="389" y="630" on="0"/>
        <pt x="346" y="645" on="0"/>
        <pt x="312" y="645" on="1"/>
        <pt x="225" y="645" on="1"/>
        <pt x="225" y="426" on="1"/>
        <pt x="318" y="426" on="1"/>
        <pt x="349" y="426" on="0"/>
        <pt x="390" y="441" on="0"/>
        <pt x="413" y="469" on="0"/>
        <pt x="422" y="510" on="0"/>
      </contour>
    </TTGlyph>
    <TTGlyph name="C" xMin="46" yMin="-11" xMax="560" yMax="731">
      <contour>
        <pt x="304" y="659" on="1"/>
        <pt x="255" y="659" on="0"/>
        <pt x="195" y="618" on="0"/>
        <pt x="162" y="540" on="0"/>
        <pt x="150" y="428" on="0"/>
        <pt x="150" y="357" on="1"/>
        <pt x="150" y="291" on="0"/>
        <pt x="161" y="182" on="0"/>
        <pt x="195" y="104" on="0"/>
        <pt x="259" y="61" on="0"/>
        <pt x="312" y="61" on="1"/>
        <pt x="357" y="61" on="0"/>
        <pt x="414" y="91" on="0"/>
        <pt x="447" y="142" on="0"/>
        <pt x="460" y="211" on="0"/>
        <pt x="460" y="250" on="1"/>
        <pt x="560" y="250" on="1"/>
        <pt x="560" y="195" on="0"/>
        <pt x="534" y="100" on="0"/>
        <pt x="475" y="29" on="0"/>
        <pt x="378" y="-11" on="0"/>
        <pt x="308" y="-11" on="1"/>
        <pt x="225" y="-11" on="0"/>
        <pt x="123" y="45" on="0"/>
        <pt x="66" y="147" on="0"/>
        <pt x="46" y="289" on="0"/>
        <pt x="46" y="375" on="1"/>
        <pt x="46" y="448" on="0"/>
        <pt x="62" y="578" on="0"/>
        <pt x="115" y="675" on="0"/>
        <pt x="215" y="731" on="0"/>
        <pt x="298" y="731" on="1"/>
        <pt x="327" y="731" on="0"/>
        <pt x="378" y="722" on="0"/>
        <pt x="419" y="699" on="0"/>
        <pt x="446" y="658" on="0"/>
        <pt x="452" y="627" on="1"/>
        <pt x="457" y="627" on="1"/>
        <pt x="477" y="720" on="1"/>
        <pt x="556" y="720" on="1"/>
        <pt x="556" y="475" on="1"/>
        <pt x="457" y="475" on="1"/>
        <pt x="457" y="560" on="0"/>
        <pt x="382" y="659" on="0"/>
      </contour>
    </TTGlyph>
    <TTGlyph name="Cacute" xMin="46" yMin="-11" xMax="560" yMax="916">
      <contour>
        <pt x="304" y="659" on="1"/>
        <pt x="255" y="659" on="0"/>
        <pt x="195" y="618" on="0"/>
        <pt x="162" y="540" on="0"/>
        <pt x="150" y="428" on="0"/>
        <pt x="150" y="357" on="1"/>
        <pt x="150" y="291" on="0"/>
        <pt x="161" y="182" on="0"/>
        <pt x="195" y="104" on="0"/>
        <pt x="259" y="61" on="0"/>
        <pt x="312" y="61" on="1"/>
        <pt x="357" y="61" on="0"/>
        <pt x="414" y="91" on="0"/>
        <pt x="447" y="142" on="0"/>
        <pt x="460" y="211" on="0"/>
        <pt x="460" y="250" on="1"/>
        <pt x="560" y="250" on="1"/>
        <pt x="560" y="195" on="0"/>
        <pt x="534" y="100" on="0"/>
        <pt x="475" y="29" on="0"/>
        <pt x="378" y="-11" on="0"/>
        <pt x="308" y="-11" on="1"/>
        <pt x="225" y="-11" on="0"/>
        <pt x="123" y="45" on="0"/>
        <pt x="66" y="147" on="0"/>
        <pt x="46" y="289" on="0"/>
        <pt x="46" y="375" on="1"/>
        <pt x="46" y="448" on="0"/>
        <pt x="62" y="578" on="0"/>
        <pt x="115" y="675" on="0"/>
        <pt x="215" y="731" on="0"/>
        <pt x="298" y="731" on="1"/>
        <pt x="327" y="731" on="0"/>
        <pt x="378" y="722" on="0"/>
        <pt x="419" y="699" on="0"/>
        <pt x="446" y="658" on="0"/>
        <pt x="452" y="627" on="1"/>
        <pt x="457" y="627" on="1"/>
        <pt x="477" y="720" on="1"/>
        <pt x="556" y="720" on="1"/>
        <pt x="556" y="475" on="1"/>
        <pt x="457" y="475" on="1"/>
        <pt x="457" y="560" on="0"/>
        <pt x="382" y="659" on="0"/>
      </contour>
      <contour>
        <pt x="352" y="916" on="1"/>
        <pt x="475" y="916" on="1"/>
        <pt x="338" y="791" on="1"/>
        <pt x="257" y="791" on="1"/>
      </contour>
    </TTGlyph>
    <TTGlyph name="Ccaron" xMin="46" yMin="-11" xMax="560" yMax="916">
      <contour>
        <pt x="304" y="659" on="1"/>
        <pt x="255" y="659" on="0"/>
        <pt x="195" y="618" on="0"/>
        <pt x="162" y="540" on="0"/>
        <pt x="150" y="428" on="0"/>
        <pt x="150" y="357" on="1"/>
        <pt x="150" y="291" on="0"/>
        <pt x="161" y="182" on="0"/>
        <pt x="195" y="104" on="0"/>
        <pt x="259" y="61" on="0"/>
        <pt x="312" y="61" on="1"/>
        <pt x="357" y="61" on="0"/>
        <pt x="414" y="91" on="0"/>
        <pt x="447" y="142" on="0"/>
        <pt x="460" y="211" on="0"/>
        <pt x="460" y="250" on="1"/>
        <pt x="560" y="250" on="1"/>
        <pt x="560" y="195" on="0"/>
        <pt x="534" y="100" on="0"/>
        <pt x="475" y="29" on="0"/>
        <pt x="378" y="-11" on="0"/>
        <pt x="308" y="-11" on="1"/>
        <pt x="225" y="-11" on="0"/>
        <pt x="123" y="45" on="0"/>
        <pt x="66" y="147" on="0"/>
        <pt x="46" y="289" on="0"/>
        <pt x="46" y="375" on="1"/>
        <pt x="46" y="448" on="0"/>
        <pt x="62" y="578" on="0"/>
        <pt x="115" y="675" on="0"/>
        <pt x="215" y="731" on="0"/>
        <pt x="298" y="731" on="1"/>
        <pt x="327" y="731" on="0"/>
        <pt x="378" y="722" on="0"/>
        <pt x="419" y="699" on="0"/>
        <pt x="446" y="658" on="0"/>
        <pt x="452" y="627" on="1"/>
        <pt x="457" y="627" on="1"/>
        <pt x="477" y="720" on="1"/>
        <pt x="556" y="720" on="1"/>
        <pt x="556" y="475" on="1"/>
        <pt x="457" y="475" on="1"/>
        <pt x="457" y="560" on="0"/>
        <pt x="382" y="659" on="0"/>
      </contour>
      <contour>
        <pt x="361" y="791" on="1"/>
        <pt x="238" y="791" on="1"/>
        <pt x="133" y="916" on="1"/>
        <pt x="214" y="916" on="1"/>
        <pt x="299" y="843" on="1"/>
        <pt x="385" y="916" on="1"/>
        <pt x="466" y="916" on="1"/>
      </contour>
    </TTGlyph>
    <TTGlyph name="Ccedilla" xMin="47" yMin="-215" xMax="561" yMax="731">
      <contour>
        <pt x="220" y="-176" on="1"/>
        <pt x="274" y="-176" on="0"/>
        <pt x="321" y="-146" on="0"/>
        <pt x="321" y="-126" on="1"/>
        <pt x="321" y="-101" on="0"/>
        <pt x="290" y="-101" on="1"/>
        <pt x="273" y="-101" on="0"/>
        <pt x="260" y="-111" on="1"/>
        <pt x="217" y="-111" on="1"/>
        <pt x="260" y="-8" on="1"/>
        <pt x="193" y="0" on="0"/>
        <pt x="110" y="62" on="0"/>
        <pt x="63" y="162" on="0"/>
        <pt x="47" y="295" on="0"/>
        <pt x="47" y="375" on="1"/>
        <pt x="47" y="448" on="0"/>
        <pt x="63" y="578" on="0"/>
        <pt x="116" y="675" on="0"/>
        <pt x="216" y="731" on="0"/>
        <pt x="299" y="731" on="1"/>
        <pt x="328" y="731" on="0"/>
        <pt x="379" y="722" on="0"/>
        <pt x="420" y="699" on="0"/>
        <pt x="447" y="658" on="0"/>
        <pt x="453" y="627" on="1"/>
        <pt x="458" y="627" on="1"/>
        <pt x="478" y="720" on="1"/>
        <pt x="557" y="720" on="1"/>
        <pt x="557" y="475" on="1"/>
        <pt x="458" y="475" on="1"/>
        <pt x="458" y="560" on="0"/>
        <pt x="383" y="659" on="0"/>
        <pt x="305" y="659" on="1"/>
        <pt x="256" y="659" on="0"/>
        <pt x="196" y="618" on="0"/>
        <pt x="163" y="540" on="0"/>
        <pt x="151" y="428" on="0"/>
        <pt x="151" y="357" on="1"/>
        <pt x="151" y="291" on="0"/>
        <pt x="162" y="182" on="0"/>
        <pt x="196" y="104" on="0"/>
        <pt x="260" y="61" on="0"/>
        <pt x="313" y="61" on="1"/>
        <pt x="358" y="61" on="0"/>
        <pt x="415" y="91" on="0"/>
        <pt x="448" y="142" on="0"/>
        <pt x="461" y="211" on="0"/>
        <pt x="461" y="250" on="1"/>
        <pt x="561" y="250" on="1"/>
        <pt x="561" y="195" on="0"/>
        <pt x="535" y="100" on="0"/>
        <pt x="476" y="29" on="0"/>
        <pt x="379" y="-11" on="0"/>
        <pt x="309" y="-11" on="1"/>
        <pt x="292" y="-52" on="1"/>
        <pt x="303" y="-49" on="0"/>
        <pt x="329" y="-47" on="0"/>
        <pt x="336" y="-47" on="1"/>
        <pt x="369" y="-47" on="0"/>
        <pt x="409" y="-79" on="0"/>
        <pt x="409" y="-114" on="1"/>
        <pt x="409" y="-163" on="0"/>
        <pt x="316" y="-215" on="0"/>
        <pt x="210" y="-215" on="1"/>
      </contour>
    </TTGlyph>
    <TTGlyph name="Ccircumflex" xMin="46" yMin="-11" xMax="560" yMax="916">
      <contour>
        <pt x="304" y="659" on="1"/>
        <pt x="255" y="659" on="0"/>
        <pt x="195" y="618" on="0"/>
        <pt x="162" y="540" on="0"/>
        <pt x="150" y="428" on="0"/>
        <pt x="150" y="357" on="1"/>
        <pt x="150" y="291" on="0"/>
        <pt x="161" y="182" on="0"/>
        <pt x="195" y="104" on="0"/>
        <pt x="259" y="61" on="0"/>
        <pt x="312" y="61" on="1"/>
        <pt x="357" y="61" on="0"/>
        <pt x="414" y="91" on="0"/>
        <pt x="447" y="142" on="0"/>
        <pt x="460" y="211" on="0"/>
        <pt x="460" y="250" on="1"/>
        <pt x="560" y="250" on="1"/>
        <pt x="560" y="195" on="0"/>
        <pt x="534" y="100" on="0"/>
        <pt x="475" y="29" on="0"/>
        <pt x="378" y="-11" on="0"/>
        <pt x="308" y="-11" on="1"/>
        <pt x="225" y="-11" on="0"/>
        <pt x="123" y="45" on="0"/>
        <pt x="66" y="147" on="0"/>
        <pt x="46" y="289" on="0"/>
        <pt x="46" y="375" on="1"/>
        <pt x="46" y="448" on="0"/>
        <pt x="62" y="578" on="0"/>
        <pt x="115" y="675" on="0"/>
        <pt x="215" y="731" on="0"/>
        <pt x="298" y="731" on="1"/>
        <pt x="327" y="731" on="0"/>
        <pt x="378" y="722" on="0"/>
        <pt x="419" y="699" on="0"/>
        <pt x="446" y="658" on="0"/>
        <pt x="452" y="627" on="1"/>
        <pt x="457" y="627" on="1"/>
        <pt x="477" y="720" on="1"/>
        <pt x="556" y="720" on="1"/>
        <pt x="556" y="475" on="1"/>
        <pt x="457" y="475" on="1"/>
        <pt x="457" y="560" on="0"/>
        <pt x="382" y="659" on="0"/>
      </contour>
      <contour>
        <pt x="476" y="791" on="1"/>
        <pt x="395" y="791" on="1"/>
        <pt x="309" y="863" on="1"/>
        <pt x="224" y="791" on="1"/>
        <pt x="143" y="791" on="1"/>
        <pt x="248" y="916" on="1"/>
        <pt x="371" y="916" on="1"/>
      </contour>
    </TTGlyph>
    <TTGlyph name="Cdotaccent" xMin="46" yMin="-11" xMax="560" yMax="918">
      <contour>
        <pt x="304" y="659" on="1"/>
        <pt x="255" y="659" on="0"/>
        <pt x="195" y="618" on="0"/>
        <pt x="162" y="540" on="0"/>
        <pt x="150" y="428" on="0"/>
        <pt x="150" y="357" on="1"/>
        <pt x="150" y="291" on="0"/>
        <pt x="161" y="182" on="0"/>
        <pt x="195" y="104" on="0"/>
        <pt x="259" y="61" on="0"/>
        <pt x="312" y="61" on="1"/>
        <pt x="357" y="61" on="0"/>
        <pt x="414" y="91" on="0"/>
        <pt x="447" y="142" on="0"/>
        <pt x="460" y="211" on="0"/>
        <pt x="460" y="250" on="1"/>
        <pt x="560" y="250" on="1"/>
        <pt x="560" y="195" on="0"/>
        <pt x="534" y="100" on="0"/>
        <pt x="475" y="29" on="0"/>
        <pt x="378" y="-11" on="0"/>
        <pt x="308" y="-11" on="1"/>
        <pt x="225" y="-11" on="0"/>
        <pt x="123" y="45" on="0"/>
        <pt x="66" y="147" on="0"/>
        <pt x="46" y="289" on="0"/>
        <pt x="46" y="375" on="1"/>
        <pt x="46" y="448" on="0"/>
        <pt x="62" y="578" on="0"/>
        <pt x="115" y="675" on="0"/>
        <pt x="215" y="731" on="0"/>
        <pt x="298" y="731" on="1"/>
        <pt x="327" y="731" on="0"/>
        <pt x="378" y="722" on="0"/>
        <pt x="419" y="699" on="0"/>
        <pt x="446" y="658" on="0"/>
        <pt x="452" y="627" on="1"/>
        <pt x="457" y="627" on="1"/>
        <pt x="477" y="720" on="1"/>
        <pt x="556" y="720" on="1"/>
        <pt x="556" y="475" on="1"/>
        <pt x="457" y="475" on="1"/>
        <pt x="457" y="560" on="0"/>
        <pt x="382" y="659" on="0"/>
      </contour>
      <contour>
        <pt x="296" y="791" on="1"/>
        <pt x="268" y="791" on="0"/>
        <pt x="232" y="827" on="0"/>
        <pt x="232" y="855" on="1"/>
        <pt x="232" y="883" on="0"/>
        <pt x="268" y="918" on="0"/>
        <pt x="296" y="918" on="1"/>
        <pt x="324" y="918" on="0"/>
        <pt x="360" y="883" on="0"/>
        <pt x="360" y="855" on="1"/>
        <pt x="360" y="827" on="0"/>
        <pt x="324" y="791" on="0"/>
      </contour>
    </TTGlyph>
    <TTGlyph name="D" xMin="33" yMin="0" xMax="617" yMax="720">
      <contour>
        <pt x="225" y="645" on="1"/>
        <pt x="225" y="75" on="1"/>
        <pt x="337" y="75" on="1"/>
        <pt x="400" y="75" on="0"/>
        <pt x="471" y="121" on="0"/>
        <pt x="506" y="200" on="0"/>
        <pt x="513" y="306" on="0"/>
        <pt x="513" y="367" on="1"/>
        <pt x="513" y="431" on="0"/>
        <pt x="502" y="534" on="0"/>
        <pt x="464" y="606" on="0"/>
        <pt x="390" y="645" on="0"/>
        <pt x="326" y="645" on="1"/>
      </contour>
      <contour>
        <pt x="322" y="720" on="1"/>
        <pt x="414" y="720" on="0"/>
        <pt x="529" y="670" on="0"/>
        <pt x="594" y="578" on="0"/>
        <pt x="617" y="448" on="0"/>
        <pt x="617" y="369" on="1"/>
        <pt x="617" y="293" on="0"/>
        <pt x="597" y="159" on="0"/>
        <pt x="537" y="58" on="0"/>
        <pt x="425" y="0" on="0"/>
        <pt x="333" y="0" on="1"/>
        <pt x="33" y="0" on="1"/>
        <pt x="33" y="60" on="1"/>
        <pt x="126" y="80" on="1"/>
        <pt x="126" y="640" on="1"/>
        <pt x="33" y="660" on="1"/>
        <pt x="33" y="720" on="1"/>
      </contour>
    </TTGlyph>
    <TTGlyph name="Dcaron" xMin="33" yMin="0" xMax="617" yMax="936">
      <contour>
        <pt x="225" y="645" on="1"/>
        <pt x="225" y="75" on="1"/>
        <pt x="337" y="75" on="1"/>
        <pt x="400" y="75" on="0"/>
        <pt x="471" y="121" on="0"/>
        <pt x="506" y="200" on="0"/>
        <pt x="513" y="306" on="0"/>
        <pt x="513" y="367" on="1"/>
        <pt x="513" y="431" on="0"/>
        <pt x="502" y="534" on="0"/>
        <pt x="464" y="606" on="0"/>
        <pt x="390" y="645" on="0"/>
        <pt x="326" y="645" on="1"/>
      </contour>
      <contour>
        <pt x="322" y="720" on="1"/>
        <pt x="414" y="720" on="0"/>
        <pt x="529" y="670" on="0"/>
        <pt x="594" y="578" on="0"/>
        <pt x="617" y="448" on="0"/>
        <pt x="617" y="369" on="1"/>
        <pt x="617" y="293" on="0"/>
        <pt x="597" y="159" on="0"/>
        <pt x="537" y="58" on="0"/>
        <pt x="425" y="0" on="0"/>
        <pt x="333" y="0" on="1"/>
        <pt x="33" y="0" on="1"/>
        <pt x="33" y="60" on="1"/>
        <pt x="126" y="80" on="1"/>
        <pt x="126" y="640" on="1"/>
        <pt x="33" y="660" on="1"/>
        <pt x="33" y="720" on="1"/>
      </contour>
      <contour>
        <pt x="363" y="791" on="1"/>
        <pt x="249" y="791" on="1"/>
        <pt x="129" y="936" on="1"/>
        <pt x="207" y="936" on="1"/>
        <pt x="304" y="854" on="1"/>
        <pt x="395" y="936" on="1"/>
        <pt x="473" y="936" on="1"/>
      </contour>
    </TTGlyph>
    <TTGlyph name="Dcroat" xMin="36" yMin="0" xMax="620" yMax="720">
      <contour>
        <pt x="36" y="405" on="1"/>
        <pt x="129" y="405" on="1"/>
        <pt x="129" y="640" on="1"/>
        <pt x="36" y="660" on="1"/>
        <pt x="36" y="720" on="1"/>
        <pt x="325" y="720" on="1"/>
        <pt x="417" y="720" on="0"/>
        <pt x="532" y="670" on="0"/>
        <pt x="597" y="578" on="0"/>
        <pt x="620" y="448" on="0"/>
        <pt x="620" y="369" on="1"/>
        <pt x="620" y="293" on="0"/>
        <pt x="600" y="159" on="0"/>
        <pt x="540" y="58" on="0"/>
        <pt x="428" y="0" on="0"/>
        <pt x="336" y="0" on="1"/>
        <pt x="36" y="0" on="1"/>
        <pt x="36" y="60" on="1"/>
        <pt x="129" y="80" on="1"/>
        <pt x="129" y="342" on="1"/>
        <pt x="36" y="342" on="1"/>
      </contour>
      <contour>
        <pt x="228" y="645" on="1"/>
        <pt x="228" y="405" on="1"/>
        <pt x="340" y="405" on="1"/>
        <pt x="340" y="342" on="1"/>
        <pt x="228" y="342" on="1"/>
        <pt x="228" y="75" on="1"/>
        <pt x="340" y="75" on="1"/>
        <pt x="403" y="75" on="0"/>
        <pt x="474" y="121" on="0"/>
        <pt x="509" y="200" on="0"/>
        <pt x="516" y="306" on="0"/>
        <pt x="516" y="367" on="1"/>
        <pt x="516" y="431" on="0"/>
        <pt x="505" y="534" on="0"/>
        <pt x="467" y="606" on="0"/>
        <pt x="393" y="645" on="0"/>
        <pt x="329" y="645" on="1"/>
      </contour>
    </TTGlyph>
    <TTGlyph name="Ddotbelow" xMin="33" yMin="-215" xMax="617" yMax="720">
      <contour>
        <pt x="225" y="645" on="1"/>
        <pt x="225" y="75" on="1"/>
        <pt x="337" y="75" on="1"/>
        <pt x="400" y="75" on="0"/>
        <pt x="471" y="121" on="0"/>
        <pt x="506" y="200" on="0"/>
        <pt x="513" y="306" on="0"/>
        <pt x="513" y="367" on="1"/>
        <pt x="513" y="431" on="0"/>
        <pt x="502" y="534" on="0"/>
        <pt x="464" y="606" on="0"/>
        <pt x="390" y="645" on="0"/>
        <pt x="326" y="645" on="1"/>
      </contour>
      <contour>
        <pt x="322" y="720" on="1"/>
        <pt x="414" y="720" on="0"/>
        <pt x="529" y="670" on="0"/>
        <pt x="594" y="578" on="0"/>
        <pt x="617" y="448" on="0"/>
        <pt x="617" y="369" on="1"/>
        <pt x="617" y="293" on="0"/>
        <pt x="597" y="159" on="0"/>
        <pt x="537" y="58" on="0"/>
        <pt x="425" y="0" on="0"/>
        <pt x="333" y="0" on="1"/>
        <pt x="33" y="0" on="1"/>
        <pt x="33" y="60" on="1"/>
        <pt x="126" y="80" on="1"/>
        <pt x="126" y="640" on="1"/>
        <pt x="33" y="660" on="1"/>
        <pt x="33" y="720" on="1"/>
      </contour>
      <contour>
        <pt x="308" y="-215" on="1"/>
        <pt x="280" y="-215" on="0"/>
        <pt x="244" y="-179" on="0"/>
        <pt x="244" y="-151" on="1"/>
        <pt x="244" y="-123" on="0"/>
        <pt x="280" y="-88" on="0"/>
        <pt x="308" y="-88" on="1"/>
        <pt x="336" y="-88" on="0"/>
        <pt x="372" y="-123" on="0"/>
        <pt x="372" y="-151" on="1"/>
        <pt x="372" y="-179" on="0"/>
        <pt x="336" y="-215" on="0"/>
      </contour>
    </TTGlyph>
    <TTGlyph name="E" xMin="33" yMin="0" xMax="513" yMax="720">
      <contour>
        <pt x="33" y="60" on="1"/>
        <pt x="126" y="80" on="1"/>
        <pt x="126" y="640" on="1"/>
        <pt x="33" y="660" on="1"/>
        <pt x="33" y="720" on="1"/>
        <pt x="513" y="720" on="1"/>
        <pt x="513" y="500" on="1"/>
        <pt x="434" y="500" on="1"/>
        <pt x="421" y="645" on="1"/>
        <pt x="225" y="645" on="1"/>
        <pt x="225" y="406" on="1"/>
        <pt x="413" y="406" on="1"/>
        <pt x="413" y="323" on="1"/>
        <pt x="225" y="323" on="1"/>
        <pt x="225" y="75" on="1"/>
        <pt x="420" y="75" on="1"/>
        <pt x="434" y="235" on="1"/>
        <pt x="513" y="235" on="1"/>
        <pt x="513" y="0" on="1"/>
        <pt x="33" y="0" on="1"/>
      </contour>
    </TTGlyph>
    <TTGlyph name="Eacute" xMin="33" yMin="0" xMax="513" yMax="916">
      <contour>
        <pt x="33" y="60" on="1"/>
        <pt x="126" y="80" on="1"/>
        <pt x="126" y="640" on="1"/>
        <pt x="33" y="660" on="1"/>
        <pt x="33" y="720" on="1"/>
        <pt x="513" y="720" on="1"/>
        <pt x="513" y="500" on="1"/>
        <pt x="434" y="500" on="1"/>
        <pt x="421" y="645" on="1"/>
        <pt x="225" y="645" on="1"/>
        <pt x="225" y="406" on="1"/>
        <pt x="413" y="406" on="1"/>
        <pt x="413" y="323" on="1"/>
        <pt x="225" y="323" on="1"/>
        <pt x="225" y="75" on="1"/>
        <pt x="420" y="75" on="1"/>
        <pt x="434" y="235" on="1"/>
        <pt x="513" y="235" on="1"/>
        <pt x="513" y="0" on="1"/>
        <pt x="33" y="0" on="1"/>
      </contour>
      <contour>
        <pt x="351" y="916" on="1"/>
        <pt x="474" y="916" on="1"/>
        <pt x="337" y="791" on="1"/>
        <pt x="256" y="791" on="1"/>
      </contour>
    </TTGlyph>
    <TTGlyph name="Ebreve" xMin="33" yMin="0" xMax="513" yMax="921">
      <contour>
        <pt x="33" y="60" on="1"/>
        <pt x="126" y="80" on="1"/>
        <pt x="126" y="640" on="1"/>
        <pt x="33" y="660" on="1"/>
        <pt x="33" y="720" on="1"/>
        <pt x="513" y="720" on="1"/>
        <pt x="513" y="500" on="1"/>
        <pt x="434" y="500" on="1"/>
        <pt x="421" y="645" on="1"/>
        <pt x="225" y="645" on="1"/>
        <pt x="225" y="406" on="1"/>
        <pt x="413" y="406" on="1"/>
        <pt x="413" y="323" on="1"/>
        <pt x="225" y="323" on="1"/>
        <pt x="225" y="75" on="1"/>
        <pt x="420" y="75" on="1"/>
        <pt x="434" y="235" on="1"/>
        <pt x="513" y="235" on="1"/>
        <pt x="513" y="0" on="1"/>
        <pt x="33" y="0" on="1"/>
      </contour>
      <contour>
        <pt x="455" y="921" on="1"/>
        <pt x="455" y="894" on="0"/>
        <pt x="441" y="847" on="0"/>
        <pt x="405" y="811" on="0"/>
        <pt x="343" y="791" on="0"/>
        <pt x="296" y="791" on="1"/>
        <pt x="249" y="791" on="0"/>
        <pt x="189" y="811" on="0"/>
        <pt x="153" y="847" on="0"/>
        <pt x="139" y="894" on="0"/>
        <pt x="139" y="921" on="1"/>
        <pt x="222" y="921" on="1"/>
        <pt x="222" y="894" on="0"/>
        <pt x="259" y="852" on="0"/>
        <pt x="298" y="852" on="1"/>
        <pt x="337" y="852" on="0"/>
        <pt x="373" y="894" on="0"/>
        <pt x="373" y="921" on="1"/>
      </contour>
    </TTGlyph>
    <TTGlyph name="Ecaron" xMin="33" yMin="0" xMax="513" yMax="916">
      <contour>
        <pt x="33" y="60" on="1"/>
        <pt x="126" y="80" on="1"/>
        <pt x="126" y="640" on="1"/>
        <pt x="33" y="660" on="1"/>
        <pt x="33" y="720" on="1"/>
        <pt x="513" y="720" on="1"/>
        <pt x="513" y="500" on="1"/>
        <pt x="434" y="500" on="1"/>
        <pt x="421" y="645" on="1"/>
        <pt x="225" y="645" on="1"/>
        <pt x="225" y="406" on="1"/>
        <pt x="413" y="406" on="1"/>
        <pt x="413" y="323" on="1"/>
        <pt x="225" y="323" on="1"/>
        <pt x="225" y="75" on="1"/>
        <pt x="420" y="75" on="1"/>
        <pt x="434" y="235" on="1"/>
        <pt x="513" y="235" on="1"/>
        <pt x="513" y="0" on="1"/>
        <pt x="33" y="0" on="1"/>
      </contour>
      <contour>
        <pt x="360" y="791" on="1"/>
        <pt x="237" y="791" on="1"/>
        <pt x="132" y="916" on="1"/>
        <pt x="213" y="916" on="1"/>
        <pt x="298" y="843" on="1"/>
        <pt x="384" y="916" on="1"/>
        <pt x="465" y="916" on="1"/>
      </contour>
    </TTGlyph>
    <TTGlyph name="Ecircumflex" xMin="33" yMin="0" xMax="513" yMax="916">
      <contour>
        <pt x="33" y="60" on="1"/>
        <pt x="126" y="80" on="1"/>
        <pt x="126" y="640" on="1"/>
        <pt x="33" y="660" on="1"/>
        <pt x="33" y="720" on="1"/>
        <pt x="513" y="720" on="1"/>
        <pt x="513" y="500" on="1"/>
        <pt x="434" y="500" on="1"/>
        <pt x="421" y="645" on="1"/>
        <pt x="225" y="645" on="1"/>
        <pt x="225" y="406" on="1"/>
        <pt x="413" y="406" on="1"/>
        <pt x="413" y="323" on="1"/>
        <pt x="225" y="323" on="1"/>
        <pt x="225" y="75" on="1"/>
        <pt x="420" y="75" on="1"/>
        <pt x="434" y="235" on="1"/>
        <pt x="513" y="235" on="1"/>
        <pt x="513" y="0" on="1"/>
        <pt x="33" y="0" on="1"/>
      </contour>
      <contour>
        <pt x="465" y="791" on="1"/>
        <pt x="384" y="791" on="1"/>
        <pt x="298" y="863" on="1"/>
        <pt x="213" y="791" on="1"/>
        <pt x="132" y="791" on="1"/>
        <pt x="237" y="916" on="1"/>
        <pt x="360" y="916" on="1"/>
      </contour>
    </TTGlyph>
    <TTGlyph name="Edieresis" xMin="33" yMin="0" xMax="513" yMax="909">
      <contour>
        <pt x="33" y="60" on="1"/>
        <pt x="126" y="80" on="1"/>
        <pt x="126" y="640" on="1"/>
        <pt x="33" y="660" on="1"/>
        <pt x="33" y="720" on="1"/>
        <pt x="513" y="720" on="1"/>
        <pt x="513" y="500" on="1"/>
        <pt x="434" y="500" on="1"/>
        <pt x="421" y="645" on="1"/>
        <pt x="225" y="645" on="1"/>
        <pt x="225" y="406" on="1"/>
        <pt x="413" y="406" on="1"/>
        <pt x="413" y="323" on="1"/>
        <pt x="225" y="323" on="1"/>
        <pt x="225" y="75" on="1"/>
        <pt x="420" y="75" on="1"/>
        <pt x="434" y="235" on="1"/>
        <pt x="513" y="235" on="1"/>
        <pt x="513" y="0" on="1"/>
        <pt x="33" y="0" on="1"/>
      </contour>
      <contour>
        <pt x="194" y="791" on="1"/>
        <pt x="168" y="791" on="0"/>
        <pt x="135" y="824" on="0"/>
        <pt x="135" y="850" on="1"/>
        <pt x="135" y="876" on="0"/>
        <pt x="168" y="909" on="0"/>
        <pt x="194" y="909" on="1"/>
        <pt x="220" y="909" on="0"/>
        <pt x="254" y="876" on="0"/>
        <pt x="254" y="850" on="1"/>
        <pt x="254" y="824" on="0"/>
        <pt x="220" y="791" on="0"/>
      </contour>
      <contour>
        <pt x="400" y="791" on="1"/>
        <pt x="374" y="791" on="0"/>
        <pt x="341" y="824" on="0"/>
        <pt x="341" y="850" on="1"/>
        <pt x="341" y="876" on="0"/>
        <pt x="374" y="909" on="0"/>
        <pt x="400" y="909" on="1"/>
        <pt x="426" y="909" on="0"/>
        <pt x="460" y="876" on="0"/>
        <pt x="460" y="850" on="1"/>
        <pt x="460" y="824" on="0"/>
        <pt x="426" y="791" on="0"/>
      </contour>
    </TTGlyph>
    <TTGlyph name="Edotaccent" xMin="33" yMin="0" xMax="513" yMax="918">
      <contour>
        <pt x="33" y="60" on="1"/>
        <pt x="126" y="80" on="1"/>
        <pt x="126" y="640" on="1"/>
        <pt x="33" y="660" on="1"/>
        <pt x="33" y="720" on="1"/>
        <pt x="513" y="720" on="1"/>
        <pt x="513" y="500" on="1"/>
        <pt x="434" y="500" on="1"/>
        <pt x="421" y="645" on="1"/>
        <pt x="225" y="645" on="1"/>
        <pt x="225" y="406" on="1"/>
        <pt x="413" y="406" on="1"/>
        <pt x="413" y="323" on="1"/>
        <pt x="225" y="323" on="1"/>
        <pt x="225" y="75" on="1"/>
        <pt x="420" y="75" on="1"/>
        <pt x="434" y="235" on="1"/>
        <pt x="513" y="235" on="1"/>
        <pt x="513" y="0" on="1"/>
        <pt x="33" y="0" on="1"/>
      </contour>
      <contour>
        <pt x="298" y="791" on="1"/>
        <pt x="270" y="791" on="0"/>
        <pt x="234" y="827" on="0"/>
        <pt x="234" y="855" on="1"/>
        <pt x="234" y="883" on="0"/>
        <pt x="270" y="918" on="0"/>
        <pt x="298" y="918" on="1"/>
        <pt x="326" y="918" on="0"/>
        <pt x="362" y="883" on="0"/>
        <pt x="362" y="855" on="1"/>
        <pt x="362" y="827" on="0"/>
        <pt x="326" y="791" on="0"/>
      </contour>
    </TTGlyph>
    <TTGlyph name="Edotbelow" xMin="33" yMin="-215" xMax="513" yMax="720">
      <contour>
        <pt x="33" y="60" on="1"/>
        <pt x="126" y="80" on="1"/>
        <pt x="126" y="640" on="1"/>
        <pt x="33" y="660" on="1"/>
        <pt x="33" y="720" on="1"/>
        <pt x="513" y="720" on="1"/>
        <pt x="513" y="500" on="1"/>
        <pt x="434" y="500" on="1"/>
        <pt x="421" y="645" on="1"/>
        <pt x="225" y="645" on="1"/>
        <pt x="225" y="406" on="1"/>
        <pt x="413" y="406" on="1"/>
        <pt x="413" y="323" on="1"/>
        <pt x="225" y="323" on="1"/>
        <pt x="225" y="75" on="1"/>
        <pt x="420" y="75" on="1"/>
        <pt x="434" y="235" on="1"/>
        <pt x="513" y="235" on="1"/>
        <pt x="513" y="0" on="1"/>
        <pt x="33" y="0" on="1"/>
      </contour>
      <contour>
        <pt x="297" y="-215" on="1"/>
        <pt x="269" y="-215" on="0"/>
        <pt x="233" y="-179" on="0"/>
        <pt x="233" y="-151" on="1"/>
        <pt x="233" y="-123" on="0"/>
        <pt x="269" y="-88" on="0"/>
        <pt x="297" y="-88" on="1"/>
        <pt x="325" y="-88" on="0"/>
        <pt x="361" y="-123" on="0"/>
        <pt x="361" y="-151" on="1"/>
        <pt x="361" y="-179" on="0"/>
        <pt x="325" y="-215" on="0"/>
      </contour>
    </TTGlyph>
    <TTGlyph name="Egrave" xMin="33" yMin="0" xMax="513" yMax="916">
      <contour>
        <pt x="33" y="60" on="1"/>
        <pt x="126" y="80" on="1"/>
        <pt x="126" y="640" on="1"/>
        <pt x="33" y="660" on="1"/>
        <pt x="33" y="720" on="1"/>
        <pt x="513" y="720" on="1"/>
        <pt x="513" y="500" on="1"/>
        <pt x="434" y="500" on="1"/>
        <pt x="421" y="645" on="1"/>
        <pt x="225" y="645" on="1"/>
        <pt x="225" y="406" on="1"/>
        <pt x="413" y="406" on="1"/>
        <pt x="413" y="323" on="1"/>
        <pt x="225" y="323" on="1"/>
        <pt x="225" y="75" on="1"/>
        <pt x="420" y="75" on="1"/>
        <pt x="434" y="235" on="1"/>
        <pt x="513" y="235" on="1"/>
        <pt x="513" y="0" on="1"/>
        <pt x="33" y="0" on="1"/>
      </contour>
      <contour>
        <pt x="338" y="791" on="1"/>
        <pt x="257" y="791" on="1"/>
        <pt x="140" y="916" on="1"/>
        <pt x="263" y="916" on="1"/>
      </contour>
    </TTGlyph>
    <TTGlyph name="Emacron" xMin="33" yMin="0" xMax="513" yMax="884">
      <contour>
        <pt x="33" y="60" on="1"/>
        <pt x="126" y="80" on="1"/>
        <pt x="126" y="640" on="1"/>
        <pt x="33" y="660" on="1"/>
        <pt x="33" y="720" on="1"/>
        <pt x="513" y="720" on="1"/>
        <pt x="513" y="500" on="1"/>
        <pt x="434" y="500" on="1"/>
        <pt x="421" y="645" on="1"/>
        <pt x="225" y="645" on="1"/>
        <pt x="225" y="406" on="1"/>
        <pt x="413" y="406" on="1"/>
        <pt x="413" y="323" on="1"/>
        <pt x="225" y="323" on="1"/>
        <pt x="225" y="75" on="1"/>
        <pt x="420" y="75" on="1"/>
        <pt x="434" y="235" on="1"/>
        <pt x="513" y="235" on="1"/>
        <pt x="513" y="0" on="1"/>
        <pt x="33" y="0" on="1"/>
      </contour>
      <contour>
        <pt x="160" y="884" on="1"/>
        <pt x="434" y="884" on="1"/>
        <pt x="434" y="821" on="1"/>
        <pt x="160" y="821" on="1"/>
      </contour>
    </TTGlyph>
    <TTGlyph name="Eng" xMin="33" yMin="-225" xMax="739" yMax="720">
      <contour>
        <pt x="411" y="-112" on="1"/>
        <pt x="422" y="-129" on="0"/>
        <pt x="457" y="-146" on="0"/>
        <pt x="479" y="-146" on="1"/>
        <pt x="504" y="-146" on="0"/>
        <pt x="533" y="-124" on="0"/>
        <pt x="548" y="-88" on="0"/>
        <pt x="551" y="-40" on="0"/>
        <pt x="551" y="-14" on="1"/>
        <pt x="551" y="0" on="1"/>
        <pt x="474" y="0" on="1"/>
        <pt x="225" y="640" on="1"/>
        <pt x="225" y="80" on="1"/>
        <pt x="298" y="60" on="1"/>
        <pt x="298" y="0" on="1"/>
        <pt x="33" y="0" on="1"/>
        <pt x="33" y="60" on="1"/>
        <pt x="126" y="80" on="1"/>
        <pt x="126" y="640" on="1"/>
        <pt x="33" y="660" on="1"/>
        <pt x="33" y="720" on="1"/>
        <pt x="298" y="720" on="1"/>
        <pt x="547" y="80" on="1"/>
        <pt x="547" y="640" on="1"/>
        <pt x="474" y="660" on="1"/>
        <pt x="474" y="720" on="1"/>
        <pt x="739" y="720" on="1"/>
        <pt x="739" y="660" on="1"/>
        <pt x="646" y="640" on="1"/>
        <pt x="646" y="-10" on="1"/>
        <pt x="646" y="-65" on="0"/>
        <pt x="631" y="-146" on="0"/>
        <pt x="593" y="-199" on="0"/>
        <pt x="529" y="-225" on="0"/>
        <pt x="480" y="-225" on="1"/>
        <pt x="435" y="-225" on="0"/>
        <pt x="388" y="-205" on="0"/>
        <pt x="367" y="-189" on="1"/>
      </contour>
    </TTGlyph>
    <TTGlyph name="Eogonek" xMin="33" yMin="-210" xMax="513" yMax="720">
      <contour>
        <pt x="33" y="60" on="1"/>
        <pt x="126" y="80" on="1"/>
        <pt x="126" y="640" on="1"/>
        <pt x="33" y="660" on="1"/>
        <pt x="33" y="720" on="1"/>
        <pt x="513" y="720" on="1"/>
        <pt x="513" y="500" on="1"/>
        <pt x="434" y="500" on="1"/>
        <pt x="421" y="645" on="1"/>
        <pt x="225" y="645" on="1"/>
        <pt x="225" y="406" on="1"/>
        <pt x="413" y="406" on="1"/>
        <pt x="413" y="323" on="1"/>
        <pt x="225" y="323" on="1"/>
        <pt x="225" y="75" on="1"/>
        <pt x="420" y="75" on="1"/>
        <pt x="434" y="235" on="1"/>
        <pt x="513" y="235" on="1"/>
        <pt x="513" y="0" on="1"/>
        <pt x="339" y="0" on="1"/>
        <pt x="312" y="-30" on="0"/>
        <pt x="291" y="-86" on="0"/>
        <pt x="291" y="-102" on="1"/>
        <pt x="291" y="-118" on="0"/>
        <pt x="311" y="-141" on="0"/>
        <pt x="334" y="-141" on="1"/>
        <pt x="352" y="-141" on="0"/>
        <pt x="365" y="-136" on="1"/>
        <pt x="372" y="-133" on="0"/>
        <pt x="379" y="-130" on="1"/>
        <pt x="379" y="-199" on="1"/>
        <pt x="369" y="-202" on="0"/>
        <pt x="358" y="-205" on="1"/>
        <pt x="338" y="-210" on="0"/>
        <pt x="313" y="-210" on="1"/>
        <pt x="294" y="-210" on="0"/>
        <pt x="258" y="-200" on="0"/>
        <pt x="231" y="-177" on="0"/>
        <pt x="215" y="-142" on="0"/>
        <pt x="215" y="-118" on="1"/>
        <pt x="215" y="-82" on="0"/>
        <pt x="249" y="-31" on="0"/>
        <pt x="279" y="0" on="1"/>
        <pt x="33" y="0" on="1"/>
      </contour>
    </TTGlyph>
    <TTGlyph name="Eth" xMin="36" yMin="0" xMax="620" yMax="720">
      <contour>
        <pt x="36" y="410" on="1"/>
        <pt x="129" y="410" on="1"/>
        <pt x="129" y="640" on="1"/>
        <pt x="36" y="660" on="1"/>
        <pt x="36" y="720" on="1"/>
        <pt x="325" y="720" on="1"/>
        <pt x="417" y="720" on="0"/>
        <pt x="532" y="670" on="0"/>
        <pt x="597" y="578" on="0"/>
        <pt x="620" y="448" on="0"/>
        <pt x="620" y="369" on="1"/>
        <pt x="620" y="293" on="0"/>
        <pt x="600" y="159" on="0"/>
        <pt x="540" y="58" on="0"/>
        <pt x="428" y="0" on="0"/>
        <pt x="336" y="0" on="1"/>
        <pt x="36" y="0" on="1"/>
        <pt x="36" y="60" on="1"/>
        <pt x="129" y="80" on="1"/>
        <pt x="129" y="337" on="1"/>
        <pt x="36" y="337" on="1"/>
      </contour>
      <contour>
        <pt x="228" y="645" on="1"/>
        <pt x="228" y="410" on="1"/>
        <pt x="350" y="410" on="1"/>
        <pt x="350" y="337" on="1"/>
        <pt x="228" y="337" on="1"/>
        <pt x="228" y="75" on="1"/>
        <pt x="340" y="75" on="1"/>
        <pt x="403" y="75" on="0"/>
        <pt x="474" y="121" on="0"/>
        <pt x="509" y="200" on="0"/>
        <pt x="516" y="306" on="0"/>
        <pt x="516" y="367" on="1"/>
        <pt x="516" y="431" on="0"/>
        <pt x="505" y="534" on="0"/>
        <pt x="467" y="606" on="0"/>
        <pt x="393" y="645" on="0"/>
        <pt x="329" y="645" on="1"/>
      </contour>
    </TTGlyph>
    <TTGlyph name="Etilde" xMin="33" yMin="0" xMax="513" yMax="927">
      <contour>
        <pt x="33" y="60" on="1"/>
        <pt x="126" y="80" on="1"/>
        <pt x="126" y="640" on="1"/>
        <pt x="33" y="660" on="1"/>
        <pt x="33" y="720" on="1"/>
        <pt x="513" y="720" on="1"/>
        <pt x="513" y="500" on="1"/>
        <pt x="434" y="500" on="1"/>
        <pt x="421" y="645" on="1"/>
        <pt x="225" y="645" on="1"/>
        <pt x="225" y="406" on="1"/>
        <pt x="413" y="406" on="1"/>
        <pt x="413" y="323" on="1"/>
        <pt x="225" y="323" on="1"/>
        <pt x="225" y="75" on="1"/>
        <pt x="420" y="75" on="1"/>
        <pt x="434" y="235" on="1"/>
        <pt x="513" y="235" on="1"/>
        <pt x="513" y="0" on="1"/>
        <pt x="33" y="0" on="1"/>
      </contour>
      <contour>
        <pt x="483" y="924" on="1"/>
        <pt x="483" y="897" on="0"/>
        <pt x="469" y="848" on="0"/>
        <pt x="440" y="812" on="0"/>
        <pt x="399" y="791" on="0"/>
        <pt x="372" y="791" on="1"/>
        <pt x="343" y="791" on="0"/>
        <pt x="302" y="812" on="0"/>
        <pt x="268" y="836" on="0"/>
        <pt x="239" y="857" on="0"/>
        <pt x="223" y="857" on="1"/>
        <pt x="215" y="857" on="0"/>
        <pt x="198" y="851" on="0"/>
        <pt x="182" y="838" on="0"/>
        <pt x="172" y="816" on="0"/>
        <pt x="172" y="801" on="1"/>
        <pt x="111" y="801" on="1"/>
        <pt x="111" y="824" on="0"/>
        <pt x="123" y="869" on="0"/>
        <pt x="149" y="905" on="0"/>
        <pt x="190" y="927" on="0"/>
        <pt x="219" y="927" on="1"/>
        <pt x="249" y="927" on="0"/>
        <pt x="288" y="906" on="0"/>
        <pt x="319" y="882" on="0"/>
        <pt x="347" y="861" on="0"/>
        <pt x="366" y="861" on="1"/>
        <pt x="389" y="861" on="0"/>
        <pt x="423" y="895" on="0"/>
        <pt x="423" y="924" on="1"/>
      </contour>
    </TTGlyph>
    <TTGlyph name="Euro" xMin="32" yMin="-11" xMax="581" yMax="730">
      <contour>
        <pt x="32" y="482" on="1"/>
        <pt x="104" y="482" on="1"/>
        <pt x="110" y="539" on="0"/>
        <pt x="141" y="630" on="0"/>
        <pt x="199" y="695" on="0"/>
        <pt x="287" y="730" on="0"/>
        <pt x="352" y="730" on="1"/>
        <pt x="410" y="730" on="0"/>
        <pt x="497" y="699" on="0"/>
        <pt x="553" y="642" on="0"/>
        <pt x="581" y="563" on="0"/>
        <pt x="581" y="515" on="1"/>
        <pt x="481" y="515" on="1"/>
        <pt x="481" y="581" on="0"/>
        <pt x="423" y="658" on="0"/>
        <pt x="356" y="658" on="1"/>
        <pt x="316" y="658" on="0"/>
        <pt x="262" y="635" on="0"/>
        <pt x="228" y="590" on="0"/>
        <pt x="210" y="525" on="0"/>
        <pt x="206" y="482" on="1"/>
        <pt x="346" y="482" on="1"/>
        <pt x="346" y="409" on="1"/>
        <pt x="202" y="409" on="1"/>
        <pt x="202" y="309" on="1"/>
        <pt x="346" y="309" on="1"/>
        <pt x="346" y="236" on="1"/>
        <pt x="206" y="236" on="1"/>
        <pt x="210" y="193" on="0"/>
        <pt x="228" y="128" on="0"/>
        <pt x="263" y="84" on="0"/>
        <pt x="317" y="61" on="0"/>
        <pt x="356" y="61" on="1"/>
        <pt x="422" y="61" on="0"/>
        <pt x="481" y="139" on="0"/>
        <pt x="481" y="204" on="1"/>
        <pt x="581" y="204" on="1"/>
        <pt x="581" y="156" on="0"/>
        <pt x="554" y="77" on="0"/>
        <pt x="497" y="20" on="0"/>
        <pt x="411" y="-11" on="0"/>
        <pt x="352" y="-11" on="1"/>
        <pt x="288" y="-11" on="0"/>
        <pt x="199" y="24" on="0"/>
        <pt x="141" y="88" on="0"/>
        <pt x="110" y="179" on="0"/>
        <pt x="104" y="236" on="1"/>
        <pt x="32" y="236" on="1"/>
        <pt x="32" y="309" on="1"/>
        <pt x="98" y="309" on="1"/>
        <pt x="98" y="409" on="1"/>
        <pt x="32" y="409" on="1"/>
      </contour>
    </TTGlyph>
    <TTGlyph name="F" xMin="33" yMin="0" xMax="503" yMax="720">
      <contour>
        <pt x="411" y="645" on="1"/>
        <pt x="225" y="645" on="1"/>
        <pt x="225" y="396" on="1"/>
        <pt x="403" y="396" on="1"/>
        <pt x="403" y="313" on="1"/>
        <pt x="225" y="313" on="1"/>
        <pt x="225" y="80" on="1"/>
        <pt x="338" y="65" on="1"/>
        <pt x="338" y="0" on="1"/>
        <pt x="33" y="0" on="1"/>
        <pt x="33" y="60" on="1"/>
        <pt x="126" y="80" on="1"/>
        <pt x="126" y="640" on="1"/>
        <pt x="33" y="660" on="1"/>
        <pt x="33" y="720" on="1"/>
        <pt x="503" y="720" on="1"/>
        <pt x="503" y="500" on="1"/>
        <pt x="424" y="500" on="1"/>
      </contour>
    </TTGlyph>
    <TTGlyph name="G" xMin="46" yMin="-11" xMax="559" yMax="731">
      <contour>
        <pt x="319" y="336" on="1"/>
        <pt x="559" y="336" on="1"/>
        <pt x="559" y="0" on="1"/>
        <pt x="480" y="0" on="1"/>
        <pt x="470" y="103" on="1"/>
        <pt x="465" y="103" on="1"/>
        <pt x="457" y="76" on="0"/>
        <pt x="432" y="34" on="0"/>
        <pt x="393" y="4" on="0"/>
        <pt x="335" y="-11" on="0"/>
        <pt x="295" y="-11" on="1"/>
        <pt x="219" y="-11" on="0"/>
        <pt x="122" y="43" on="0"/>
        <pt x="67" y="143" on="0"/>
        <pt x="46" y="284" on="0"/>
        <pt x="46" y="372" on="1"/>
        <pt x="46" y="447" on="0"/>
        <pt x="63" y="577" on="0"/>
        <pt x="118" y="675" on="0"/>
        <pt x="221" y="731" on="0"/>
        <pt x="306" y="731" on="1"/>
        <pt x="330" y="731" on="0"/>
        <pt x="376" y="724" on="0"/>
        <pt x="415" y="703" on="0"/>
        <pt x="444" y="664" on="0"/>
        <pt x="453" y="631" on="1"/>
        <pt x="458" y="631" on="1"/>
        <pt x="477" y="720" on="1"/>
        <pt x="556" y="720" on="1"/>
        <pt x="556" y="475" on="1"/>
        <pt x="457" y="475" on="1"/>
        <pt x="457" y="560" on="0"/>
        <pt x="381" y="649" on="0"/>
        <pt x="305" y="649" on="1"/>
        <pt x="255" y="649" on="0"/>
        <pt x="194" y="610" on="0"/>
        <pt x="161" y="535" on="0"/>
        <pt x="150" y="425" on="0"/>
        <pt x="150" y="354" on="1"/>
        <pt x="150" y="283" on="0"/>
        <pt x="161" y="176" on="0"/>
        <pt x="194" y="106" on="0"/>
        <pt x="256" y="71" on="0"/>
        <pt x="306" y="71" on="1"/>
        <pt x="351" y="71" on="0"/>
        <pt x="410" y="98" on="0"/>
        <pt x="445" y="146" on="0"/>
        <pt x="459" y="213" on="0"/>
        <pt x="460" y="253" on="1"/>
        <pt x="319" y="253" on="1"/>
      </contour>
    </TTGlyph>
    <TTGlyph name="Gbreve" xMin="46" yMin="-11" xMax="559" yMax="921">
      <contour>
        <pt x="319" y="336" on="1"/>
        <pt x="559" y="336" on="1"/>
        <pt x="559" y="0" on="1"/>
        <pt x="480" y="0" on="1"/>
        <pt x="470" y="103" on="1"/>
        <pt x="465" y="103" on="1"/>
        <pt x="457" y="76" on="0"/>
        <pt x="432" y="34" on="0"/>
        <pt x="393" y="4" on="0"/>
        <pt x="335" y="-11" on="0"/>
        <pt x="295" y="-11" on="1"/>
        <pt x="219" y="-11" on="0"/>
        <pt x="122" y="43" on="0"/>
        <pt x="67" y="143" on="0"/>
        <pt x="46" y="284" on="0"/>
        <pt x="46" y="372" on="1"/>
        <pt x="46" y="447" on="0"/>
        <pt x="63" y="577" on="0"/>
        <pt x="118" y="675" on="0"/>
        <pt x="221" y="731" on="0"/>
        <pt x="306" y="731" on="1"/>
        <pt x="330" y="731" on="0"/>
        <pt x="376" y="724" on="0"/>
        <pt x="415" y="703" on="0"/>
        <pt x="444" y="664" on="0"/>
        <pt x="453" y="631" on="1"/>
        <pt x="458" y="631" on="1"/>
        <pt x="477" y="720" on="1"/>
        <pt x="556" y="720" on="1"/>
        <pt x="556" y="475" on="1"/>
        <pt x="457" y="475" on="1"/>
        <pt x="457" y="560" on="0"/>
        <pt x="381" y="649" on="0"/>
        <pt x="305" y="649" on="1"/>
        <pt x="255" y="649" on="0"/>
        <pt x="194" y="610" on="0"/>
        <pt x="161" y="535" on="0"/>
        <pt x="150" y="425" on="0"/>
        <pt x="150" y="354" on="1"/>
        <pt x="150" y="283" on="0"/>
        <pt x="161" y="176" on="0"/>
        <pt x="194" y="106" on="0"/>
        <pt x="256" y="71" on="0"/>
        <pt x="306" y="71" on="1"/>
        <pt x="351" y="71" on="0"/>
        <pt x="410" y="98" on="0"/>
        <pt x="445" y="146" on="0"/>
        <pt x="459" y="213" on="0"/>
        <pt x="460" y="253" on="1"/>
        <pt x="319" y="253" on="1"/>
      </contour>
      <contour>
        <pt x="456" y="921" on="1"/>
        <pt x="456" y="894" on="0"/>
        <pt x="442" y="847" on="0"/>
        <pt x="406" y="811" on="0"/>
        <pt x="344" y="791" on="0"/>
        <pt x="297" y="791" on="1"/>
        <pt x="250" y="791" on="0"/>
        <pt x="190" y="811" on="0"/>
        <pt x="154" y="847" on="0"/>
        <pt x="140" y="894" on="0"/>
        <pt x="140" y="921" on="1"/>
        <pt x="223" y="921" on="1"/>
        <pt x="223" y="894" on="0"/>
        <pt x="260" y="852" on="0"/>
        <pt x="299" y="852" on="1"/>
        <pt x="338" y="852" on="0"/>
        <pt x="374" y="894" on="0"/>
        <pt x="374" y="921" on="1"/>
      </contour>
    </TTGlyph>
    <TTGlyph name="Gcircumflex" xMin="46" yMin="-11" xMax="559" yMax="916">
      <contour>
        <pt x="319" y="336" on="1"/>
        <pt x="559" y="336" on="1"/>
        <pt x="559" y="0" on="1"/>
        <pt x="480" y="0" on="1"/>
        <pt x="470" y="103" on="1"/>
        <pt x="465" y="103" on="1"/>
        <pt x="457" y="76" on="0"/>
        <pt x="432" y="34" on="0"/>
        <pt x="393" y="4" on="0"/>
        <pt x="335" y="-11" on="0"/>
        <pt x="295" y="-11" on="1"/>
        <pt x="219" y="-11" on="0"/>
        <pt x="122" y="43" on="0"/>
        <pt x="67" y="143" on="0"/>
        <pt x="46" y="284" on="0"/>
        <pt x="46" y="372" on="1"/>
        <pt x="46" y="447" on="0"/>
        <pt x="63" y="577" on="0"/>
        <pt x="118" y="675" on="0"/>
        <pt x="221" y="731" on="0"/>
        <pt x="306" y="731" on="1"/>
        <pt x="330" y="731" on="0"/>
        <pt x="376" y="724" on="0"/>
        <pt x="415" y="703" on="0"/>
        <pt x="444" y="664" on="0"/>
        <pt x="453" y="631" on="1"/>
        <pt x="458" y="631" on="1"/>
        <pt x="477" y="720" on="1"/>
        <pt x="556" y="720" on="1"/>
        <pt x="556" y="475" on="1"/>
        <pt x="457" y="475" on="1"/>
        <pt x="457" y="560" on="0"/>
        <pt x="381" y="649" on="0"/>
        <pt x="305" y="649" on="1"/>
        <pt x="255" y="649" on="0"/>
        <pt x="194" y="610" on="0"/>
        <pt x="161" y="535" on="0"/>
        <pt x="150" y="425" on="0"/>
        <pt x="150" y="354" on="1"/>
        <pt x="150" y="283" on="0"/>
        <pt x="161" y="176" on="0"/>
        <pt x="194" y="106" on="0"/>
        <pt x="256" y="71" on="0"/>
        <pt x="306" y="71" on="1"/>
        <pt x="351" y="71" on="0"/>
        <pt x="410" y="98" on="0"/>
        <pt x="445" y="146" on="0"/>
        <pt x="459" y="213" on="0"/>
        <pt x="460" y="253" on="1"/>
        <pt x="319" y="253" on="1"/>
      </contour>
      <contour>
        <pt x="481" y="791" on="1"/>
        <pt x="400" y="791" on="1"/>
        <pt x="314" y="863" on="1"/>
        <pt x="229" y="791" on="1"/>
        <pt x="148" y="791" on="1"/>
        <pt x="253" y="916" on="1"/>
        <pt x="376" y="916" on="1"/>
      </contour>
    </TTGlyph>
    <TTGlyph name="Gcommaaccent" xMin="46" yMin="-215" xMax="559" yMax="731">
      <contour>
        <pt x="319" y="336" on="1"/>
        <pt x="559" y="336" on="1"/>
        <pt x="559" y="0" on="1"/>
        <pt x="480" y="0" on="1"/>
        <pt x="470" y="103" on="1"/>
        <pt x="465" y="103" on="1"/>
        <pt x="457" y="76" on="0"/>
        <pt x="432" y="34" on="0"/>
        <pt x="393" y="4" on="0"/>
        <pt x="335" y="-11" on="0"/>
        <pt x="295" y="-11" on="1"/>
        <pt x="219" y="-11" on="0"/>
        <pt x="122" y="43" on="0"/>
        <pt x="67" y="143" on="0"/>
        <pt x="46" y="284" on="0"/>
        <pt x="46" y="372" on="1"/>
        <pt x="46" y="447" on="0"/>
        <pt x="63" y="577" on="0"/>
        <pt x="118" y="675" on="0"/>
        <pt x="221" y="731" on="0"/>
        <pt x="306" y="731" on="1"/>
        <pt x="330" y="731" on="0"/>
        <pt x="376" y="724" on="0"/>
        <pt x="415" y="703" on="0"/>
        <pt x="444" y="664" on="0"/>
        <pt x="453" y="631" on="1"/>
        <pt x="458" y="631" on="1"/>
        <pt x="477" y="720" on="1"/>
        <pt x="556" y="720" on="1"/>
        <pt x="556" y="475" on="1"/>
        <pt x="457" y="475" on="1"/>
        <pt x="457" y="560" on="0"/>
        <pt x="381" y="649" on="0"/>
        <pt x="305" y="649" on="1"/>
        <pt x="255" y="649" on="0"/>
        <pt x="194" y="610" on="0"/>
        <pt x="161" y="535" on="0"/>
        <pt x="150" y="425" on="0"/>
        <pt x="150" y="354" on="1"/>
        <pt x="150" y="283" on="0"/>
        <pt x="161" y="176" on="0"/>
        <pt x="194" y="106" on="0"/>
        <pt x="256" y="71" on="0"/>
        <pt x="306" y="71" on="1"/>
        <pt x="351" y="71" on="0"/>
        <pt x="410" y="98" on="0"/>
        <pt x="445" y="146" on="0"/>
        <pt x="459" y="213" on="0"/>
        <pt x="460" y="253" on="1"/>
        <pt x="319" y="253" on="1"/>
      </contour>
      <contour>
        <pt x="248" y="-43" on="1"/>
        <pt x="347" y="-43" on="1"/>
        <pt x="347" y="-134" on="1"/>
        <pt x="325" y="-215" on="1"/>
        <pt x="268" y="-215" on="1"/>
        <pt x="280" y="-134" on="1"/>
        <pt x="248" y="-134" on="1"/>
      </contour>
    </TTGlyph>
    <TTGlyph name="Gdotaccent" xMin="46" yMin="-11" xMax="559" yMax="918">
      <contour>
        <pt x="319" y="336" on="1"/>
        <pt x="559" y="336" on="1"/>
        <pt x="559" y="0" on="1"/>
        <pt x="480" y="0" on="1"/>
        <pt x="470" y="103" on="1"/>
        <pt x="465" y="103" on="1"/>
        <pt x="457" y="76" on="0"/>
        <pt x="432" y="34" on="0"/>
        <pt x="393" y="4" on="0"/>
        <pt x="335" y="-11" on="0"/>
        <pt x="295" y="-11" on="1"/>
        <pt x="219" y="-11" on="0"/>
        <pt x="122" y="43" on="0"/>
        <pt x="67" y="143" on="0"/>
        <pt x="46" y="284" on="0"/>
        <pt x="46" y="372" on="1"/>
        <pt x="46" y="447" on="0"/>
        <pt x="63" y="577" on="0"/>
        <pt x="118" y="675" on="0"/>
        <pt x="221" y="731" on="0"/>
        <pt x="306" y="731" on="1"/>
        <pt x="330" y="731" on="0"/>
        <pt x="376" y="724" on="0"/>
        <pt x="415" y="703" on="0"/>
        <pt x="444" y="664" on="0"/>
        <pt x="453" y="631" on="1"/>
        <pt x="458" y="631" on="1"/>
        <pt x="477" y="720" on="1"/>
        <pt x="556" y="720" on="1"/>
        <pt x="556" y="475" on="1"/>
        <pt x="457" y="475" on="1"/>
        <pt x="457" y="560" on="0"/>
        <pt x="381" y="649" on="0"/>
        <pt x="305" y="649" on="1"/>
        <pt x="255" y="649" on="0"/>
        <pt x="194" y="610" on="0"/>
        <pt x="161" y="535" on="0"/>
        <pt x="150" y="425" on="0"/>
        <pt x="150" y="354" on="1"/>
        <pt x="150" y="283" on="0"/>
        <pt x="161" y="176" on="0"/>
        <pt x="194" y="106" on="0"/>
        <pt x="256" y="71" on="0"/>
        <pt x="306" y="71" on="1"/>
        <pt x="351" y="71" on="0"/>
        <pt x="410" y="98" on="0"/>
        <pt x="445" y="146" on="0"/>
        <pt x="459" y="213" on="0"/>
        <pt x="460" y="253" on="1"/>
        <pt x="319" y="253" on="1"/>
      </contour>
      <contour>
        <pt x="299" y="791" on="1"/>
        <pt x="271" y="791" on="0"/>
        <pt x="235" y="827" on="0"/>
        <pt x="235" y="855" on="1"/>
        <pt x="235" y="883" on="0"/>
        <pt x="271" y="918" on="0"/>
        <pt x="299" y="918" on="1"/>
        <pt x="327" y="918" on="0"/>
        <pt x="363" y="883" on="0"/>
        <pt x="363" y="855" on="1"/>
        <pt x="363" y="827" on="0"/>
        <pt x="327" y="791" on="0"/>
      </contour>
    </TTGlyph>
    <TTGlyph name="H" xMin="33" yMin="0" xMax="706" yMax="720">
      <contour>
        <pt x="706" y="660" on="1"/>
        <pt x="613" y="640" on="1"/>
        <pt x="613" y="80" on="1"/>
        <pt x="706" y="60" on="1"/>
        <pt x="706" y="0" on="1"/>
        <pt x="421" y="0" on="1"/>
        <pt x="421" y="60" on="1"/>
        <pt x="514" y="80" on="1"/>
        <pt x="514" y="323" on="1"/>
        <pt x="225" y="323" on="1"/>
        <pt x="225" y="80" on="1"/>
        <pt x="318" y="60" on="1"/>
        <pt x="318" y="0" on="1"/>
        <pt x="33" y="0" on="1"/>
        <pt x="33" y="60" on="1"/>
        <pt x="126" y="80" on="1"/>
        <pt x="126" y="640" on="1"/>
        <pt x="33" y="660" on="1"/>
        <pt x="33" y="720" on="1"/>
        <pt x="318" y="720" on="1"/>
        <pt x="318" y="660" on="1"/>
        <pt x="225" y="640" on="1"/>
        <pt x="225" y="406" on="1"/>
        <pt x="514" y="406" on="1"/>
        <pt x="514" y="640" on="1"/>
        <pt x="421" y="660" on="1"/>
        <pt x="421" y="720" on="1"/>
        <pt x="706" y="720" on="1"/>
      </contour>
    </TTGlyph>
    <TTGlyph name="Hbar" xMin="34" yMin="0" xMax="707" yMax="720">
      <contour>
        <pt x="707" y="660" on="1"/>
        <pt x="614" y="640" on="1"/>
        <pt x="614" y="558" on="1"/>
        <pt x="707" y="558" on="1"/>
        <pt x="707" y="495" on="1"/>
        <pt x="614" y="495" on="1"/>
        <pt x="614" y="80" on="1"/>
        <pt x="707" y="60" on="1"/>
        <pt x="707" y="0" on="1"/>
        <pt x="422" y="0" on="1"/>
        <pt x="422" y="60" on="1"/>
        <pt x="515" y="80" on="1"/>
        <pt x="515" y="323" on="1"/>
        <pt x="226" y="323" on="1"/>
        <pt x="226" y="80" on="1"/>
        <pt x="319" y="60" on="1"/>
        <pt x="319" y="0" on="1"/>
        <pt x="34" y="0" on="1"/>
        <pt x="34" y="60" on="1"/>
        <pt x="127" y="80" on="1"/>
        <pt x="127" y="495" on="1"/>
        <pt x="34" y="495" on="1"/>
        <pt x="34" y="558" on="1"/>
        <pt x="127" y="558" on="1"/>
        <pt x="127" y="640" on="1"/>
        <pt x="34" y="660" on="1"/>
        <pt x="34" y="720" on="1"/>
        <pt x="319" y="720" on="1"/>
        <pt x="319" y="660" on="1"/>
        <pt x="226" y="640" on="1"/>
        <pt x="226" y="558" on="1"/>
        <pt x="515" y="558" on="1"/>
        <pt x="515" y="640" on="1"/>
        <pt x="422" y="660" on="1"/>
        <pt x="422" y="720" on="1"/>
        <pt x="707" y="720" on="1"/>
      </contour>
      <contour>
        <pt x="515" y="406" on="1"/>
        <pt x="515" y="495" on="1"/>
        <pt x="226" y="495" on="1"/>
        <pt x="226" y="406" on="1"/>
      </contour>
    </TTGlyph>
    <TTGlyph name="Hcircumflex" xMin="33" yMin="0" xMax="706" yMax="916">
      <contour>
        <pt x="706" y="660" on="1"/>
        <pt x="613" y="640" on="1"/>
        <pt x="613" y="80" on="1"/>
        <pt x="706" y="60" on="1"/>
        <pt x="706" y="0" on="1"/>
        <pt x="421" y="0" on="1"/>
        <pt x="421" y="60" on="1"/>
        <pt x="514" y="80" on="1"/>
        <pt x="514" y="323" on="1"/>
        <pt x="225" y="323" on="1"/>
        <pt x="225" y="80" on="1"/>
        <pt x="318" y="60" on="1"/>
        <pt x="318" y="0" on="1"/>
        <pt x="33" y="0" on="1"/>
        <pt x="33" y="60" on="1"/>
        <pt x="126" y="80" on="1"/>
        <pt x="126" y="640" on="1"/>
        <pt x="33" y="660" on="1"/>
        <pt x="33" y="720" on="1"/>
        <pt x="318" y="720" on="1"/>
        <pt x="318" y="660" on="1"/>
        <pt x="225" y="640" on="1"/>
        <pt x="225" y="406" on="1"/>
        <pt x="514" y="406" on="1"/>
        <pt x="514" y="640" on="1"/>
        <pt x="421" y="660" on="1"/>
        <pt x="421" y="720" on="1"/>
        <pt x="706" y="720" on="1"/>
      </contour>
      <contour>
        <pt x="537" y="791" on="1"/>
        <pt x="456" y="791" on="1"/>
        <pt x="370" y="863" on="1"/>
        <pt x="285" y="791" on="1"/>
        <pt x="204" y="791" on="1"/>
        <pt x="309" y="916" on="1"/>
        <pt x="432" y="916" on="1"/>
      </contour>
    </TTGlyph>
    <TTGlyph name="Hdotbelow" xMin="33" yMin="-215" xMax="706" yMax="720">
      <contour>
        <pt x="706" y="660" on="1"/>
        <pt x="613" y="640" on="1"/>
        <pt x="613" y="80" on="1"/>
        <pt x="706" y="60" on="1"/>
        <pt x="706" y="0" on="1"/>
        <pt x="421" y="0" on="1"/>
        <pt x="421" y="60" on="1"/>
        <pt x="514" y="80" on="1"/>
        <pt x="514" y="323" on="1"/>
        <pt x="225" y="323" on="1"/>
        <pt x="225" y="80" on="1"/>
        <pt x="318" y="60" on="1"/>
        <pt x="318" y="0" on="1"/>
        <pt x="33" y="0" on="1"/>
        <pt x="33" y="60" on="1"/>
        <pt x="126" y="80" on="1"/>
        <pt x="126" y="640" on="1"/>
        <pt x="33" y="660" on="1"/>
        <pt x="33" y="720" on="1"/>
        <pt x="318" y="720" on="1"/>
        <pt x="318" y="660" on="1"/>
        <pt x="225" y="640" on="1"/>
        <pt x="225" y="406" on="1"/>
        <pt x="514" y="406" on="1"/>
        <pt x="514" y="640" on="1"/>
        <pt x="421" y="660" on="1"/>
        <pt x="421" y="720" on="1"/>
        <pt x="706" y="720" on="1"/>
      </contour>
      <contour>
        <pt x="368" y="-215" on="1"/>
        <pt x="340" y="-215" on="0"/>
        <pt x="304" y="-179" on="0"/>
        <pt x="304" y="-151" on="1"/>
        <pt x="304" y="-123" on="0"/>
        <pt x="340" y="-88" on="0"/>
        <pt x="368" y="-88" on="1"/>
        <pt x="396" y="-88" on="0"/>
        <pt x="432" y="-123" on="0"/>
        <pt x="432" y="-151" on="1"/>
        <pt x="432" y="-179" on="0"/>
        <pt x="396" y="-215" on="0"/>
      </contour>
    </TTGlyph>
    <TTGlyph name="I" xMin="33" yMin="0" xMax="318" yMax="720">
      <contour>
        <pt x="318" y="660" on="1"/>
        <pt x="225" y="640" on="1"/>
        <pt x="225" y="80" on="1"/>
        <pt x="318" y="60" on="1"/>
        <pt x="318" y="0" on="1"/>
        <pt x="33" y="0" on="1"/>
        <pt x="33" y="60" on="1"/>
        <pt x="126" y="80" on="1"/>
        <pt x="126" y="640" on="1"/>
        <pt x="33" y="660" on="1"/>
        <pt x="33" y="720" on="1"/>
        <pt x="318" y="720" on="1"/>
      </contour>
    </TTGlyph>
    <TTGlyph name="IJ" xMin="33" yMin="-10" xMax="742" yMax="720">
      <contour>
        <pt x="318" y="660" on="1"/>
        <pt x="225" y="640" on="1"/>
        <pt x="225" y="80" on="1"/>
        <pt x="318" y="60" on="1"/>
        <pt x="318" y="0" on="1"/>
        <pt x="33" y="0" on="1"/>
        <pt x="33" y="60" on="1"/>
        <pt x="126" y="80" on="1"/>
        <pt x="126" y="640" on="1"/>
        <pt x="33" y="660" on="1"/>
        <pt x="33" y="720" on="1"/>
        <pt x="318" y="720" on="1"/>
      </contour>
      <contour>
        <pt x="553" y="-10" on="1"/>
        <pt x="502" y="-10" on="0"/>
        <pt x="431" y="12" on="0"/>
        <pt x="387" y="56" on="0"/>
        <pt x="368" y="122" on="0"/>
        <pt x="368" y="166" on="1"/>
        <pt x="368" y="175" on="0"/>
        <pt x="369" y="194" on="0"/>
        <pt x="370" y="204" on="1"/>
        <pt x="454" y="204" on="1"/>
        <pt x="454" y="129" on="0"/>
        <pt x="501" y="60" on="0"/>
        <pt x="549" y="60" on="1"/>
        <pt x="604" y="60" on="0"/>
        <pt x="643" y="136" on="0"/>
        <pt x="643" y="206" on="1"/>
        <pt x="643" y="640" on="1"/>
        <pt x="498" y="660" on="1"/>
        <pt x="498" y="720" on="1"/>
        <pt x="742" y="720" on="1"/>
        <pt x="742" y="210" on="1"/>
        <pt x="742" y="94" on="0"/>
        <pt x="652" y="-10" on="0"/>
      </contour>
    </TTGlyph>
    <TTGlyph name="Iacute" xMin="33" yMin="0" xMax="352" yMax="916">
      <contour>
        <pt x="318" y="660" on="1"/>
        <pt x="225" y="640" on="1"/>
        <pt x="225" y="80" on="1"/>
        <pt x="318" y="60" on="1"/>
        <pt x="318" y="0" on="1"/>
        <pt x="33" y="0" on="1"/>
        <pt x="33" y="60" on="1"/>
        <pt x="126" y="80" on="1"/>
        <pt x="126" y="640" on="1"/>
        <pt x="33" y="660" on="1"/>
        <pt x="33" y="720" on="1"/>
        <pt x="318" y="720" on="1"/>
      </contour>
      <contour>
        <pt x="229" y="916" on="1"/>
        <pt x="352" y="916" on="1"/>
        <pt x="215" y="791" on="1"/>
        <pt x="134" y="791" on="1"/>
      </contour>
    </TTGlyph>
    <TTGlyph name="Ibreve" xMin="17" yMin="0" xMax="333" yMax="921">
      <contour>
        <pt x="318" y="660" on="1"/>
        <pt x="225" y="640" on="1"/>
        <pt x="225" y="80" on="1"/>
        <pt x="318" y="60" on="1"/>
        <pt x="318" y="0" on="1"/>
        <pt x="33" y="0" on="1"/>
        <pt x="33" y="60" on="1"/>
        <pt x="126" y="80" on="1"/>
        <pt x="126" y="640" on="1"/>
        <pt x="33" y="660" on="1"/>
        <pt x="33" y="720" on="1"/>
        <pt x="318" y="720" on="1"/>
      </contour>
      <contour>
        <pt x="333" y="921" on="1"/>
        <pt x="333" y="894" on="0"/>
        <pt x="319" y="847" on="0"/>
        <pt x="283" y="811" on="0"/>
        <pt x="221" y="791" on="0"/>
        <pt x="174" y="791" on="1"/>
        <pt x="127" y="791" on="0"/>
        <pt x="67" y="811" on="0"/>
        <pt x="31" y="847" on="0"/>
        <pt x="17" y="894" on="0"/>
        <pt x="17" y="921" on="1"/>
        <pt x="100" y="921" on="1"/>
        <pt x="100" y="894" on="0"/>
        <pt x="137" y="852" on="0"/>
        <pt x="176" y="852" on="1"/>
        <pt x="215" y="852" on="0"/>
        <pt x="251" y="894" on="0"/>
        <pt x="251" y="921" on="1"/>
      </contour>
    </TTGlyph>
    <TTGlyph name="Icircumflex" xMin="10" yMin="0" xMax="343" yMax="916">
      <contour>
        <pt x="318" y="660" on="1"/>
        <pt x="225" y="640" on="1"/>
        <pt x="225" y="80" on="1"/>
        <pt x="318" y="60" on="1"/>
        <pt x="318" y="0" on="1"/>
        <pt x="33" y="0" on="1"/>
        <pt x="33" y="60" on="1"/>
        <pt x="126" y="80" on="1"/>
        <pt x="126" y="640" on="1"/>
        <pt x="33" y="660" on="1"/>
        <pt x="33" y="720" on="1"/>
        <pt x="318" y="720" on="1"/>
      </contour>
      <contour>
        <pt x="343" y="791" on="1"/>
        <pt x="262" y="791" on="1"/>
        <pt x="176" y="863" on="1"/>
        <pt x="91" y="791" on="1"/>
        <pt x="10" y="791" on="1"/>
        <pt x="115" y="916" on="1"/>
        <pt x="238" y="916" on="1"/>
      </contour>
    </TTGlyph>
    <TTGlyph name="Idieresis" xMin="13" yMin="0" xMax="338" yMax="909">
      <contour>
        <pt x="318" y="660" on="1"/>
        <pt x="225" y="640" on="1"/>
        <pt x="225" y="80" on="1"/>
        <pt x="318" y="60" on="1"/>
        <pt x="318" y="0" on="1"/>
        <pt x="33" y="0" on="1"/>
        <pt x="33" y="60" on="1"/>
        <pt x="126" y="80" on="1"/>
        <pt x="126" y="640" on="1"/>
        <pt x="33" y="660" on="1"/>
        <pt x="33" y="720" on="1"/>
        <pt x="318" y="720" on="1"/>
      </contour>
      <contour>
        <pt x="72" y="791" on="1"/>
        <pt x="46" y="791" on="0"/>
        <pt x="13" y="824" on="0"/>
        <pt x="13" y="850" on="1"/>
        <pt x="13" y="876" on="0"/>
        <pt x="46" y="909" on="0"/>
        <pt x="72" y="909" on="1"/>
        <pt x="98" y="909" on="0"/>
        <pt x="132" y="876" on="0"/>
        <pt x="132" y="850" on="1"/>
        <pt x="132" y="824" on="0"/>
        <pt x="98" y="791" on="0"/>
      </contour>
      <contour>
        <pt x="278" y="791" on="1"/>
        <pt x="252" y="791" on="0"/>
        <pt x="219" y="824" on="0"/>
        <pt x="219" y="850" on="1"/>
        <pt x="219" y="876" on="0"/>
        <pt x="252" y="909" on="0"/>
        <pt x="278" y="909" on="1"/>
        <pt x="304" y="909" on="0"/>
        <pt x="338" y="876" on="0"/>
        <pt x="338" y="850" on="1"/>
        <pt x="338" y="824" on="0"/>
        <pt x="304" y="791" on="0"/>
      </contour>
    </TTGlyph>
    <TTGlyph name="Idotaccent" xMin="33" yMin="0" xMax="318" yMax="918">
      <contour>
        <pt x="318" y="660" on="1"/>
        <pt x="225" y="640" on="1"/>
        <pt x="225" y="80" on="1"/>
        <pt x="318" y="60" on="1"/>
        <pt x="318" y="0" on="1"/>
        <pt x="33" y="0" on="1"/>
        <pt x="33" y="60" on="1"/>
        <pt x="126" y="80" on="1"/>
        <pt x="126" y="640" on="1"/>
        <pt x="33" y="660" on="1"/>
        <pt x="33" y="720" on="1"/>
        <pt x="318" y="720" on="1"/>
      </contour>
      <contour>
        <pt x="176" y="791" on="1"/>
        <pt x="148" y="791" on="0"/>
        <pt x="112" y="827" on="0"/>
        <pt x="112" y="855" on="1"/>
        <pt x="112" y="883" on="0"/>
        <pt x="148" y="918" on="0"/>
        <pt x="176" y="918" on="1"/>
        <pt x="204" y="918" on="0"/>
        <pt x="240" y="883" on="0"/>
        <pt x="240" y="855" on="1"/>
        <pt x="240" y="827" on="0"/>
        <pt x="204" y="791" on="0"/>
      </contour>
    </TTGlyph>
    <TTGlyph name="Idotbelow" xMin="33" yMin="-215" xMax="318" yMax="720">
      <contour>
        <pt x="318" y="660" on="1"/>
        <pt x="225" y="640" on="1"/>
        <pt x="225" y="80" on="1"/>
        <pt x="318" y="60" on="1"/>
        <pt x="318" y="0" on="1"/>
        <pt x="33" y="0" on="1"/>
        <pt x="33" y="60" on="1"/>
        <pt x="126" y="80" on="1"/>
        <pt x="126" y="640" on="1"/>
        <pt x="33" y="660" on="1"/>
        <pt x="33" y="720" on="1"/>
        <pt x="318" y="720" on="1"/>
      </contour>
      <contour>
        <pt x="175" y="-215" on="1"/>
        <pt x="147" y="-215" on="0"/>
        <pt x="111" y="-179" on="0"/>
        <pt x="111" y="-151" on="1"/>
        <pt x="111" y="-123" on="0"/>
        <pt x="147" y="-88" on="0"/>
        <pt x="175" y="-88" on="1"/>
        <pt x="203" y="-88" on="0"/>
        <pt x="239" y="-123" on="0"/>
        <pt x="239" y="-151" on="1"/>
        <pt x="239" y="-179" on="0"/>
        <pt x="203" y="-215" on="0"/>
      </contour>
    </TTGlyph>
    <TTGlyph name="Igrave" xMin="18" yMin="0" xMax="318" yMax="916">
      <contour>
        <pt x="318" y="660" on="1"/>
        <pt x="225" y="640" on="1"/>
        <pt x="225" y="80" on="1"/>
        <pt x="318" y="60" on="1"/>
        <pt x="318" y="0" on="1"/>
        <pt x="33" y="0" on="1"/>
        <pt x="33" y="60" on="1"/>
        <pt x="126" y="80" on="1"/>
        <pt x="126" y="640" on="1"/>
        <pt x="33" y="660" on="1"/>
        <pt x="33" y="720" on="1"/>
        <pt x="318" y="720" on="1"/>
      </contour>
      <contour>
        <pt x="216" y="791" on="1"/>
        <pt x="135" y="791" on="1"/>
        <pt x="18" y="916" on="1"/>
        <pt x="141" y="916" on="1"/>
      </contour>
    </TTGlyph>
    <TTGlyph name="Imacron" xMin="33" yMin="0" xMax="318" yMax="884">
      <contour>
        <pt x="318" y="660" on="1"/>
        <pt x="225" y="640" on="1"/>
        <pt x="225" y="80" on="1"/>
        <pt x="318" y="60" on="1"/>
        <pt x="318" y="0" on="1"/>
        <pt x="33" y="0" on="1"/>
        <pt x="33" y="60" on="1"/>
        <pt x="126" y="80" on="1"/>
        <pt x="126" y="640" on="1"/>
        <pt x="33" y="660" on="1"/>
        <pt x="33" y="720" on="1"/>
        <pt x="318" y="720" on="1"/>
      </contour>
      <contour>
        <pt x="38" y="884" on="1"/>
        <pt x="312" y="884" on="1"/>
        <pt x="312" y="821" on="1"/>
        <pt x="38" y="821" on="1"/>
      </contour>
    </TTGlyph>
    <TTGlyph name="Iogonek" xMin="33" yMin="-210" xMax="318" yMax="720">
      <contour>
        <pt x="318" y="660" on="1"/>
        <pt x="225" y="640" on="1"/>
        <pt x="225" y="80" on="1"/>
        <pt x="318" y="60" on="1"/>
        <pt x="318" y="0" on="1"/>
        <pt x="214" y="0" on="1"/>
        <pt x="187" y="-30" on="0"/>
        <pt x="166" y="-86" on="0"/>
        <pt x="166" y="-102" on="1"/>
        <pt x="166" y="-118" on="0"/>
        <pt x="186" y="-141" on="0"/>
        <pt x="209" y="-141" on="1"/>
        <pt x="227" y="-141" on="0"/>
        <pt x="240" y="-136" on="1"/>
        <pt x="247" y="-133" on="0"/>
        <pt x="254" y="-130" on="1"/>
        <pt x="254" y="-199" on="1"/>
        <pt x="244" y="-202" on="0"/>
        <pt x="233" y="-205" on="1"/>
        <pt x="213" y="-210" on="0"/>
        <pt x="188" y="-210" on="1"/>
        <pt x="169" y="-210" on="0"/>
        <pt x="133" y="-200" on="0"/>
        <pt x="106" y="-177" on="0"/>
        <pt x="90" y="-142" on="0"/>
        <pt x="90" y="-118" on="1"/>
        <pt x="90" y="-82" on="0"/>
        <pt x="124" y="-31" on="0"/>
        <pt x="154" y="0" on="1"/>
        <pt x="33" y="0" on="1"/>
        <pt x="33" y="60" on="1"/>
        <pt x="126" y="80" on="1"/>
        <pt x="126" y="640" on="1"/>
        <pt x="33" y="660" on="1"/>
        <pt x="33" y="720" on="1"/>
        <pt x="318" y="720" on="1"/>
      </contour>
    </TTGlyph>
    <TTGlyph name="Itilde" xMin="-11" yMin="0" xMax="361" yMax="927">
      <contour>
        <pt x="318" y="660" on="1"/>
        <pt x="225" y="640" on="1"/>
        <pt x="225" y="80" on="1"/>
        <pt x="318" y="60" on="1"/>
        <pt x="318" y="0" on="1"/>
        <pt x="33" y="0" on="1"/>
        <pt x="33" y="60" on="1"/>
        <pt x="126" y="80" on="1"/>
        <pt x="126" y="640" on="1"/>
        <pt x="33" y="660" on="1"/>
        <pt x="33" y="720" on="1"/>
        <pt x="318" y="720" on="1"/>
      </contour>
      <contour>
        <pt x="361" y="924" on="1"/>
        <pt x="361" y="897" on="0"/>
        <pt x="347" y="848" on="0"/>
        <pt x="318" y="812" on="0"/>
        <pt x="277" y="791" on="0"/>
        <pt x="250" y="791" on="1"/>
        <pt x="221" y="791" on="0"/>
        <pt x="180" y="812" on="0"/>
        <pt x="146" y="836" on="0"/>
        <pt x="117" y="857" on="0"/>
        <pt x="101" y="857" on="1"/>
        <pt x="93" y="857" on="0"/>
        <pt x="76" y="851" on="0"/>
        <pt x="60" y="838" on="0"/>
        <pt x="50" y="816" on="0"/>
        <pt x="50" y="801" on="1"/>
        <pt x="-11" y="801" on="1"/>
        <pt x="-11" y="824" on="0"/>
        <pt x="1" y="869" on="0"/>
        <pt x="27" y="905" on="0"/>
        <pt x="68" y="927" on="0"/>
        <pt x="97" y="927" on="1"/>
        <pt x="127" y="927" on="0"/>
        <pt x="166" y="906" on="0"/>
        <pt x="197" y="882" on="0"/>
        <pt x="225" y="861" on="0"/>
        <pt x="244" y="861" on="1"/>
        <pt x="267" y="861" on="0"/>
        <pt x="301" y="895" on="0"/>
        <pt x="301" y="924" on="1"/>
      </contour>
    </TTGlyph>
    <TTGlyph name="J" xMin="17" yMin="-10" xMax="391" yMax="720">
      <contour>
        <pt x="202" y="-10" on="1"/>
        <pt x="151" y="-10" on="0"/>
        <pt x="80" y="12" on="0"/>
        <pt x="36" y="56" on="0"/>
        <pt x="17" y="122" on="0"/>
        <pt x="17" y="166" on="1"/>
        <pt x="17" y="175" on="0"/>
        <pt x="18" y="194" on="0"/>
        <pt x="19" y="204" on="1"/>
        <pt x="103" y="204" on="1"/>
        <pt x="103" y="129" on="0"/>
        <pt x="150" y="60" on="0"/>
        <pt x="198" y="60" on="1"/>
        <pt x="253" y="60" on="0"/>
        <pt x="292" y="136" on="0"/>
        <pt x="292" y="206" on="1"/>
        <pt x="292" y="640" on="1"/>
        <pt x="147" y="660" on="1"/>
        <pt x="147" y="720" on="1"/>
        <pt x="391" y="720" on="1"/>
        <pt x="391" y="210" on="1"/>
        <pt x="391" y="94" on="0"/>
        <pt x="301" y="-10" on="0"/>
      </contour>
    </TTGlyph>
    <TTGlyph name="Jcircumflex" xMin="17" yMin="-10" xMax="445" yMax="916">
      <contour>
        <pt x="202" y="-10" on="1"/>
        <pt x="151" y="-10" on="0"/>
        <pt x="80" y="12" on="0"/>
        <pt x="36" y="56" on="0"/>
        <pt x="17" y="122" on="0"/>
        <pt x="17" y="166" on="1"/>
        <pt x="17" y="175" on="0"/>
        <pt x="18" y="194" on="0"/>
        <pt x="19" y="204" on="1"/>
        <pt x="103" y="204" on="1"/>
        <pt x="103" y="129" on="0"/>
        <pt x="150" y="60" on="0"/>
        <pt x="198" y="60" on="1"/>
        <pt x="253" y="60" on="0"/>
        <pt x="292" y="136" on="0"/>
        <pt x="292" y="206" on="1"/>
        <pt x="292" y="640" on="1"/>
        <pt x="147" y="660" on="1"/>
        <pt x="147" y="720" on="1"/>
        <pt x="391" y="720" on="1"/>
        <pt x="391" y="210" on="1"/>
        <pt x="391" y="94" on="0"/>
        <pt x="301" y="-10" on="0"/>
      </contour>
      <contour>
        <pt x="445" y="791" on="1"/>
        <pt x="364" y="791" on="1"/>
        <pt x="278" y="863" on="1"/>
        <pt x="193" y="791" on="1"/>
        <pt x="112" y="791" on="1"/>
        <pt x="217" y="916" on="1"/>
        <pt x="340" y="916" on="1"/>
      </contour>
    </TTGlyph>
    <TTGlyph name="K" xMin="33" yMin="0" xMax="664" yMax="720">
      <contour>
        <pt x="378" y="60" on="1"/>
        <pt x="456" y="70" on="1"/>
        <pt x="266" y="329" on="1"/>
        <pt x="225" y="285" on="1"/>
        <pt x="225" y="80" on="1"/>
        <pt x="318" y="60" on="1"/>
        <pt x="318" y="0" on="1"/>
        <pt x="33" y="0" on="1"/>
        <pt x="33" y="60" on="1"/>
        <pt x="126" y="80" on="1"/>
        <pt x="126" y="640" on="1"/>
        <pt x="33" y="660" on="1"/>
        <pt x="33" y="720" on="1"/>
        <pt x="309" y="720" on="1"/>
        <pt x="309" y="660" on="1"/>
        <pt x="225" y="644" on="1"/>
        <pt x="225" y="413" on="1"/>
        <pt x="436" y="647" on="1"/>
        <pt x="367" y="660" on="1"/>
        <pt x="367" y="720" on="1"/>
        <pt x="654" y="720" on="1"/>
        <pt x="654" y="660" on="1"/>
        <pt x="565" y="640" on="1"/>
        <pt x="338" y="403" on="1"/>
        <pt x="572" y="80" on="1"/>
        <pt x="664" y="60" on="1"/>
        <pt x="664" y="0" on="1"/>
        <pt x="378" y="0" on="1"/>
      </contour>
    </TTGlyph>
    <TTGlyph name="Kcommaaccent" xMin="33" yMin="-215" xMax="664" yMax="720">
      <contour>
        <pt x="378" y="60" on="1"/>
        <pt x="456" y="70" on="1"/>
        <pt x="266" y="329" on="1"/>
        <pt x="225" y="285" on="1"/>
        <pt x="225" y="80" on="1"/>
        <pt x="318" y="60" on="1"/>
        <pt x="318" y="0" on="1"/>
        <pt x="33" y="0" on="1"/>
        <pt x="33" y="60" on="1"/>
        <pt x="126" y="80" on="1"/>
        <pt x="126" y="640" on="1"/>
        <pt x="33" y="660" on="1"/>
        <pt x="33" y="720" on="1"/>
        <pt x="309" y="720" on="1"/>
        <pt x="309" y="660" on="1"/>
        <pt x="225" y="644" on="1"/>
        <pt x="225" y="413" on="1"/>
        <pt x="436" y="647" on="1"/>
        <pt x="367" y="660" on="1"/>
        <pt x="367" y="720" on="1"/>
        <pt x="654" y="720" on="1"/>
        <pt x="654" y="660" on="1"/>
        <pt x="565" y="640" on="1"/>
        <pt x="338" y="403" on="1"/>
        <pt x="572" y="80" on="1"/>
        <pt x="664" y="60" on="1"/>
        <pt x="664" y="0" on="1"/>
        <pt x="378" y="0" on="1"/>
      </contour>
      <contour>
        <pt x="299" y="-43" on="1"/>
        <pt x="398" y="-43" on="1"/>
        <pt x="398" y="-134" on="1"/>
        <pt x="376" y="-215" on="1"/>
        <pt x="319" y="-215" on="1"/>
        <pt x="331" y="-134" on="1"/>
        <pt x="299" y="-134" on="1"/>
      </contour>
    </TTGlyph>
    <TTGlyph name="L" xMin="33" yMin="0" xMax="493" yMax="720">
      <contour>
        <pt x="414" y="235" on="1"/>
        <pt x="493" y="235" on="1"/>
        <pt x="493" y="0" on="1"/>
        <pt x="33" y="0" on="1"/>
        <pt x="33" y="60" on="1"/>
        <pt x="126" y="80" on="1"/>
        <pt x="126" y="640" on="1"/>
        <pt x="33" y="660" on="1"/>
        <pt x="33" y="720" on="1"/>
        <pt x="318" y="720" on="1"/>
        <pt x="318" y="660" on="1"/>
        <pt x="225" y="640" on="1"/>
        <pt x="225" y="75" on="1"/>
        <pt x="400" y="75" on="1"/>
      </contour>
    </TTGlyph>
    <TTGlyph name="Lacute" xMin="33" yMin="0" xMax="493" yMax="916">
      <contour>
        <pt x="414" y="235" on="1"/>
        <pt x="493" y="235" on="1"/>
        <pt x="493" y="0" on="1"/>
        <pt x="33" y="0" on="1"/>
        <pt x="33" y="60" on="1"/>
        <pt x="126" y="80" on="1"/>
        <pt x="126" y="640" on="1"/>
        <pt x="33" y="660" on="1"/>
        <pt x="33" y="720" on="1"/>
        <pt x="318" y="720" on="1"/>
        <pt x="318" y="660" on="1"/>
        <pt x="225" y="640" on="1"/>
        <pt x="225" y="75" on="1"/>
        <pt x="400" y="75" on="1"/>
      </contour>
      <contour>
        <pt x="228" y="916" on="1"/>
        <pt x="351" y="916" on="1"/>
        <pt x="214" y="791" on="1"/>
        <pt x="133" y="791" on="1"/>
      </contour>
    </TTGlyph>
    <TTGlyph name="Lcaron" xMin="33" yMin="0" xMax="493" yMax="726">
      <contour>
        <pt x="414" y="235" on="1"/>
        <pt x="493" y="235" on="1"/>
        <pt x="493" y="0" on="1"/>
        <pt x="33" y="0" on="1"/>
        <pt x="33" y="60" on="1"/>
        <pt x="126" y="80" on="1"/>
        <pt x="126" y="640" on="1"/>
        <pt x="33" y="660" on="1"/>
        <pt x="33" y="720" on="1"/>
        <pt x="318" y="720" on="1"/>
        <pt x="318" y="660" on="1"/>
        <pt x="225" y="640" on="1"/>
        <pt x="225" y="75" on="1"/>
        <pt x="400" y="75" on="1"/>
      </contour>
      <contour>
        <pt x="399" y="560" on="1"/>
        <pt x="420" y="590" on="0"/>
        <pt x="426" y="620" on="1"/>
        <pt x="404" y="620" on="0"/>
        <pt x="375" y="650" on="0"/>
        <pt x="375" y="673" on="1"/>
        <pt x="375" y="696" on="0"/>
        <pt x="405" y="726" on="0"/>
        <pt x="428" y="726" on="1"/>
        <pt x="448" y="726" on="0"/>
        <pt x="482" y="699" on="0"/>
        <pt x="482" y="670" on="1"/>
        <pt x="482" y="659" on="0"/>
        <pt x="475" y="631" on="0"/>
        <pt x="464" y="601" on="0"/>
        <pt x="450" y="571" on="0"/>
        <pt x="442" y="560" on="1"/>
      </contour>
    </TTGlyph>
    <TTGlyph name="Lcommaaccent" xMin="33" yMin="-215" xMax="493" yMax="720">
      <contour>
        <pt x="414" y="235" on="1"/>
        <pt x="493" y="235" on="1"/>
        <pt x="493" y="0" on="1"/>
        <pt x="33" y="0" on="1"/>
        <pt x="33" y="60" on="1"/>
        <pt x="126" y="80" on="1"/>
        <pt x="126" y="640" on="1"/>
        <pt x="33" y="660" on="1"/>
        <pt x="33" y="720" on="1"/>
        <pt x="318" y="720" on="1"/>
        <pt x="318" y="660" on="1"/>
        <pt x="225" y="640" on="1"/>
        <pt x="225" y="75" on="1"/>
        <pt x="400" y="75" on="1"/>
      </contour>
      <contour>
        <pt x="219" y="-43" on="1"/>
        <pt x="318" y="-43" on="1"/>
        <pt x="318" y="-134" on="1"/>
        <pt x="296" y="-215" on="1"/>
        <pt x="239" y="-215" on="1"/>
        <pt x="251" y="-134" on="1"/>
        <pt x="219" y="-134" on="1"/>
      </contour>
    </TTGlyph>
    <TTGlyph name="Ldot" xMin="33" yMin="0" xMax="493" yMax="720">
      <contour>
        <pt x="414" y="235" on="1"/>
        <pt x="493" y="235" on="1"/>
        <pt x="493" y="0" on="1"/>
        <pt x="33" y="0" on="1"/>
        <pt x="33" y="60" on="1"/>
        <pt x="126" y="80" on="1"/>
        <pt x="126" y="640" on="1"/>
        <pt x="33" y="660" on="1"/>
        <pt x="33" y="720" on="1"/>
        <pt x="318" y="720" on="1"/>
        <pt x="318" y="660" on="1"/>
        <pt x="225" y="640" on="1"/>
        <pt x="225" y="75" on="1"/>
        <pt x="400" y="75" on="1"/>
      </contour>
      <contour>
        <pt x="301" y="433" on="1"/>
        <pt x="410" y="433" on="1"/>
        <pt x="410" y="331" on="1"/>
        <pt x="301" y="331" on="1"/>
      </contour>
    </TTGlyph>
    <TTGlyph name="Lslash" xMin="36" yMin="0" xMax="496" yMax="720">
      <contour>
        <pt x="417" y="235" on="1"/>
        <pt x="496" y="235" on="1"/>
        <pt x="496" y="0" on="1"/>
        <pt x="36" y="0" on="1"/>
        <pt x="36" y="60" on="1"/>
        <pt x="129" y="80" on="1"/>
        <pt x="129" y="321" on="1"/>
        <pt x="37" y="294" on="1"/>
        <pt x="37" y="367" on="1"/>
        <pt x="129" y="394" on="1"/>
        <pt x="129" y="640" on="1"/>
        <pt x="36" y="660" on="1"/>
        <pt x="36" y="720" on="1"/>
        <pt x="321" y="720" on="1"/>
        <pt x="321" y="660" on="1"/>
        <pt x="228" y="640" on="1"/>
        <pt x="228" y="424" on="1"/>
        <pt x="342" y="458" on="1"/>
        <pt x="342" y="385" on="1"/>
        <pt x="228" y="351" on="1"/>
        <pt x="228" y="75" on="1"/>
        <pt x="403" y="75" on="1"/>
      </contour>
    </TTGlyph>
    <TTGlyph name="M" xMin="33" yMin="0" xMax="886" yMax="720">
      <contour>
        <pt x="225" y="645" on="1"/>
        <pt x="225" y="80" on="1"/>
        <pt x="298" y="60" on="1"/>
        <pt x="298" y="0" on="1"/>
        <pt x="33" y="0" on="1"/>
        <pt x="33" y="60" on="1"/>
        <pt x="126" y="80" on="1"/>
        <pt x="126" y="640" on="1"/>
        <pt x="33" y="660" on="1"/>
        <pt x="33" y="720" on="1"/>
        <pt x="298" y="720" on="1"/>
        <pt x="459" y="88" on="1"/>
        <pt x="621" y="720" on="1"/>
        <pt x="886" y="720" on="1"/>
        <pt x="886" y="660" on="1"/>
        <pt x="793" y="640" on="1"/>
        <pt x="793" y="80" on="1"/>
        <pt x="886" y="60" on="1"/>
        <pt x="886" y="0" on="1"/>
        <pt x="621" y="0" on="1"/>
        <pt x="621" y="60" on="1"/>
        <pt x="694" y="80" on="1"/>
        <pt x="694" y="645" on="1"/>
        <pt x="531" y="0" on="1"/>
        <pt x="387" y="0" on="1"/>
      </contour>
    </TTGlyph>
    <TTGlyph name="N" xMin="33" yMin="0" xMax="739" yMax="720">
      <contour>
        <pt x="547" y="80" on="1"/>
        <pt x="547" y="640" on="1"/>
        <pt x="474" y="660" on="1"/>
        <pt x="474" y="720" on="1"/>
        <pt x="739" y="720" on="1"/>
        <pt x="739" y="660" on="1"/>
        <pt x="646" y="640" on="1"/>
        <pt x="646" y="0" on="1"/>
        <pt x="474" y="0" on="1"/>
        <pt x="225" y="640" on="1"/>
        <pt x="225" y="80" on="1"/>
        <pt x="298" y="60" on="1"/>
        <pt x="298" y="0" on="1"/>
        <pt x="33" y="0" on="1"/>
        <pt x="33" y="60" on="1"/>
        <pt x="126" y="80" on="1"/>
        <pt x="126" y="640" on="1"/>
        <pt x="33" y="660" on="1"/>
        <pt x="33" y="720" on="1"/>
        <pt x="298" y="720" on="1"/>
      </contour>
    </TTGlyph>
    <TTGlyph name="Nacute" xMin="33" yMin="0" xMax="739" yMax="916">
      <contour>
        <pt x="547" y="80" on="1"/>
        <pt x="547" y="640" on="1"/>
        <pt x="474" y="660" on="1"/>
        <pt x="474" y="720" on="1"/>
        <pt x="739" y="720" on="1"/>
        <pt x="739" y="660" on="1"/>
        <pt x="646" y="640" on="1"/>
        <pt x="646" y="0" on="1"/>
        <pt x="474" y="0" on="1"/>
        <pt x="225" y="640" on="1"/>
        <pt x="225" y="80" on="1"/>
        <pt x="298" y="60" on="1"/>
        <pt x="298" y="0" on="1"/>
        <pt x="33" y="0" on="1"/>
        <pt x="33" y="60" on="1"/>
        <pt x="126" y="80" on="1"/>
        <pt x="126" y="640" on="1"/>
        <pt x="33" y="660" on="1"/>
        <pt x="33" y="720" on="1"/>
        <pt x="298" y="720" on="1"/>
      </contour>
      <contour>
        <pt x="438" y="916" on="1"/>
        <pt x="561" y="916" on="1"/>
        <pt x="424" y="791" on="1"/>
        <pt x="343" y="791" on="1"/>
      </contour>
    </TTGlyph>
    <TTGlyph name="Ncaron" xMin="33" yMin="0" xMax="739" yMax="916">
      <contour>
        <pt x="547" y="80" on="1"/>
        <pt x="547" y="640" on="1"/>
        <pt x="474" y="660" on="1"/>
        <pt x="474" y="720" on="1"/>
        <pt x="739" y="720" on="1"/>
        <pt x="739" y="660" on="1"/>
        <pt x="646" y="640" on="1"/>
        <pt x="646" y="0" on="1"/>
        <pt x="474" y="0" on="1"/>
        <pt x="225" y="640" on="1"/>
        <pt x="225" y="80" on="1"/>
        <pt x="298" y="60" on="1"/>
        <pt x="298" y="0" on="1"/>
        <pt x="33" y="0" on="1"/>
        <pt x="33" y="60" on="1"/>
        <pt x="126" y="80" on="1"/>
        <pt x="126" y="640" on="1"/>
        <pt x="33" y="660" on="1"/>
        <pt x="33" y="720" on="1"/>
        <pt x="298" y="720" on="1"/>
      </contour>
      <contour>
        <pt x="447" y="791" on="1"/>
        <pt x="324" y="791" on="1"/>
        <pt x="219" y="916" on="1"/>
        <pt x="300" y="916" on="1"/>
        <pt x="385" y="843" on="1"/>
        <pt x="471" y="916" on="1"/>
        <pt x="552" y="916" on="1"/>
      </contour>
    </TTGlyph>
    <TTGlyph name="Ncommaaccent" xMin="33" yMin="-215" xMax="739" yMax="720">
      <contour>
        <pt x="547" y="80" on="1"/>
        <pt x="547" y="640" on="1"/>
        <pt x="474" y="660" on="1"/>
        <pt x="474" y="720" on="1"/>
        <pt x="739" y="720" on="1"/>
        <pt x="739" y="660" on="1"/>
        <pt x="646" y="640" on="1"/>
        <pt x="646" y="0" on="1"/>
        <pt x="474" y="0" on="1"/>
        <pt x="225" y="640" on="1"/>
        <pt x="225" y="80" on="1"/>
        <pt x="298" y="60" on="1"/>
        <pt x="298" y="0" on="1"/>
        <pt x="33" y="0" on="1"/>
        <pt x="33" y="60" on="1"/>
        <pt x="126" y="80" on="1"/>
        <pt x="126" y="640" on="1"/>
        <pt x="33" y="660" on="1"/>
        <pt x="33" y="720" on="1"/>
        <pt x="298" y="720" on="1"/>
      </contour>
      <contour>
        <pt x="336" y="-43" on="1"/>
        <pt x="435" y="-43" on="1"/>
        <pt x="435" y="-134" on="1"/>
        <pt x="413" y="-215" on="1"/>
        <pt x="356" y="-215" on="1"/>
        <pt x="368" y="-134" on="1"/>
        <pt x="336" y="-134" on="1"/>
      </contour>
    </TTGlyph>
    <TTGlyph name="Ndotaccent" xMin="33" yMin="0" xMax="739" yMax="918">
      <contour>
        <pt x="547" y="80" on="1"/>
        <pt x="547" y="640" on="1"/>
        <pt x="474" y="660" on="1"/>
        <pt x="474" y="720" on="1"/>
        <pt x="739" y="720" on="1"/>
        <pt x="739" y="660" on="1"/>
        <pt x="646" y="640" on="1"/>
        <pt x="646" y="0" on="1"/>
        <pt x="474" y="0" on="1"/>
        <pt x="225" y="640" on="1"/>
        <pt x="225" y="80" on="1"/>
        <pt x="298" y="60" on="1"/>
        <pt x="298" y="0" on="1"/>
        <pt x="33" y="0" on="1"/>
        <pt x="33" y="60" on="1"/>
        <pt x="126" y="80" on="1"/>
        <pt x="126" y="640" on="1"/>
        <pt x="33" y="660" on="1"/>
        <pt x="33" y="720" on="1"/>
        <pt x="298" y="720" on="1"/>
      </contour>
      <contour>
        <pt x="385" y="791" on="1"/>
        <pt x="357" y="791" on="0"/>
        <pt x="321" y="827" on="0"/>
        <pt x="321" y="855" on="1"/>
        <pt x="321" y="883" on="0"/>
        <pt x="357" y="918" on="0"/>
        <pt x="385" y="918" on="1"/>
        <pt x="413" y="918" on="0"/>
        <pt x="449" y="883" on="0"/>
        <pt x="449" y="855" on="1"/>
        <pt x="449" y="827" on="0"/>
        <pt x="413" y="791" on="0"/>
      </contour>
    </TTGlyph>
    <TTGlyph name="Ntilde" xMin="33" yMin="0" xMax="739" yMax="927">
      <contour>
        <pt x="547" y="80" on="1"/>
        <pt x="547" y="640" on="1"/>
        <pt x="474" y="660" on="1"/>
        <pt x="474" y="720" on="1"/>
        <pt x="739" y="720" on="1"/>
        <pt x="739" y="660" on="1"/>
        <pt x="646" y="640" on="1"/>
        <pt x="646" y="0" on="1"/>
        <pt x="474" y="0" on="1"/>
        <pt x="225" y="640" on="1"/>
        <pt x="225" y="80" on="1"/>
        <pt x="298" y="60" on="1"/>
        <pt x="298" y="0" on="1"/>
        <pt x="33" y="0" on="1"/>
        <pt x="33" y="60" on="1"/>
        <pt x="126" y="80" on="1"/>
        <pt x="126" y="640" on="1"/>
        <pt x="33" y="660" on="1"/>
        <pt x="33" y="720" on="1"/>
        <pt x="298" y="720" on="1"/>
      </contour>
      <contour>
        <pt x="570" y="924" on="1"/>
        <pt x="570" y="897" on="0"/>
        <pt x="556" y="848" on="0"/>
        <pt x="527" y="812" on="0"/>
        <pt x="486" y="791" on="0"/>
        <pt x="459" y="791" on="1"/>
        <pt x="430" y="791" on="0"/>
        <pt x="389" y="812" on="0"/>
        <pt x="355" y="836" on="0"/>
        <pt x="326" y="857" on="0"/>
        <pt x="310" y="857" on="1"/>
        <pt x="302" y="857" on="0"/>
        <pt x="285" y="851" on="0"/>
        <pt x="269" y="838" on="0"/>
        <pt x="259" y="816" on="0"/>
        <pt x="259" y="801" on="1"/>
        <pt x="198" y="801" on="1"/>
        <pt x="198" y="824" on="0"/>
        <pt x="210" y="869" on="0"/>
        <pt x="236" y="905" on="0"/>
        <pt x="277" y="927" on="0"/>
        <pt x="306" y="927" on="1"/>
        <pt x="336" y="927" on="0"/>
        <pt x="375" y="906" on="0"/>
        <pt x="406" y="882" on="0"/>
        <pt x="434" y="861" on="0"/>
        <pt x="453" y="861" on="1"/>
        <pt x="476" y="861" on="0"/>
        <pt x="510" y="895" on="0"/>
        <pt x="510" y="924" on="1"/>
      </contour>
    </TTGlyph>
    <TTGlyph name="O" xMin="45" yMin="-11" xMax="591" yMax="731">
      <contour>
        <pt x="321" y="-11" on="1"/>
        <pt x="233" y="-11" on="0"/>
        <pt x="125" y="48" on="0"/>
        <pt x="65" y="149" on="0"/>
        <pt x="45" y="284" on="0"/>
        <pt x="45" y="361" on="1"/>
        <pt x="45" y="437" on="0"/>
        <pt x="64" y="572" on="0"/>
        <pt x="122" y="673" on="0"/>
        <pt x="228" y="731" on="0"/>
        <pt x="316" y="731" on="1"/>
        <pt x="404" y="731" on="0"/>
        <pt x="513" y="672" on="0"/>
        <pt x="571" y="570" on="0"/>
        <pt x="591" y="435" on="0"/>
        <pt x="591" y="359" on="1"/>
        <pt x="591" y="283" on="0"/>
        <pt x="573" y="149" on="0"/>
        <pt x="516" y="48" on="0"/>
        <pt x="409" y="-11" on="0"/>
      </contour>
      <contour>
        <pt x="321" y="61" on="1"/>
        <pt x="381" y="61" on="0"/>
        <pt x="447" y="108" on="0"/>
        <pt x="480" y="189" on="0"/>
        <pt x="487" y="296" on="0"/>
        <pt x="487" y="357" on="1"/>
        <pt x="487" y="418" on="0"/>
        <pt x="480" y="527" on="0"/>
        <pt x="447" y="610" on="0"/>
        <pt x="380" y="659" on="0"/>
        <pt x="320" y="659" on="1"/>
        <pt x="261" y="659" on="0"/>
        <pt x="193" y="612" on="0"/>
        <pt x="158" y="531" on="0"/>
        <pt x="149" y="422" on="0"/>
        <pt x="149" y="359" on="1"/>
        <pt x="149" y="296" on="0"/>
        <pt x="158" y="187" on="0"/>
        <pt x="193" y="107" on="0"/>
        <pt x="262" y="61" on="0"/>
      </contour>
    </TTGlyph>
    <TTGlyph name="OE" xMin="45" yMin="-11" xMax="879" yMax="731">
      <contour>
        <pt x="492" y="50" on="1"/>
        <pt x="463" y="22" on="0"/>
        <pt x="382" y="-11" on="0"/>
        <pt x="327" y="-11" on="1"/>
        <pt x="239" y="-11" on="0"/>
        <pt x="129" y="48" on="0"/>
        <pt x="67" y="149" on="0"/>
        <pt x="45" y="284" on="0"/>
        <pt x="45" y="361" on="1"/>
        <pt x="45" y="437" on="0"/>
        <pt x="67" y="572" on="0"/>
        <pt x="128" y="673" on="0"/>
        <pt x="238" y="731" on="0"/>
        <pt x="326" y="731" on="1"/>
        <pt x="382" y="731" on="0"/>
        <pt x="463" y="697" on="0"/>
        <pt x="492" y="669" on="1"/>
        <pt x="492" y="720" on="1"/>
        <pt x="879" y="720" on="1"/>
        <pt x="879" y="500" on="1"/>
        <pt x="800" y="500" on="1"/>
        <pt x="787" y="645" on="1"/>
        <pt x="591" y="645" on="1"/>
        <pt x="591" y="406" on="1"/>
        <pt x="779" y="406" on="1"/>
        <pt x="779" y="323" on="1"/>
        <pt x="591" y="323" on="1"/>
        <pt x="591" y="75" on="1"/>
        <pt x="786" y="75" on="1"/>
        <pt x="800" y="235" on="1"/>
        <pt x="879" y="235" on="1"/>
        <pt x="879" y="0" on="1"/>
        <pt x="492" y="0" on="1"/>
      </contour>
      <contour>
        <pt x="321" y="61" on="1"/>
        <pt x="381" y="61" on="0"/>
        <pt x="447" y="108" on="0"/>
        <pt x="480" y="189" on="0"/>
        <pt x="487" y="296" on="0"/>
        <pt x="487" y="357" on="1"/>
        <pt x="487" y="418" on="0"/>
        <pt x="480" y="527" on="0"/>
        <pt x="447" y="610" on="0"/>
        <pt x="380" y="659" on="0"/>
        <pt x="320" y="659" on="1"/>
        <pt x="261" y="659" on="0"/>
        <pt x="193" y="612" on="0"/>
        <pt x="158" y="531" on="0"/>
        <pt x="149" y="422" on="0"/>
        <pt x="149" y="359" on="1"/>
        <pt x="149" y="296" on="0"/>
        <pt x="158" y="187" on="0"/>
        <pt x="193" y="107" on="0"/>
        <pt x="262" y="61" on="0"/>
      </contour>
    </TTGlyph>
    <TTGlyph name="Oacute" xMin="45" yMin="-11" xMax="591" yMax="916">
      <contour>
        <pt x="321" y="-11" on="1"/>
        <pt x="233" y="-11" on="0"/>
        <pt x="125" y="48" on="0"/>
        <pt x="65" y="149" on="0"/>
        <pt x="45" y="284" on="0"/>
        <pt x="45" y="361" on="1"/>
        <pt x="45" y="437" on="0"/>
        <pt x="64" y="572" on="0"/>
        <pt x="122" y="673" on="0"/>
        <pt x="228" y="731" on="0"/>
        <pt x="316" y="731" on="1"/>
        <pt x="404" y="731" on="0"/>
        <pt x="513" y="672" on="0"/>
        <pt x="571" y="570" on="0"/>
        <pt x="591" y="435" on="0"/>
        <pt x="591" y="359" on="1"/>
        <pt x="591" y="283" on="0"/>
        <pt x="573" y="149" on="0"/>
        <pt x="516" y="48" on="0"/>
        <pt x="409" y="-11" on="0"/>
      </contour>
      <contour>
        <pt x="321" y="61" on="1"/>
        <pt x="381" y="61" on="0"/>
        <pt x="447" y="108" on="0"/>
        <pt x="480" y="189" on="0"/>
        <pt x="487" y="296" on="0"/>
        <pt x="487" y="357" on="1"/>
        <pt x="487" y="418" on="0"/>
        <pt x="480" y="527" on="0"/>
        <pt x="447" y="610" on="0"/>
        <pt x="380" y="659" on="0"/>
        <pt x="320" y="659" on="1"/>
        <pt x="261" y="659" on="0"/>
        <pt x="193" y="612" on="0"/>
        <pt x="158" y="531" on="0"/>
        <pt x="149" y="422" on="0"/>
        <pt x="149" y="359" on="1"/>
        <pt x="149" y="296" on="0"/>
        <pt x="158" y="187" on="0"/>
        <pt x="193" y="107" on="0"/>
        <pt x="262" y="61" on="0"/>
      </contour>
      <contour>
        <pt x="370" y="916" on="1"/>
        <pt x="493" y="916" on="1"/>
        <pt x="356" y="791" on="1"/>
        <pt x="275" y="791" on="1"/>
      </contour>
    </TTGlyph>
    <TTGlyph name="Obreve" xMin="45" yMin="-11" xMax="591" yMax="921">
      <contour>
        <pt x="321" y="-11" on="1"/>
        <pt x="233" y="-11" on="0"/>
        <pt x="125" y="48" on="0"/>
        <pt x="65" y="149" on="0"/>
        <pt x="45" y="284" on="0"/>
        <pt x="45" y="361" on="1"/>
        <pt x="45" y="437" on="0"/>
        <pt x="64" y="572" on="0"/>
        <pt x="122" y="673" on="0"/>
        <pt x="228" y="731" on="0"/>
        <pt x="316" y="731" on="1"/>
        <pt x="404" y="731" on="0"/>
        <pt x="513" y="672" on="0"/>
        <pt x="571" y="570" on="0"/>
        <pt x="591" y="435" on="0"/>
        <pt x="591" y="359" on="1"/>
        <pt x="591" y="283" on="0"/>
        <pt x="573" y="149" on="0"/>
        <pt x="516" y="48" on="0"/>
        <pt x="409" y="-11" on="0"/>
      </contour>
      <contour>
        <pt x="321" y="61" on="1"/>
        <pt x="381" y="61" on="0"/>
        <pt x="447" y="108" on="0"/>
        <pt x="480" y="189" on="0"/>
        <pt x="487" y="296" on="0"/>
        <pt x="487" y="357" on="1"/>
        <pt x="487" y="418" on="0"/>
        <pt x="480" y="527" on="0"/>
        <pt x="447" y="610" on="0"/>
        <pt x="380" y="659" on="0"/>
        <pt x="320" y="659" on="1"/>
        <pt x="261" y="659" on="0"/>
        <pt x="193" y="612" on="0"/>
        <pt x="158" y="531" on="0"/>
        <pt x="149" y="422" on="0"/>
        <pt x="149" y="359" on="1"/>
        <pt x="149" y="296" on="0"/>
        <pt x="158" y="187" on="0"/>
        <pt x="193" y="107" on="0"/>
        <pt x="262" y="61" on="0"/>
      </contour>
      <contour>
        <pt x="474" y="921" on="1"/>
        <pt x="474" y="894" on="0"/>
        <pt x="460" y="847" on="0"/>
        <pt x="424" y="811" on="0"/>
        <pt x="362" y="791" on="0"/>
        <pt x="315" y="791" on="1"/>
        <pt x="268" y="791" on="0"/>
        <pt x="208" y="811" on="0"/>
        <pt x="172" y="847" on="0"/>
        <pt x="158" y="894" on="0"/>
        <pt x="158" y="921" on="1"/>
        <pt x="241" y="921" on="1"/>
        <pt x="241" y="894" on="0"/>
        <pt x="278" y="852" on="0"/>
        <pt x="317" y="852" on="1"/>
        <pt x="356" y="852" on="0"/>
        <pt x="392" y="894" on="0"/>
        <pt x="392" y="921" on="1"/>
      </contour>
    </TTGlyph>
    <TTGlyph name="Ocircumflex" xMin="45" yMin="-11" xMax="591" yMax="916">
      <contour>
        <pt x="321" y="-11" on="1"/>
        <pt x="233" y="-11" on="0"/>
        <pt x="125" y="48" on="0"/>
        <pt x="65" y="149" on="0"/>
        <pt x="45" y="284" on="0"/>
        <pt x="45" y="361" on="1"/>
        <pt x="45" y="437" on="0"/>
        <pt x="64" y="572" on="0"/>
        <pt x="122" y="673" on="0"/>
        <pt x="228" y="731" on="0"/>
        <pt x="316" y="731" on="1"/>
        <pt x="404" y="731" on="0"/>
        <pt x="513" y="672" on="0"/>
        <pt x="571" y="570" on="0"/>
        <pt x="591" y="435" on="0"/>
        <pt x="591" y="359" on="1"/>
        <pt x="591" y="283" on="0"/>
        <pt x="573" y="149" on="0"/>
        <pt x="516" y="48" on="0"/>
        <pt x="409" y="-11" on="0"/>
      </contour>
      <contour>
        <pt x="321" y="61" on="1"/>
        <pt x="381" y="61" on="0"/>
        <pt x="447" y="108" on="0"/>
        <pt x="480" y="189" on="0"/>
        <pt x="487" y="296" on="0"/>
        <pt x="487" y="357" on="1"/>
        <pt x="487" y="418" on="0"/>
        <pt x="480" y="527" on="0"/>
        <pt x="447" y="610" on="0"/>
        <pt x="380" y="659" on="0"/>
        <pt x="320" y="659" on="1"/>
        <pt x="261" y="659" on="0"/>
        <pt x="193" y="612" on="0"/>
        <pt x="158" y="531" on="0"/>
        <pt x="149" y="422" on="0"/>
        <pt x="149" y="359" on="1"/>
        <pt x="149" y="296" on="0"/>
        <pt x="158" y="187" on="0"/>
        <pt x="193" y="107" on="0"/>
        <pt x="262" y="61" on="0"/>
      </contour>
      <contour>
        <pt x="484" y="791" on="1"/>
        <pt x="403" y="791" on="1"/>
        <pt x="317" y="863" on="1"/>
        <pt x="232" y="791" on="1"/>
        <pt x="151" y="791" on="1"/>
        <pt x="256" y="916" on="1"/>
        <pt x="379" y="916" on="1"/>
      </contour>
    </TTGlyph>
    <TTGlyph name="Odieresis" xMin="45" yMin="-11" xMax="591" yMax="909">
      <contour>
        <pt x="321" y="-11" on="1"/>
        <pt x="233" y="-11" on="0"/>
        <pt x="125" y="48" on="0"/>
        <pt x="65" y="149" on="0"/>
        <pt x="45" y="284" on="0"/>
        <pt x="45" y="361" on="1"/>
        <pt x="45" y="437" on="0"/>
        <pt x="64" y="572" on="0"/>
        <pt x="122" y="673" on="0"/>
        <pt x="228" y="731" on="0"/>
        <pt x="316" y="731" on="1"/>
        <pt x="404" y="731" on="0"/>
        <pt x="513" y="672" on="0"/>
        <pt x="571" y="570" on="0"/>
        <pt x="591" y="435" on="0"/>
        <pt x="591" y="359" on="1"/>
        <pt x="591" y="283" on="0"/>
        <pt x="573" y="149" on="0"/>
        <pt x="516" y="48" on="0"/>
        <pt x="409" y="-11" on="0"/>
      </contour>
      <contour>
        <pt x="321" y="61" on="1"/>
        <pt x="381" y="61" on="0"/>
        <pt x="447" y="108" on="0"/>
        <pt x="480" y="189" on="0"/>
        <pt x="487" y="296" on="0"/>
        <pt x="487" y="357" on="1"/>
        <pt x="487" y="418" on="0"/>
        <pt x="480" y="527" on="0"/>
        <pt x="447" y="610" on="0"/>
        <pt x="380" y="659" on="0"/>
        <pt x="320" y="659" on="1"/>
        <pt x="261" y="659" on="0"/>
        <pt x="193" y="612" on="0"/>
        <pt x="158" y="531" on="0"/>
        <pt x="149" y="422" on="0"/>
        <pt x="149" y="359" on="1"/>
        <pt x="149" y="296" on="0"/>
        <pt x="158" y="187" on="0"/>
        <pt x="193" y="107" on="0"/>
        <pt x="262" y="61" on="0"/>
      </contour>
      <contour>
        <pt x="213" y="791" on="1"/>
        <pt x="187" y="791" on="0"/>
        <pt x="154" y="824" on="0"/>
        <pt x="154" y="850" on="1"/>
        <pt x="154" y="876" on="0"/>
        <pt x="187" y="909" on="0"/>
        <pt x="213" y="909" on="1"/>
        <pt x="239" y="909" on="0"/>
        <pt x="273" y="876" on="0"/>
        <pt x="273" y="850" on="1"/>
        <pt x="273" y="824" on="0"/>
        <pt x="239" y="791" on="0"/>
      </contour>
      <contour>
        <pt x="419" y="791" on="1"/>
        <pt x="393" y="791" on="0"/>
        <pt x="360" y="824" on="0"/>
        <pt x="360" y="850" on="1"/>
        <pt x="360" y="876" on="0"/>
        <pt x="393" y="909" on="0"/>
        <pt x="419" y="909" on="1"/>
        <pt x="445" y="909" on="0"/>
        <pt x="479" y="876" on="0"/>
        <pt x="479" y="850" on="1"/>
        <pt x="479" y="824" on="0"/>
        <pt x="445" y="791" on="0"/>
      </contour>
    </TTGlyph>
    <TTGlyph name="Odotbelow" xMin="45" yMin="-215" xMax="591" yMax="731">
      <contour>
        <pt x="321" y="-11" on="1"/>
        <pt x="233" y="-11" on="0"/>
        <pt x="125" y="48" on="0"/>
        <pt x="65" y="149" on="0"/>
        <pt x="45" y="284" on="0"/>
        <pt x="45" y="361" on="1"/>
        <pt x="45" y="437" on="0"/>
        <pt x="64" y="572" on="0"/>
        <pt x="122" y="673" on="0"/>
        <pt x="228" y="731" on="0"/>
        <pt x="316" y="731" on="1"/>
        <pt x="404" y="731" on="0"/>
        <pt x="513" y="672" on="0"/>
        <pt x="571" y="570" on="0"/>
        <pt x="591" y="435" on="0"/>
        <pt x="591" y="359" on="1"/>
        <pt x="591" y="283" on="0"/>
        <pt x="573" y="149" on="0"/>
        <pt x="516" y="48" on="0"/>
        <pt x="409" y="-11" on="0"/>
      </contour>
      <contour>
        <pt x="321" y="61" on="1"/>
        <pt x="381" y="61" on="0"/>
        <pt x="447" y="108" on="0"/>
        <pt x="480" y="189" on="0"/>
        <pt x="487" y="296" on="0"/>
        <pt x="487" y="357" on="1"/>
        <pt x="487" y="418" on="0"/>
        <pt x="480" y="527" on="0"/>
        <pt x="447" y="610" on="0"/>
        <pt x="380" y="659" on="0"/>
        <pt x="320" y="659" on="1"/>
        <pt x="261" y="659" on="0"/>
        <pt x="193" y="612" on="0"/>
        <pt x="158" y="531" on="0"/>
        <pt x="149" y="422" on="0"/>
        <pt x="149" y="359" on="1"/>
        <pt x="149" y="296" on="0"/>
        <pt x="158" y="187" on="0"/>
        <pt x="193" y="107" on="0"/>
        <pt x="262" y="61" on="0"/>
      </contour>
      <contour>
        <pt x="321" y="-215" on="1"/>
        <pt x="293" y="-215" on="0"/>
        <pt x="257" y="-179" on="0"/>
        <pt x="257" y="-151" on="1"/>
        <pt x="257" y="-123" on="0"/>
        <pt x="293" y="-88" on="0"/>
        <pt x="321" y="-88" on="1"/>
        <pt x="349" y="-88" on="0"/>
        <pt x="385" y="-123" on="0"/>
        <pt x="385" y="-151" on="1"/>
        <pt x="385" y="-179" on="0"/>
        <pt x="349" y="-215" on="0"/>
      </contour>
    </TTGlyph>
    <TTGlyph name="Ograve" xMin="45" yMin="-11" xMax="591" yMax="916">
      <contour>
        <pt x="321" y="-11" on="1"/>
        <pt x="233" y="-11" on="0"/>
        <pt x="125" y="48" on="0"/>
        <pt x="65" y="149" on="0"/>
        <pt x="45" y="284" on="0"/>
        <pt x="45" y="361" on="1"/>
        <pt x="45" y="437" on="0"/>
        <pt x="64" y="572" on="0"/>
        <pt x="122" y="673" on="0"/>
        <pt x="228" y="731" on="0"/>
        <pt x="316" y="731" on="1"/>
        <pt x="404" y="731" on="0"/>
        <pt x="513" y="672" on="0"/>
        <pt x="571" y="570" on="0"/>
        <pt x="591" y="435" on="0"/>
        <pt x="591" y="359" on="1"/>
        <pt x="591" y="283" on="0"/>
        <pt x="573" y="149" on="0"/>
        <pt x="516" y="48" on="0"/>
        <pt x="409" y="-11" on="0"/>
      </contour>
      <contour>
        <pt x="321" y="61" on="1"/>
        <pt x="381" y="61" on="0"/>
        <pt x="447" y="108" on="0"/>
        <pt x="480" y="189" on="0"/>
        <pt x="487" y="296" on="0"/>
        <pt x="487" y="357" on="1"/>
        <pt x="487" y="418" on="0"/>
        <pt x="480" y="527" on="0"/>
        <pt x="447" y="610" on="0"/>
        <pt x="380" y="659" on="0"/>
        <pt x="320" y="659" on="1"/>
        <pt x="261" y="659" on="0"/>
        <pt x="193" y="612" on="0"/>
        <pt x="158" y="531" on="0"/>
        <pt x="149" y="422" on="0"/>
        <pt x="149" y="359" on="1"/>
        <pt x="149" y="296" on="0"/>
        <pt x="158" y="187" on="0"/>
        <pt x="193" y="107" on="0"/>
        <pt x="262" y="61" on="0"/>
      </contour>
      <contour>
        <pt x="357" y="791" on="1"/>
        <pt x="276" y="791" on="1"/>
        <pt x="159" y="916" on="1"/>
        <pt x="282" y="916" on="1"/>
      </contour>
    </TTGlyph>
    <TTGlyph name="Ohungarumlaut" xMin="45" yMin="-11" xMax="591" yMax="916">
      <contour>
        <pt x="321" y="-11" on="1"/>
        <pt x="233" y="-11" on="0"/>
        <pt x="125" y="48" on="0"/>
        <pt x="65" y="149" on="0"/>
        <pt x="45" y="284" on="0"/>
        <pt x="45" y="361" on="1"/>
        <pt x="45" y="437" on="0"/>
        <pt x="64" y="572" on="0"/>
        <pt x="122" y="673" on="0"/>
        <pt x="228" y="731" on="0"/>
        <pt x="316" y="731" on="1"/>
        <pt x="404" y="731" on="0"/>
        <pt x="513" y="672" on="0"/>
        <pt x="571" y="570" on="0"/>
        <pt x="591" y="435" on="0"/>
        <pt x="591" y="359" on="1"/>
        <pt x="591" y="283" on="0"/>
        <pt x="573" y="149" on="0"/>
        <pt x="516" y="48" on="0"/>
        <pt x="409" y="-11" on="0"/>
      </contour>
      <contour>
        <pt x="321" y="61" on="1"/>
        <pt x="381" y="61" on="0"/>
        <pt x="447" y="108" on="0"/>
        <pt x="480" y="189" on="0"/>
        <pt x="487" y="296" on="0"/>
        <pt x="487" y="357" on="1"/>
        <pt x="487" y="418" on="0"/>
        <pt x="480" y="527" on="0"/>
        <pt x="447" y="610" on="0"/>
        <pt x="380" y="659" on="0"/>
        <pt x="320" y="659" on="1"/>
        <pt x="261" y="659" on="0"/>
        <pt x="193" y="612" on="0"/>
        <pt x="158" y="531" on="0"/>
        <pt x="149" y="422" on="0"/>
        <pt x="149" y="359" on="1"/>
        <pt x="149" y="296" on="0"/>
        <pt x="158" y="187" on="0"/>
        <pt x="193" y="107" on="0"/>
        <pt x="262" y="61" on="0"/>
      </contour>
      <contour>
        <pt x="275" y="916" on="1"/>
        <pt x="398" y="916" on="1"/>
        <pt x="261" y="791" on="1"/>
        <pt x="180" y="791" on="1"/>
      </contour>
      <contour>
        <pt x="460" y="916" on="1"/>
        <pt x="583" y="916" on="1"/>
        <pt x="446" y="791" on="1"/>
        <pt x="365" y="791" on="1"/>
      </contour>
    </TTGlyph>
    <TTGlyph name="Omacron" xMin="45" yMin="-11" xMax="591" yMax="884">
      <contour>
        <pt x="321" y="-11" on="1"/>
        <pt x="233" y="-11" on="0"/>
        <pt x="125" y="48" on="0"/>
        <pt x="65" y="149" on="0"/>
        <pt x="45" y="284" on="0"/>
        <pt x="45" y="361" on="1"/>
        <pt x="45" y="437" on="0"/>
        <pt x="64" y="572" on="0"/>
        <pt x="122" y="673" on="0"/>
        <pt x="228" y="731" on="0"/>
        <pt x="316" y="731" on="1"/>
        <pt x="404" y="731" on="0"/>
        <pt x="513" y="672" on="0"/>
        <pt x="571" y="570" on="0"/>
        <pt x="591" y="435" on="0"/>
        <pt x="591" y="359" on="1"/>
        <pt x="591" y="283" on="0"/>
        <pt x="573" y="149" on="0"/>
        <pt x="516" y="48" on="0"/>
        <pt x="409" y="-11" on="0"/>
      </contour>
      <contour>
        <pt x="321" y="61" on="1"/>
        <pt x="381" y="61" on="0"/>
        <pt x="447" y="108" on="0"/>
        <pt x="480" y="189" on="0"/>
        <pt x="487" y="296" on="0"/>
        <pt x="487" y="357" on="1"/>
        <pt x="487" y="418" on="0"/>
        <pt x="480" y="527" on="0"/>
        <pt x="447" y="610" on="0"/>
        <pt x="380" y="659" on="0"/>
        <pt x="320" y="659" on="1"/>
        <pt x="261" y="659" on="0"/>
        <pt x="193" y="612" on="0"/>
        <pt x="158" y="531" on="0"/>
        <pt x="149" y="422" on="0"/>
        <pt x="149" y="359" on="1"/>
        <pt x="149" y="296" on="0"/>
        <pt x="158" y="187" on="0"/>
        <pt x="193" y="107" on="0"/>
        <pt x="262" y="61" on="0"/>
      </contour>
      <contour>
        <pt x="179" y="884" on="1"/>
        <pt x="453" y="884" on="1"/>
        <pt x="453" y="821" on="1"/>
        <pt x="179" y="821" on="1"/>
      </contour>
    </TTGlyph>
    <TTGlyph name="Oogonek" xMin="46" yMin="-210" xMax="592" yMax="731">
      <contour>
        <pt x="592" y="359" on="1"/>
        <pt x="592" y="287" on="0"/>
        <pt x="576" y="158" on="0"/>
        <pt x="525" y="58" on="0"/>
        <pt x="432" y="-4" on="0"/>
        <pt x="355" y="-10" on="1"/>
        <pt x="333" y="-38" on="0"/>
        <pt x="316" y="-88" on="0"/>
        <pt x="316" y="-102" on="1"/>
        <pt x="316" y="-118" on="0"/>
        <pt x="336" y="-141" on="0"/>
        <pt x="359" y="-141" on="1"/>
        <pt x="377" y="-141" on="0"/>
        <pt x="390" y="-136" on="1"/>
        <pt x="397" y="-133" on="0"/>
        <pt x="404" y="-130" on="1"/>
        <pt x="404" y="-199" on="1"/>
        <pt x="394" y="-202" on="0"/>
        <pt x="383" y="-205" on="1"/>
        <pt x="363" y="-210" on="0"/>
        <pt x="338" y="-210" on="1"/>
        <pt x="319" y="-210" on="0"/>
        <pt x="283" y="-200" on="0"/>
        <pt x="256" y="-177" on="0"/>
        <pt x="240" y="-142" on="0"/>
        <pt x="240" y="-118" on="1"/>
        <pt x="240" y="-85" on="0"/>
        <pt x="268" y="-37" on="0"/>
        <pt x="294" y="-10" on="1"/>
        <pt x="215" y="-6" on="0"/>
        <pt x="118" y="56" on="0"/>
        <pt x="64" y="156" on="0"/>
        <pt x="46" y="287" on="0"/>
        <pt x="46" y="361" on="1"/>
        <pt x="46" y="437" on="0"/>
        <pt x="65" y="572" on="0"/>
        <pt x="123" y="673" on="0"/>
        <pt x="229" y="731" on="0"/>
        <pt x="317" y="731" on="1"/>
        <pt x="405" y="731" on="0"/>
        <pt x="514" y="672" on="0"/>
        <pt x="572" y="570" on="0"/>
        <pt x="592" y="435" on="0"/>
      </contour>
      <contour>
        <pt x="322" y="61" on="1"/>
        <pt x="382" y="61" on="0"/>
        <pt x="448" y="108" on="0"/>
        <pt x="481" y="189" on="0"/>
        <pt x="488" y="296" on="0"/>
        <pt x="488" y="357" on="1"/>
        <pt x="488" y="418" on="0"/>
        <pt x="481" y="527" on="0"/>
        <pt x="448" y="610" on="0"/>
        <pt x="381" y="659" on="0"/>
        <pt x="321" y="659" on="1"/>
        <pt x="262" y="659" on="0"/>
        <pt x="194" y="612" on="0"/>
        <pt x="159" y="531" on="0"/>
        <pt x="150" y="422" on="0"/>
        <pt x="150" y="359" on="1"/>
        <pt x="150" y="296" on="0"/>
        <pt x="159" y="187" on="0"/>
        <pt x="194" y="107" on="0"/>
        <pt x="263" y="61" on="0"/>
      </contour>
    </TTGlyph>
    <TTGlyph name="Oslash" xMin="26" yMin="-11" xMax="632" yMax="731">
      <contour>
        <pt x="26" y="0" on="1"/>
        <pt x="105" y="107" on="1"/>
        <pt x="78" y="157" on="0"/>
        <pt x="60" y="287" on="0"/>
        <pt x="60" y="361" on="1"/>
        <pt x="60" y="437" on="0"/>
        <pt x="79" y="572" on="0"/>
        <pt x="137" y="673" on="0"/>
        <pt x="243" y="731" on="0"/>
        <pt x="331" y="731" on="1"/>
        <pt x="396" y="731" on="0"/>
        <pt x="486" y="698" on="0"/>
        <pt x="518" y="669" on="1"/>
        <pt x="556" y="721" on="1"/>
        <pt x="632" y="721" on="1"/>
        <pt x="558" y="619" on="1"/>
        <pt x="587" y="568" on="0"/>
        <pt x="606" y="434" on="0"/>
        <pt x="606" y="359" on="1"/>
        <pt x="606" y="283" on="0"/>
        <pt x="588" y="149" on="0"/>
        <pt x="531" y="48" on="0"/>
        <pt x="424" y="-11" on="0"/>
        <pt x="336" y="-11" on="1"/>
        <pt x="269" y="-11" on="0"/>
        <pt x="176" y="23" on="0"/>
        <pt x="144" y="54" on="1"/>
        <pt x="105" y="0" on="1"/>
      </contour>
      <contour>
        <pt x="336" y="61" on="1"/>
        <pt x="396" y="61" on="0"/>
        <pt x="462" y="108" on="0"/>
        <pt x="495" y="189" on="0"/>
        <pt x="502" y="296" on="0"/>
        <pt x="502" y="357" on="1"/>
        <pt x="502" y="404" on="0"/>
        <pt x="498" y="490" on="0"/>
        <pt x="490" y="527" on="1"/>
        <pt x="199" y="129" on="1"/>
        <pt x="218" y="97" on="0"/>
        <pt x="283" y="61" on="0"/>
      </contour>
      <contour>
        <pt x="164" y="359" on="1"/>
        <pt x="164" y="314" on="0"/>
        <pt x="167" y="236" on="0"/>
        <pt x="174" y="201" on="1"/>
        <pt x="464" y="596" on="1"/>
        <pt x="446" y="625" on="0"/>
        <pt x="384" y="659" on="0"/>
        <pt x="335" y="659" on="1"/>
        <pt x="276" y="659" on="0"/>
        <pt x="208" y="612" on="0"/>
        <pt x="173" y="531" on="0"/>
        <pt x="164" y="422" on="0"/>
      </contour>
    </TTGlyph>
    <TTGlyph name="Oslashacute" xMin="26" yMin="-11" xMax="632" yMax="916">
      <contour>
        <pt x="26" y="0" on="1"/>
        <pt x="105" y="107" on="1"/>
        <pt x="78" y="157" on="0"/>
        <pt x="60" y="287" on="0"/>
        <pt x="60" y="361" on="1"/>
        <pt x="60" y="437" on="0"/>
        <pt x="79" y="572" on="0"/>
        <pt x="137" y="673" on="0"/>
        <pt x="243" y="731" on="0"/>
        <pt x="331" y="731" on="1"/>
        <pt x="396" y="731" on="0"/>
        <pt x="486" y="698" on="0"/>
        <pt x="518" y="669" on="1"/>
        <pt x="556" y="721" on="1"/>
        <pt x="632" y="721" on="1"/>
        <pt x="558" y="619" on="1"/>
        <pt x="587" y="568" on="0"/>
        <pt x="606" y="434" on="0"/>
        <pt x="606" y="359" on="1"/>
        <pt x="606" y="283" on="0"/>
        <pt x="588" y="149" on="0"/>
        <pt x="531" y="48" on="0"/>
        <pt x="424" y="-11" on="0"/>
        <pt x="336" y="-11" on="1"/>
        <pt x="269" y="-11" on="0"/>
        <pt x="176" y="23" on="0"/>
        <pt x="144" y="54" on="1"/>
        <pt x="105" y="0" on="1"/>
      </contour>
      <contour>
        <pt x="336" y="61" on="1"/>
        <pt x="396" y="61" on="0"/>
        <pt x="462" y="108" on="0"/>
        <pt x="495" y="189" on="0"/>
        <pt x="502" y="296" on="0"/>
        <pt x="502" y="357" on="1"/>
        <pt x="502" y="404" on="0"/>
        <pt x="498" y="490" on="0"/>
        <pt x="490" y="527" on="1"/>
        <pt x="199" y="129" on="1"/>
        <pt x="218" y="97" on="0"/>
        <pt x="283" y="61" on="0"/>
      </contour>
      <contour>
        <pt x="164" y="359" on="1"/>
        <pt x="164" y="314" on="0"/>
        <pt x="167" y="236" on="0"/>
        <pt x="174" y="201" on="1"/>
        <pt x="464" y="596" on="1"/>
        <pt x="446" y="625" on="0"/>
        <pt x="384" y="659" on="0"/>
        <pt x="335" y="659" on="1"/>
        <pt x="276" y="659" on="0"/>
        <pt x="208" y="612" on="0"/>
        <pt x="173" y="531" on="0"/>
        <pt x="164" y="422" on="0"/>
      </contour>
      <contour>
        <pt x="384" y="916" on="1"/>
        <pt x="507" y="916" on="1"/>
        <pt x="370" y="791" on="1"/>
        <pt x="289" y="791" on="1"/>
      </contour>
    </TTGlyph>
    <TTGlyph name="Otilde" xMin="45" yMin="-11" xMax="591" yMax="927">
      <contour>
        <pt x="321" y="-11" on="1"/>
        <pt x="233" y="-11" on="0"/>
        <pt x="125" y="48" on="0"/>
        <pt x="65" y="149" on="0"/>
        <pt x="45" y="284" on="0"/>
        <pt x="45" y="361" on="1"/>
        <pt x="45" y="437" on="0"/>
        <pt x="64" y="572" on="0"/>
        <pt x="122" y="673" on="0"/>
        <pt x="228" y="731" on="0"/>
        <pt x="316" y="731" on="1"/>
        <pt x="404" y="731" on="0"/>
        <pt x="513" y="672" on="0"/>
        <pt x="571" y="570" on="0"/>
        <pt x="591" y="435" on="0"/>
        <pt x="591" y="359" on="1"/>
        <pt x="591" y="283" on="0"/>
        <pt x="573" y="149" on="0"/>
        <pt x="516" y="48" on="0"/>
        <pt x="409" y="-11" on="0"/>
      </contour>
      <contour>
        <pt x="321" y="61" on="1"/>
        <pt x="381" y="61" on="0"/>
        <pt x="447" y="108" on="0"/>
        <pt x="480" y="189" on="0"/>
        <pt x="487" y="296" on="0"/>
        <pt x="487" y="357" on="1"/>
        <pt x="487" y="418" on="0"/>
        <pt x="480" y="527" on="0"/>
        <pt x="447" y="610" on="0"/>
        <pt x="380" y="659" on="0"/>
        <pt x="320" y="659" on="1"/>
        <pt x="261" y="659" on="0"/>
        <pt x="193" y="612" on="0"/>
        <pt x="158" y="531" on="0"/>
        <pt x="149" y="422" on="0"/>
        <pt x="149" y="359" on="1"/>
        <pt x="149" y="296" on="0"/>
        <pt x="158" y="187" on="0"/>
        <pt x="193" y="107" on="0"/>
        <pt x="262" y="61" on="0"/>
      </contour>
      <contour>
        <pt x="502" y="924" on="1"/>
        <pt x="502" y="897" on="0"/>
        <pt x="488" y="848" on="0"/>
        <pt x="459" y="812" on="0"/>
        <pt x="418" y="791" on="0"/>
        <pt x="391" y="791" on="1"/>
        <pt x="362" y="791" on="0"/>
        <pt x="321" y="812" on="0"/>
        <pt x="287" y="836" on="0"/>
        <pt x="258" y="857" on="0"/>
        <pt x="242" y="857" on="1"/>
        <pt x="234" y="857" on="0"/>
        <pt x="217" y="851" on="0"/>
        <pt x="201" y="838" on="0"/>
        <pt x="191" y="816" on="0"/>
        <pt x="191" y="801" on="1"/>
        <pt x="130" y="801" on="1"/>
        <pt x="130" y="824" on="0"/>
        <pt x="142" y="869" on="0"/>
        <pt x="168" y="905" on="0"/>
        <pt x="209" y="927" on="0"/>
        <pt x="238" y="927" on="1"/>
        <pt x="268" y="927" on="0"/>
        <pt x="307" y="906" on="0"/>
        <pt x="338" y="882" on="0"/>
        <pt x="366" y="861" on="0"/>
        <pt x="385" y="861" on="1"/>
        <pt x="408" y="861" on="0"/>
        <pt x="442" y="895" on="0"/>
        <pt x="442" y="924" on="1"/>
      </contour>
    </TTGlyph>
    <TTGlyph name="P" xMin="33" yMin="0" xMax="566" yMax="720">
      <contour>
        <pt x="318" y="60" on="1"/>
        <pt x="318" y="0" on="1"/>
        <pt x="33" y="0" on="1"/>
        <pt x="33" y="60" on="1"/>
        <pt x="126" y="80" on="1"/>
        <pt x="126" y="640" on="1"/>
        <pt x="33" y="660" on="1"/>
        <pt x="33" y="720" on="1"/>
        <pt x="318" y="720" on="1"/>
        <pt x="403" y="720" on="0"/>
        <pt x="502" y="682" on="0"/>
        <pt x="552" y="618" on="0"/>
        <pt x="566" y="533" on="0"/>
        <pt x="566" y="485" on="1"/>
        <pt x="566" y="437" on="0"/>
        <pt x="547" y="352" on="0"/>
        <pt x="493" y="287" on="0"/>
        <pt x="396" y="250" on="0"/>
        <pt x="318" y="250" on="1"/>
        <pt x="225" y="250" on="1"/>
        <pt x="225" y="80" on="1"/>
      </contour>
      <contour>
        <pt x="302" y="325" on="1"/>
        <pt x="354" y="325" on="0"/>
        <pt x="418" y="349" on="0"/>
        <pt x="452" y="391" on="0"/>
        <pt x="464" y="448" on="0"/>
        <pt x="464" y="481" on="1"/>
        <pt x="464" y="517" on="0"/>
        <pt x="452" y="578" on="0"/>
        <pt x="417" y="621" on="0"/>
        <pt x="353" y="645" on="0"/>
        <pt x="302" y="645" on="1"/>
        <pt x="225" y="645" on="1"/>
        <pt x="225" y="325" on="1"/>
      </contour>
    </TTGlyph>
    <TTGlyph name="Q" xMin="46" yMin="-163" xMax="611" yMax="731">
      <contour>
        <pt x="46" y="361" on="1"/>
        <pt x="46" y="437" on="0"/>
        <pt x="65" y="572" on="0"/>
        <pt x="123" y="673" on="0"/>
        <pt x="229" y="731" on="0"/>
        <pt x="317" y="731" on="1"/>
        <pt x="405" y="731" on="0"/>
        <pt x="514" y="672" on="0"/>
        <pt x="572" y="570" on="0"/>
        <pt x="592" y="435" on="0"/>
        <pt x="592" y="359" on="1"/>
        <pt x="592" y="294" on="0"/>
        <pt x="578" y="176" on="0"/>
        <pt x="538" y="81" on="0"/>
        <pt x="465" y="14" on="0"/>
        <pt x="407" y="-1" on="1"/>
        <pt x="611" y="-76" on="1"/>
        <pt x="561" y="-163" on="1"/>
        <pt x="193" y="10" on="1"/>
        <pt x="147" y="31" on="0"/>
        <pt x="90" y="100" on="0"/>
        <pt x="58" y="190" on="0"/>
        <pt x="46" y="299" on="0"/>
      </contour>
      <contour>
        <pt x="322" y="61" on="1"/>
        <pt x="382" y="61" on="0"/>
        <pt x="448" y="108" on="0"/>
        <pt x="481" y="189" on="0"/>
        <pt x="488" y="296" on="0"/>
        <pt x="488" y="357" on="1"/>
        <pt x="488" y="418" on="0"/>
        <pt x="481" y="527" on="0"/>
        <pt x="448" y="610" on="0"/>
        <pt x="381" y="659" on="0"/>
        <pt x="321" y="659" on="1"/>
        <pt x="262" y="659" on="0"/>
        <pt x="194" y="612" on="0"/>
        <pt x="159" y="531" on="0"/>
        <pt x="150" y="422" on="0"/>
        <pt x="150" y="359" on="1"/>
        <pt x="150" y="296" on="0"/>
        <pt x="159" y="187" on="0"/>
        <pt x="194" y="107" on="0"/>
        <pt x="263" y="61" on="0"/>
      </contour>
    </TTGlyph>
    <TTGlyph name="R" xMin="33" yMin="0" xMax="621" yMax="720">
      <contour>
        <pt x="373" y="60" on="1"/>
        <pt x="449" y="68" on="1"/>
        <pt x="313" y="310" on="1"/>
        <pt x="225" y="310" on="1"/>
        <pt x="225" y="80" on="1"/>
        <pt x="318" y="60" on="1"/>
        <pt x="318" y="0" on="1"/>
        <pt x="33" y="0" on="1"/>
        <pt x="33" y="60" on="1"/>
        <pt x="126" y="80" on="1"/>
        <pt x="126" y="640" on="1"/>
        <pt x="33" y="660" on="1"/>
        <pt x="33" y="720" on="1"/>
        <pt x="343" y="720" on="1"/>
        <pt x="413" y="720" on="0"/>
        <pt x="498" y="687" on="0"/>
        <pt x="545" y="632" on="0"/>
        <pt x="561" y="557" on="0"/>
        <pt x="561" y="515" on="1"/>
        <pt x="561" y="479" on="0"/>
        <pt x="550" y="413" on="0"/>
        <pt x="518" y="361" on="0"/>
        <pt x="460" y="323" on="0"/>
        <pt x="414" y="315" on="1"/>
        <pt x="557" y="80" on="1"/>
        <pt x="621" y="60" on="1"/>
        <pt x="621" y="0" on="1"/>
        <pt x="373" y="0" on="1"/>
      </contour>
      <contour>
        <pt x="327" y="385" on="1"/>
        <pt x="371" y="385" on="0"/>
        <pt x="424" y="404" on="0"/>
        <pt x="452" y="437" on="0"/>
        <pt x="460" y="484" on="0"/>
        <pt x="460" y="511" on="1"/>
        <pt x="460" y="542" on="0"/>
        <pt x="452" y="591" on="0"/>
        <pt x="424" y="626" on="0"/>
        <pt x="371" y="645" on="0"/>
        <pt x="327" y="645" on="1"/>
        <pt x="225" y="645" on="1"/>
        <pt x="225" y="385" on="1"/>
      </contour>
    </TTGlyph>
    <TTGlyph name="Racute" xMin="33" yMin="0" xMax="621" yMax="916">
      <contour>
        <pt x="373" y="60" on="1"/>
        <pt x="449" y="68" on="1"/>
        <pt x="313" y="310" on="1"/>
        <pt x="225" y="310" on="1"/>
        <pt x="225" y="80" on="1"/>
        <pt x="318" y="60" on="1"/>
        <pt x="318" y="0" on="1"/>
        <pt x="33" y="0" on="1"/>
        <pt x="33" y="60" on="1"/>
        <pt x="126" y="80" on="1"/>
        <pt x="126" y="640" on="1"/>
        <pt x="33" y="660" on="1"/>
        <pt x="33" y="720" on="1"/>
        <pt x="343" y="720" on="1"/>
        <pt x="413" y="720" on="0"/>
        <pt x="498" y="687" on="0"/>
        <pt x="545" y="632" on="0"/>
        <pt x="561" y="557" on="0"/>
        <pt x="561" y="515" on="1"/>
        <pt x="561" y="479" on="0"/>
        <pt x="550" y="413" on="0"/>
        <pt x="518" y="361" on="0"/>
        <pt x="460" y="323" on="0"/>
        <pt x="414" y="315" on="1"/>
        <pt x="557" y="80" on="1"/>
        <pt x="621" y="60" on="1"/>
        <pt x="621" y="0" on="1"/>
        <pt x="373" y="0" on="1"/>
      </contour>
      <contour>
        <pt x="327" y="385" on="1"/>
        <pt x="371" y="385" on="0"/>
        <pt x="424" y="404" on="0"/>
        <pt x="452" y="437" on="0"/>
        <pt x="460" y="484" on="0"/>
        <pt x="460" y="511" on="1"/>
        <pt x="460" y="542" on="0"/>
        <pt x="452" y="591" on="0"/>
        <pt x="424" y="626" on="0"/>
        <pt x="371" y="645" on="0"/>
        <pt x="327" y="645" on="1"/>
        <pt x="225" y="645" on="1"/>
        <pt x="225" y="385" on="1"/>
      </contour>
      <contour>
        <pt x="332" y="916" on="1"/>
        <pt x="455" y="916" on="1"/>
        <pt x="318" y="791" on="1"/>
        <pt x="237" y="791" on="1"/>
      </contour>
    </TTGlyph>
    <TTGlyph name="Rcaron" xMin="33" yMin="0" xMax="621" yMax="916">
      <contour>
        <pt x="373" y="60" on="1"/>
        <pt x="449" y="68" on="1"/>
        <pt x="313" y="310" on="1"/>
        <pt x="225" y="310" on="1"/>
        <pt x="225" y="80" on="1"/>
        <pt x="318" y="60" on="1"/>
        <pt x="318" y="0" on="1"/>
        <pt x="33" y="0" on="1"/>
        <pt x="33" y="60" on="1"/>
        <pt x="126" y="80" on="1"/>
        <pt x="126" y="640" on="1"/>
        <pt x="33" y="660" on="1"/>
        <pt x="33" y="720" on="1"/>
        <pt x="343" y="720" on="1"/>
        <pt x="413" y="720" on="0"/>
        <pt x="498" y="687" on="0"/>
        <pt x="545" y="632" on="0"/>
        <pt x="561" y="557" on="0"/>
        <pt x="561" y="515" on="1"/>
        <pt x="561" y="479" on="0"/>
        <pt x="550" y="413" on="0"/>
        <pt x="518" y="361" on="0"/>
        <pt x="460" y="323" on="0"/>
        <pt x="414" y="315" on="1"/>
        <pt x="557" y="80" on="1"/>
        <pt x="621" y="60" on="1"/>
        <pt x="621" y="0" on="1"/>
        <pt x="373" y="0" on="1"/>
      </contour>
      <contour>
        <pt x="327" y="385" on="1"/>
        <pt x="371" y="385" on="0"/>
        <pt x="424" y="404" on="0"/>
        <pt x="452" y="437" on="0"/>
        <pt x="460" y="484" on="0"/>
        <pt x="460" y="511" on="1"/>
        <pt x="460" y="542" on="0"/>
        <pt x="452" y="591" on="0"/>
        <pt x="424" y="626" on="0"/>
        <pt x="371" y="645" on="0"/>
        <pt x="327" y="645" on="1"/>
        <pt x="225" y="645" on="1"/>
        <pt x="225" y="385" on="1"/>
      </contour>
      <contour>
        <pt x="376" y="791" on="1"/>
        <pt x="253" y="791" on="1"/>
        <pt x="148" y="916" on="1"/>
        <pt x="229" y="916" on="1"/>
        <pt x="314" y="843" on="1"/>
        <pt x="400" y="916" on="1"/>
        <pt x="481" y="916" on="1"/>
      </contour>
    </TTGlyph>
    <TTGlyph name="Rcommaaccent" xMin="33" yMin="-215" xMax="621" yMax="720">
      <contour>
        <pt x="373" y="60" on="1"/>
        <pt x="449" y="68" on="1"/>
        <pt x="313" y="310" on="1"/>
        <pt x="225" y="310" on="1"/>
        <pt x="225" y="80" on="1"/>
        <pt x="318" y="60" on="1"/>
        <pt x="318" y="0" on="1"/>
        <pt x="33" y="0" on="1"/>
        <pt x="33" y="60" on="1"/>
        <pt x="126" y="80" on="1"/>
        <pt x="126" y="640" on="1"/>
        <pt x="33" y="660" on="1"/>
        <pt x="33" y="720" on="1"/>
        <pt x="343" y="720" on="1"/>
        <pt x="413" y="720" on="0"/>
        <pt x="498" y="687" on="0"/>
        <pt x="545" y="632" on="0"/>
        <pt x="561" y="557" on="0"/>
        <pt x="561" y="515" on="1"/>
        <pt x="561" y="479" on="0"/>
        <pt x="550" y="413" on="0"/>
        <pt x="518" y="361" on="0"/>
        <pt x="460" y="323" on="0"/>
        <pt x="414" y="315" on="1"/>
        <pt x="557" y="80" on="1"/>
        <pt x="621" y="60" on="1"/>
        <pt x="621" y="0" on="1"/>
        <pt x="373" y="0" on="1"/>
      </contour>
      <contour>
        <pt x="327" y="385" on="1"/>
        <pt x="371" y="385" on="0"/>
        <pt x="424" y="404" on="0"/>
        <pt x="452" y="437" on="0"/>
        <pt x="460" y="484" on="0"/>
        <pt x="460" y="511" on="1"/>
        <pt x="460" y="542" on="0"/>
        <pt x="452" y="591" on="0"/>
        <pt x="424" y="626" on="0"/>
        <pt x="371" y="645" on="0"/>
        <pt x="327" y="645" on="1"/>
        <pt x="225" y="645" on="1"/>
        <pt x="225" y="385" on="1"/>
      </contour>
      <contour>
        <pt x="281" y="-43" on="1"/>
        <pt x="380" y="-43" on="1"/>
        <pt x="380" y="-134" on="1"/>
        <pt x="358" y="-215" on="1"/>
        <pt x="301" y="-215" on="1"/>
        <pt x="313" y="-134" on="1"/>
        <pt x="281" y="-134" on="1"/>
      </contour>
    </TTGlyph>
    <TTGlyph name="Rdotbelow" xMin="33" yMin="-215" xMax="621" yMax="720">
      <contour>
        <pt x="373" y="60" on="1"/>
        <pt x="449" y="68" on="1"/>
        <pt x="313" y="310" on="1"/>
        <pt x="225" y="310" on="1"/>
        <pt x="225" y="80" on="1"/>
        <pt x="318" y="60" on="1"/>
        <pt x="318" y="0" on="1"/>
        <pt x="33" y="0" on="1"/>
        <pt x="33" y="60" on="1"/>
        <pt x="126" y="80" on="1"/>
        <pt x="126" y="640" on="1"/>
        <pt x="33" y="660" on="1"/>
        <pt x="33" y="720" on="1"/>
        <pt x="343" y="720" on="1"/>
        <pt x="413" y="720" on="0"/>
        <pt x="498" y="687" on="0"/>
        <pt x="545" y="632" on="0"/>
        <pt x="561" y="557" on="0"/>
        <pt x="561" y="515" on="1"/>
        <pt x="561" y="479" on="0"/>
        <pt x="550" y="413" on="0"/>
        <pt x="518" y="361" on="0"/>
        <pt x="460" y="323" on="0"/>
        <pt x="414" y="315" on="1"/>
        <pt x="557" y="80" on="1"/>
        <pt x="621" y="60" on="1"/>
        <pt x="621" y="0" on="1"/>
        <pt x="373" y="0" on="1"/>
      </contour>
      <contour>
        <pt x="327" y="385" on="1"/>
        <pt x="371" y="385" on="0"/>
        <pt x="424" y="404" on="0"/>
        <pt x="452" y="437" on="0"/>
        <pt x="460" y="484" on="0"/>
        <pt x="460" y="511" on="1"/>
        <pt x="460" y="542" on="0"/>
        <pt x="452" y="591" on="0"/>
        <pt x="424" y="626" on="0"/>
        <pt x="371" y="645" on="0"/>
        <pt x="327" y="645" on="1"/>
        <pt x="225" y="645" on="1"/>
        <pt x="225" y="385" on="1"/>
      </contour>
      <contour>
        <pt x="329" y="-215" on="1"/>
        <pt x="301" y="-215" on="0"/>
        <pt x="265" y="-179" on="0"/>
        <pt x="265" y="-151" on="1"/>
        <pt x="265" y="-123" on="0"/>
        <pt x="301" y="-88" on="0"/>
        <pt x="329" y="-88" on="1"/>
        <pt x="357" y="-88" on="0"/>
        <pt x="393" y="-123" on="0"/>
        <pt x="393" y="-151" on="1"/>
        <pt x="393" y="-179" on="0"/>
        <pt x="357" y="-215" on="0"/>
      </contour>
    </TTGlyph>
    <TTGlyph name="S" xMin="46" yMin="-11" xMax="506" yMax="731">
      <contour>
        <pt x="298" y="-11" on="1"/>
        <pt x="259" y="-11" on="0"/>
        <pt x="208" y="5" on="0"/>
        <pt x="176" y="31" on="0"/>
        <pt x="158" y="65" on="0"/>
        <pt x="152" y="82" on="1"/>
        <pt x="146" y="82" on="1"/>
        <pt x="126" y="0" on="1"/>
        <pt x="46" y="0" on="1"/>
        <pt x="46" y="222" on="1"/>
        <pt x="146" y="222" on="1"/>
        <pt x="146" y="181" on="0"/>
        <pt x="167" y="124" on="0"/>
        <pt x="203" y="88" on="0"/>
        <pt x="254" y="71" on="0"/>
        <pt x="284" y="71" on="1"/>
        <pt x="317" y="71" on="0"/>
        <pt x="363" y="88" on="0"/>
        <pt x="393" y="118" on="0"/>
        <pt x="406" y="158" on="0"/>
        <pt x="406" y="180" on="1"/>
        <pt x="406" y="228" on="0"/>
        <pt x="354" y="283" on="0"/>
        <pt x="277" y="321" on="0"/>
        <pt x="186" y="352" on="0"/>
        <pt x="109" y="401" on="0"/>
        <pt x="57" y="479" on="0"/>
        <pt x="57" y="544" on="1"/>
        <pt x="57" y="591" on="0"/>
        <pt x="87" y="661" on="0"/>
        <pt x="138" y="708" on="0"/>
        <pt x="208" y="731" on="0"/>
        <pt x="247" y="731" on="1"/>
        <pt x="273" y="731" on="0"/>
        <pt x="320" y="720" on="0"/>
        <pt x="359" y="696" on="0"/>
        <pt x="385" y="656" on="0"/>
        <pt x="390" y="627" on="1"/>
        <pt x="395" y="627" on="1"/>
        <pt x="415" y="720" on="1"/>
        <pt x="494" y="720" on="1"/>
        <pt x="494" y="475" on="1"/>
        <pt x="395" y="475" on="1"/>
        <pt x="395" y="505" on="0"/>
        <pt x="381" y="567" on="0"/>
        <pt x="349" y="617" on="0"/>
        <pt x="300" y="649" on="0"/>
        <pt x="265" y="649" on="1"/>
        <pt x="243" y="649" on="0"/>
        <pt x="204" y="635" on="0"/>
        <pt x="174" y="609" on="0"/>
        <pt x="157" y="572" on="0"/>
        <pt x="157" y="548" on="1"/>
        <pt x="157" y="505" on="0"/>
        <pt x="209" y="456" on="0"/>
        <pt x="286" y="420" on="0"/>
        <pt x="377" y="387" on="0"/>
        <pt x="454" y="336" on="0"/>
        <pt x="506" y="254" on="0"/>
        <pt x="506" y="187" on="1"/>
        <pt x="506" y="94" on="0"/>
        <pt x="397" y="-11" on="0"/>
      </contour>
    </TTGlyph>
    <TTGlyph name="Sacute" xMin="46" yMin="-11" xMax="506" yMax="916">
      <contour>
        <pt x="298" y="-11" on="1"/>
        <pt x="259" y="-11" on="0"/>
        <pt x="208" y="5" on="0"/>
        <pt x="176" y="31" on="0"/>
        <pt x="158" y="65" on="0"/>
        <pt x="152" y="82" on="1"/>
        <pt x="146" y="82" on="1"/>
        <pt x="126" y="0" on="1"/>
        <pt x="46" y="0" on="1"/>
        <pt x="46" y="222" on="1"/>
        <pt x="146" y="222" on="1"/>
        <pt x="146" y="181" on="0"/>
        <pt x="167" y="124" on="0"/>
        <pt x="203" y="88" on="0"/>
        <pt x="254" y="71" on="0"/>
        <pt x="284" y="71" on="1"/>
        <pt x="317" y="71" on="0"/>
        <pt x="363" y="88" on="0"/>
        <pt x="393" y="118" on="0"/>
        <pt x="406" y="158" on="0"/>
        <pt x="406" y="180" on="1"/>
        <pt x="406" y="228" on="0"/>
        <pt x="354" y="283" on="0"/>
        <pt x="277" y="321" on="0"/>
        <pt x="186" y="352" on="0"/>
        <pt x="109" y="401" on="0"/>
        <pt x="57" y="479" on="0"/>
        <pt x="57" y="544" on="1"/>
        <pt x="57" y="591" on="0"/>
        <pt x="87" y="661" on="0"/>
        <pt x="138" y="708" on="0"/>
        <pt x="208" y="731" on="0"/>
        <pt x="247" y="731" on="1"/>
        <pt x="273" y="731" on="0"/>
        <pt x="320" y="720" on="0"/>
        <pt x="359" y="696" on="0"/>
        <pt x="385" y="656" on="0"/>
        <pt x="390" y="627" on="1"/>
        <pt x="395" y="627" on="1"/>
        <pt x="415" y="720" on="1"/>
        <pt x="494" y="720" on="1"/>
        <pt x="494" y="475" on="1"/>
        <pt x="395" y="475" on="1"/>
        <pt x="395" y="505" on="0"/>
        <pt x="381" y="567" on="0"/>
        <pt x="349" y="617" on="0"/>
        <pt x="300" y="649" on="0"/>
        <pt x="265" y="649" on="1"/>
        <pt x="243" y="649" on="0"/>
        <pt x="204" y="635" on="0"/>
        <pt x="174" y="609" on="0"/>
        <pt x="157" y="572" on="0"/>
        <pt x="157" y="548" on="1"/>
        <pt x="157" y="505" on="0"/>
        <pt x="209" y="456" on="0"/>
        <pt x="286" y="420" on="0"/>
        <pt x="377" y="387" on="0"/>
        <pt x="454" y="336" on="0"/>
        <pt x="506" y="254" on="0"/>
        <pt x="506" y="187" on="1"/>
        <pt x="506" y="94" on="0"/>
        <pt x="397" y="-11" on="0"/>
      </contour>
      <contour>
        <pt x="290" y="916" on="1"/>
        <pt x="413" y="916" on="1"/>
        <pt x="276" y="791" on="1"/>
        <pt x="195" y="791" on="1"/>
      </contour>
    </TTGlyph>
    <TTGlyph name="Scaron" xMin="46" yMin="-11" xMax="506" yMax="916">
      <contour>
        <pt x="298" y="-11" on="1"/>
        <pt x="259" y="-11" on="0"/>
        <pt x="208" y="5" on="0"/>
        <pt x="176" y="31" on="0"/>
        <pt x="158" y="65" on="0"/>
        <pt x="152" y="82" on="1"/>
        <pt x="146" y="82" on="1"/>
        <pt x="126" y="0" on="1"/>
        <pt x="46" y="0" on="1"/>
        <pt x="46" y="222" on="1"/>
        <pt x="146" y="222" on="1"/>
        <pt x="146" y="181" on="0"/>
        <pt x="167" y="124" on="0"/>
        <pt x="203" y="88" on="0"/>
        <pt x="254" y="71" on="0"/>
        <pt x="284" y="71" on="1"/>
        <pt x="317" y="71" on="0"/>
        <pt x="363" y="88" on="0"/>
        <pt x="393" y="118" on="0"/>
        <pt x="406" y="158" on="0"/>
        <pt x="406" y="180" on="1"/>
        <pt x="406" y="228" on="0"/>
        <pt x="354" y="283" on="0"/>
        <pt x="277" y="321" on="0"/>
        <pt x="186" y="352" on="0"/>
        <pt x="109" y="401" on="0"/>
        <pt x="57" y="479" on="0"/>
        <pt x="57" y="544" on="1"/>
        <pt x="57" y="591" on="0"/>
        <pt x="87" y="661" on="0"/>
        <pt x="138" y="708" on="0"/>
        <pt x="208" y="731" on="0"/>
        <pt x="247" y="731" on="1"/>
        <pt x="273" y="731" on="0"/>
        <pt x="320" y="720" on="0"/>
        <pt x="359" y="696" on="0"/>
        <pt x="385" y="656" on="0"/>
        <pt x="390" y="627" on="1"/>
        <pt x="395" y="627" on="1"/>
        <pt x="415" y="720" on="1"/>
        <pt x="494" y="720" on="1"/>
        <pt x="494" y="475" on="1"/>
        <pt x="395" y="475" on="1"/>
        <pt x="395" y="505" on="0"/>
        <pt x="381" y="567" on="0"/>
        <pt x="349" y="617" on="0"/>
        <pt x="300" y="649" on="0"/>
        <pt x="265" y="649" on="1"/>
        <pt x="243" y="649" on="0"/>
        <pt x="204" y="635" on="0"/>
        <pt x="174" y="609" on="0"/>
        <pt x="157" y="572" on="0"/>
        <pt x="157" y="548" on="1"/>
        <pt x="157" y="505" on="0"/>
        <pt x="209" y="456" on="0"/>
        <pt x="286" y="420" on="0"/>
        <pt x="377" y="387" on="0"/>
        <pt x="454" y="336" on="0"/>
        <pt x="506" y="254" on="0"/>
        <pt x="506" y="187" on="1"/>
        <pt x="506" y="94" on="0"/>
        <pt x="397" y="-11" on="0"/>
      </contour>
      <contour>
        <pt x="341" y="791" on="1"/>
        <pt x="218" y="791" on="1"/>
        <pt x="113" y="916" on="1"/>
        <pt x="194" y="916" on="1"/>
        <pt x="279" y="843" on="1"/>
        <pt x="365" y="916" on="1"/>
        <pt x="446" y="916" on="1"/>
      </contour>
    </TTGlyph>
    <TTGlyph name="Schwa" xMin="36" yMin="-11" xMax="560" yMax="730">
      <contour>
        <pt x="303" y="730" on="1"/>
        <pt x="382" y="730" on="0"/>
        <pt x="483" y="680" on="0"/>
        <pt x="539" y="584" on="0"/>
        <pt x="560" y="443" on="0"/>
        <pt x="560" y="351" on="1"/>
        <pt x="560" y="273" on="0"/>
        <pt x="543" y="141" on="0"/>
        <pt x="488" y="44" on="0"/>
        <pt x="385" y="-11" on="0"/>
        <pt x="300" y="-11" on="1"/>
        <pt x="211" y="-11" on="0"/>
        <pt x="106" y="48" on="0"/>
        <pt x="52" y="151" on="0"/>
        <pt x="36" y="292" on="0"/>
        <pt x="36" y="373" on="1"/>
        <pt x="454" y="373" on="1"/>
        <pt x="454" y="440" on="0"/>
        <pt x="441" y="547" on="0"/>
        <pt x="408" y="621" on="0"/>
        <pt x="351" y="660" on="0"/>
        <pt x="305" y="660" on="1"/>
        <pt x="265" y="660" on="0"/>
        <pt x="216" y="632" on="0"/>
        <pt x="190" y="588" on="0"/>
        <pt x="181" y="532" on="0"/>
        <pt x="181" y="504" on="1"/>
        <pt x="57" y="504" on="1"/>
        <pt x="57" y="547" on="0"/>
        <pt x="80" y="628" on="0"/>
        <pt x="135" y="691" on="0"/>
        <pt x="230" y="730" on="0"/>
      </contour>
      <contour>
        <pt x="303" y="60" on="1"/>
        <pt x="342" y="60" on="0"/>
        <pt x="397" y="88" on="0"/>
        <pt x="432" y="146" on="0"/>
        <pt x="449" y="235" on="0"/>
        <pt x="452" y="295" on="1"/>
        <pt x="162" y="295" on="1"/>
        <pt x="162" y="235" on="0"/>
        <pt x="176" y="147" on="0"/>
        <pt x="209" y="89" on="0"/>
        <pt x="263" y="60" on="0"/>
      </contour>
    </TTGlyph>
    <TTGlyph name="Scircumflex" xMin="46" yMin="-11" xMax="506" yMax="916">
      <contour>
        <pt x="298" y="-11" on="1"/>
        <pt x="259" y="-11" on="0"/>
        <pt x="208" y="5" on="0"/>
        <pt x="176" y="31" on="0"/>
        <pt x="158" y="65" on="0"/>
        <pt x="152" y="82" on="1"/>
        <pt x="146" y="82" on="1"/>
        <pt x="126" y="0" on="1"/>
        <pt x="46" y="0" on="1"/>
        <pt x="46" y="222" on="1"/>
        <pt x="146" y="222" on="1"/>
        <pt x="146" y="181" on="0"/>
        <pt x="167" y="124" on="0"/>
        <pt x="203" y="88" on="0"/>
        <pt x="254" y="71" on="0"/>
        <pt x="284" y="71" on="1"/>
        <pt x="317" y="71" on="0"/>
        <pt x="363" y="88" on="0"/>
        <pt x="393" y="118" on="0"/>
        <pt x="406" y="158" on="0"/>
        <pt x="406" y="180" on="1"/>
        <pt x="406" y="228" on="0"/>
        <pt x="354" y="283" on="0"/>
        <pt x="277" y="321" on="0"/>
        <pt x="186" y="352" on="0"/>
        <pt x="109" y="401" on="0"/>
        <pt x="57" y="479" on="0"/>
        <pt x="57" y="544" on="1"/>
        <pt x="57" y="591" on="0"/>
        <pt x="87" y="661" on="0"/>
        <pt x="138" y="708" on="0"/>
        <pt x="208" y="731" on="0"/>
        <pt x="247" y="731" on="1"/>
        <pt x="273" y="731" on="0"/>
        <pt x="320" y="720" on="0"/>
        <pt x="359" y="696" on="0"/>
        <pt x="385" y="656" on="0"/>
        <pt x="390" y="627" on="1"/>
        <pt x="395" y="627" on="1"/>
        <pt x="415" y="720" on="1"/>
        <pt x="494" y="720" on="1"/>
        <pt x="494" y="475" on="1"/>
        <pt x="395" y="475" on="1"/>
        <pt x="395" y="505" on="0"/>
        <pt x="381" y="567" on="0"/>
        <pt x="349" y="617" on="0"/>
        <pt x="300" y="649" on="0"/>
        <pt x="265" y="649" on="1"/>
        <pt x="243" y="649" on="0"/>
        <pt x="204" y="635" on="0"/>
        <pt x="174" y="609" on="0"/>
        <pt x="157" y="572" on="0"/>
        <pt x="157" y="548" on="1"/>
        <pt x="157" y="505" on="0"/>
        <pt x="209" y="456" on="0"/>
        <pt x="286" y="420" on="0"/>
        <pt x="377" y="387" on="0"/>
        <pt x="454" y="336" on="0"/>
        <pt x="506" y="254" on="0"/>
        <pt x="506" y="187" on="1"/>
        <pt x="506" y="94" on="0"/>
        <pt x="397" y="-11" on="0"/>
      </contour>
      <contour>
        <pt x="447" y="791" on="1"/>
        <pt x="366" y="791" on="1"/>
        <pt x="280" y="863" on="1"/>
        <pt x="195" y="791" on="1"/>
        <pt x="114" y="791" on="1"/>
        <pt x="219" y="916" on="1"/>
        <pt x="342" y="916" on="1"/>
      </contour>
    </TTGlyph>
    <TTGlyph name="Sdotbelow" xMin="46" yMin="-215" xMax="506" yMax="731">
      <contour>
        <pt x="298" y="-11" on="1"/>
        <pt x="259" y="-11" on="0"/>
        <pt x="208" y="5" on="0"/>
        <pt x="176" y="31" on="0"/>
        <pt x="158" y="65" on="0"/>
        <pt x="152" y="82" on="1"/>
        <pt x="146" y="82" on="1"/>
        <pt x="126" y="0" on="1"/>
        <pt x="46" y="0" on="1"/>
        <pt x="46" y="222" on="1"/>
        <pt x="146" y="222" on="1"/>
        <pt x="146" y="181" on="0"/>
        <pt x="167" y="124" on="0"/>
        <pt x="203" y="88" on="0"/>
        <pt x="254" y="71" on="0"/>
        <pt x="284" y="71" on="1"/>
        <pt x="317" y="71" on="0"/>
        <pt x="363" y="88" on="0"/>
        <pt x="393" y="118" on="0"/>
        <pt x="406" y="158" on="0"/>
        <pt x="406" y="180" on="1"/>
        <pt x="406" y="228" on="0"/>
        <pt x="354" y="283" on="0"/>
        <pt x="277" y="321" on="0"/>
        <pt x="186" y="352" on="0"/>
        <pt x="109" y="401" on="0"/>
        <pt x="57" y="479" on="0"/>
        <pt x="57" y="544" on="1"/>
        <pt x="57" y="591" on="0"/>
        <pt x="87" y="661" on="0"/>
        <pt x="138" y="708" on="0"/>
        <pt x="208" y="731" on="0"/>
        <pt x="247" y="731" on="1"/>
        <pt x="273" y="731" on="0"/>
        <pt x="320" y="720" on="0"/>
        <pt x="359" y="696" on="0"/>
        <pt x="385" y="656" on="0"/>
        <pt x="390" y="627" on="1"/>
        <pt x="395" y="627" on="1"/>
        <pt x="415" y="720" on="1"/>
        <pt x="494" y="720" on="1"/>
        <pt x="494" y="475" on="1"/>
        <pt x="395" y="475" on="1"/>
        <pt x="395" y="505" on="0"/>
        <pt x="381" y="567" on="0"/>
        <pt x="349" y="617" on="0"/>
        <pt x="300" y="649" on="0"/>
        <pt x="265" y="649" on="1"/>
        <pt x="243" y="649" on="0"/>
        <pt x="204" y="635" on="0"/>
        <pt x="174" y="609" on="0"/>
        <pt x="157" y="572" on="0"/>
        <pt x="157" y="548" on="1"/>
        <pt x="157" y="505" on="0"/>
        <pt x="209" y="456" on="0"/>
        <pt x="286" y="420" on="0"/>
        <pt x="377" y="387" on="0"/>
        <pt x="454" y="336" on="0"/>
        <pt x="506" y="254" on="0"/>
        <pt x="506" y="187" on="1"/>
        <pt x="506" y="94" on="0"/>
        <pt x="397" y="-11" on="0"/>
      </contour>
      <contour>
        <pt x="297" y="-215" on="1"/>
        <pt x="269" y="-215" on="0"/>
        <pt x="233" y="-179" on="0"/>
        <pt x="233" y="-151" on="1"/>
        <pt x="233" y="-123" on="0"/>
        <pt x="269" y="-88" on="0"/>
        <pt x="297" y="-88" on="1"/>
        <pt x="325" y="-88" on="0"/>
        <pt x="361" y="-123" on="0"/>
        <pt x="361" y="-151" on="1"/>
        <pt x="361" y="-179" on="0"/>
        <pt x="325" y="-215" on="0"/>
      </contour>
    </TTGlyph>
    <TTGlyph name="T" xMin="27" yMin="0" xMax="592" yMax="720">
      <contour>
        <pt x="499" y="645" on="1"/>
        <pt x="359" y="645" on="1"/>
        <pt x="359" y="80" on="1"/>
        <pt x="462" y="60" on="1"/>
        <pt x="462" y="0" on="1"/>
        <pt x="157" y="0" on="1"/>
        <pt x="157" y="60" on="1"/>
        <pt x="260" y="80" on="1"/>
        <pt x="260" y="645" on="1"/>
        <pt x="119" y="645" on="1"/>
        <pt x="106" y="495" on="1"/>
        <pt x="27" y="495" on="1"/>
        <pt x="27" y="720" on="1"/>
        <pt x="592" y="720" on="1"/>
        <pt x="592" y="495" on="1"/>
        <pt x="513" y="495" on="1"/>
      </contour>
    </TTGlyph>
    <TTGlyph name="Tbar" xMin="28" yMin="0" xMax="593" yMax="720">
      <contour>
        <pt x="500" y="645" on="1"/>
        <pt x="360" y="645" on="1"/>
        <pt x="360" y="408" on="1"/>
        <pt x="496" y="408" on="1"/>
        <pt x="496" y="345" on="1"/>
        <pt x="360" y="345" on="1"/>
        <pt x="360" y="80" on="1"/>
        <pt x="463" y="60" on="1"/>
        <pt x="463" y="0" on="1"/>
        <pt x="158" y="0" on="1"/>
        <pt x="158" y="60" on="1"/>
        <pt x="261" y="80" on="1"/>
        <pt x="261" y="345" on="1"/>
        <pt x="122" y="345" on="1"/>
        <pt x="122" y="408" on="1"/>
        <pt x="261" y="408" on="1"/>
        <pt x="261" y="645" on="1"/>
        <pt x="120" y="645" on="1"/>
        <pt x="107" y="495" on="1"/>
        <pt x="28" y="495" on="1"/>
        <pt x="28" y="720" on="1"/>
        <pt x="593" y="720" on="1"/>
        <pt x="593" y="495" on="1"/>
        <pt x="514" y="495" on="1"/>
      </contour>
    </TTGlyph>
    <TTGlyph name="Tcaron" xMin="27" yMin="0" xMax="592" yMax="916">
      <contour>
        <pt x="499" y="645" on="1"/>
        <pt x="359" y="645" on="1"/>
        <pt x="359" y="80" on="1"/>
        <pt x="462" y="60" on="1"/>
        <pt x="462" y="0" on="1"/>
        <pt x="157" y="0" on="1"/>
        <pt x="157" y="60" on="1"/>
        <pt x="260" y="80" on="1"/>
        <pt x="260" y="645" on="1"/>
        <pt x="119" y="645" on="1"/>
        <pt x="106" y="495" on="1"/>
        <pt x="27" y="495" on="1"/>
        <pt x="27" y="720" on="1"/>
        <pt x="592" y="720" on="1"/>
        <pt x="592" y="495" on="1"/>
        <pt x="513" y="495" on="1"/>
      </contour>
      <contour>
        <pt x="371" y="791" on="1"/>
        <pt x="248" y="791" on="1"/>
        <pt x="143" y="916" on="1"/>
        <pt x="224" y="916" on="1"/>
        <pt x="309" y="843" on="1"/>
        <pt x="395" y="916" on="1"/>
        <pt x="476" y="916" on="1"/>
      </contour>
    </TTGlyph>
    <TTGlyph name="Tdotbelow" xMin="27" yMin="-215" xMax="592" yMax="720">
      <contour>
        <pt x="499" y="645" on="1"/>
        <pt x="359" y="645" on="1"/>
        <pt x="359" y="80" on="1"/>
        <pt x="462" y="60" on="1"/>
        <pt x="462" y="0" on="1"/>
        <pt x="157" y="0" on="1"/>
        <pt x="157" y="60" on="1"/>
        <pt x="260" y="80" on="1"/>
        <pt x="260" y="645" on="1"/>
        <pt x="119" y="645" on="1"/>
        <pt x="106" y="495" on="1"/>
        <pt x="27" y="495" on="1"/>
        <pt x="27" y="720" on="1"/>
        <pt x="592" y="720" on="1"/>
        <pt x="592" y="495" on="1"/>
        <pt x="513" y="495" on="1"/>
      </contour>
      <contour>
        <pt x="309" y="-215" on="1"/>
        <pt x="281" y="-215" on="0"/>
        <pt x="245" y="-179" on="0"/>
        <pt x="245" y="-151" on="1"/>
        <pt x="245" y="-123" on="0"/>
        <pt x="281" y="-88" on="0"/>
        <pt x="309" y="-88" on="1"/>
        <pt x="337" y="-88" on="0"/>
        <pt x="373" y="-123" on="0"/>
        <pt x="373" y="-151" on="1"/>
        <pt x="373" y="-179" on="0"/>
        <pt x="337" y="-215" on="0"/>
      </contour>
    </TTGlyph>
    <TTGlyph name="Thorn" xMin="33" yMin="0" xMax="566" yMax="720">
      <contour>
        <pt x="225" y="640" on="1"/>
        <pt x="225" y="578" on="1"/>
        <pt x="318" y="578" on="1"/>
        <pt x="394" y="578" on="0"/>
        <pt x="491" y="544" on="0"/>
        <pt x="546" y="487" on="0"/>
        <pt x="566" y="411" on="0"/>
        <pt x="566" y="370" on="1"/>
        <pt x="566" y="323" on="0"/>
        <pt x="542" y="242" on="0"/>
        <pt x="485" y="182" on="0"/>
        <pt x="390" y="148" on="0"/>
        <pt x="318" y="148" on="1"/>
        <pt x="225" y="148" on="1"/>
        <pt x="225" y="80" on="1"/>
        <pt x="338" y="60" on="1"/>
        <pt x="338" y="0" on="1"/>
        <pt x="33" y="0" on="1"/>
        <pt x="33" y="60" on="1"/>
        <pt x="126" y="80" on="1"/>
        <pt x="126" y="640" on="1"/>
        <pt x="33" y="660" on="1"/>
        <pt x="33" y="720" on="1"/>
        <pt x="338" y="720" on="1"/>
        <pt x="338" y="660" on="1"/>
      </contour>
      <contour>
        <pt x="302" y="223" on="1"/>
        <pt x="354" y="223" on="0"/>
        <pt x="418" y="241" on="0"/>
        <pt x="453" y="276" on="0"/>
        <pt x="464" y="327" on="0"/>
        <pt x="464" y="360" on="1"/>
        <pt x="464" y="395" on="0"/>
        <pt x="452" y="449" on="0"/>
        <pt x="416" y="485" on="0"/>
        <pt x="353" y="503" on="0"/>
        <pt x="302" y="503" on="1"/>
        <pt x="225" y="503" on="1"/>
        <pt x="225" y="223" on="1"/>
      </contour>
    </TTGlyph>
    <TTGlyph name="U" xMin="8" yMin="-11" xMax="700" yMax="720">
      <contour>
        <pt x="607" y="640" on="1"/>
        <pt x="607" y="319" on="1"/>
        <pt x="607" y="258" on="0"/>
        <pt x="591" y="140" on="0"/>
        <pt x="538" y="47" on="0"/>
        <pt x="438" y="-11" on="0"/>
        <pt x="353" y="-11" on="1"/>
        <pt x="268" y="-11" on="0"/>
        <pt x="168" y="47" on="0"/>
        <pt x="116" y="141" on="0"/>
        <pt x="101" y="260" on="0"/>
        <pt x="101" y="321" on="1"/>
        <pt x="101" y="640" on="1"/>
        <pt x="8" y="660" on="1"/>
        <pt x="8" y="720" on="1"/>
        <pt x="293" y="720" on="1"/>
        <pt x="293" y="660" on="1"/>
        <pt x="200" y="640" on="1"/>
        <pt x="200" y="319" on="1"/>
        <pt x="200" y="272" on="0"/>
        <pt x="209" y="180" on="0"/>
        <pt x="240" y="107" on="0"/>
        <pt x="301" y="61" on="0"/>
        <pt x="353" y="61" on="1"/>
        <pt x="405" y="61" on="0"/>
        <pt x="467" y="108" on="0"/>
        <pt x="499" y="182" on="0"/>
        <pt x="508" y="273" on="0"/>
        <pt x="508" y="317" on="1"/>
        <pt x="508" y="640" on="1"/>
        <pt x="415" y="660" on="1"/>
        <pt x="415" y="720" on="1"/>
        <pt x="700" y="720" on="1"/>
        <pt x="700" y="660" on="1"/>
      </contour>
    </TTGlyph>
    <TTGlyph name="Uacute" xMin="8" yMin="-11" xMax="700" yMax="916">
      <contour>
        <pt x="607" y="640" on="1"/>
        <pt x="607" y="319" on="1"/>
        <pt x="607" y="258" on="0"/>
        <pt x="591" y="140" on="0"/>
        <pt x="538" y="47" on="0"/>
        <pt x="438" y="-11" on="0"/>
        <pt x="353" y="-11" on="1"/>
        <pt x="268" y="-11" on="0"/>
        <pt x="168" y="47" on="0"/>
        <pt x="116" y="141" on="0"/>
        <pt x="101" y="260" on="0"/>
        <pt x="101" y="321" on="1"/>
        <pt x="101" y="640" on="1"/>
        <pt x="8" y="660" on="1"/>
        <pt x="8" y="720" on="1"/>
        <pt x="293" y="720" on="1"/>
        <pt x="293" y="660" on="1"/>
        <pt x="200" y="640" on="1"/>
        <pt x="200" y="319" on="1"/>
        <pt x="200" y="272" on="0"/>
        <pt x="209" y="180" on="0"/>
        <pt x="240" y="107" on="0"/>
        <pt x="301" y="61" on="0"/>
        <pt x="353" y="61" on="1"/>
        <pt x="405" y="61" on="0"/>
        <pt x="467" y="108" on="0"/>
        <pt x="499" y="182" on="0"/>
        <pt x="508" y="273" on="0"/>
        <pt x="508" y="317" on="1"/>
        <pt x="508" y="640" on="1"/>
        <pt x="415" y="660" on="1"/>
        <pt x="415" y="720" on="1"/>
        <pt x="700" y="720" on="1"/>
        <pt x="700" y="660" on="1"/>
      </contour>
      <contour>
        <pt x="408" y="916" on="1"/>
        <pt x="531" y="916" on="1"/>
        <pt x="394" y="791" on="1"/>
        <pt x="313" y="791" on="1"/>
      </contour>
    </TTGlyph>
    <TTGlyph name="Ubreve" xMin="8" yMin="-11" xMax="700" yMax="921">
      <contour>
        <pt x="607" y="640" on="1"/>
        <pt x="607" y="319" on="1"/>
        <pt x="607" y="258" on="0"/>
        <pt x="591" y="140" on="0"/>
        <pt x="538" y="47" on="0"/>
        <pt x="438" y="-11" on="0"/>
        <pt x="353" y="-11" on="1"/>
        <pt x="268" y="-11" on="0"/>
        <pt x="168" y="47" on="0"/>
        <pt x="116" y="141" on="0"/>
        <pt x="101" y="260" on="0"/>
        <pt x="101" y="321" on="1"/>
        <pt x="101" y="640" on="1"/>
        <pt x="8" y="660" on="1"/>
        <pt x="8" y="720" on="1"/>
        <pt x="293" y="720" on="1"/>
        <pt x="293" y="660" on="1"/>
        <pt x="200" y="640" on="1"/>
        <pt x="200" y="319" on="1"/>
        <pt x="200" y="272" on="0"/>
        <pt x="209" y="180" on="0"/>
        <pt x="240" y="107" on="0"/>
        <pt x="301" y="61" on="0"/>
        <pt x="353" y="61" on="1"/>
        <pt x="405" y="61" on="0"/>
        <pt x="467" y="108" on="0"/>
        <pt x="499" y="182" on="0"/>
        <pt x="508" y="273" on="0"/>
        <pt x="508" y="317" on="1"/>
        <pt x="508" y="640" on="1"/>
        <pt x="415" y="660" on="1"/>
        <pt x="415" y="720" on="1"/>
        <pt x="700" y="720" on="1"/>
        <pt x="700" y="660" on="1"/>
      </contour>
      <contour>
        <pt x="512" y="921" on="1"/>
        <pt x="512" y="894" on="0"/>
        <pt x="498" y="847" on="0"/>
        <pt x="462" y="811" on="0"/>
        <pt x="400" y="791" on="0"/>
        <pt x="353" y="791" on="1"/>
        <pt x="306" y="791" on="0"/>
        <pt x="246" y="811" on="0"/>
        <pt x="210" y="847" on="0"/>
        <pt x="196" y="894" on="0"/>
        <pt x="196" y="921" on="1"/>
        <pt x="279" y="921" on="1"/>
        <pt x="279" y="894" on="0"/>
        <pt x="316" y="852" on="0"/>
        <pt x="355" y="852" on="1"/>
        <pt x="394" y="852" on="0"/>
        <pt x="430" y="894" on="0"/>
        <pt x="430" y="921" on="1"/>
      </contour>
    </TTGlyph>
    <TTGlyph name="Ucircumflex" xMin="8" yMin="-11" xMax="700" yMax="916">
      <contour>
        <pt x="607" y="640" on="1"/>
        <pt x="607" y="319" on="1"/>
        <pt x="607" y="258" on="0"/>
        <pt x="591" y="140" on="0"/>
        <pt x="538" y="47" on="0"/>
        <pt x="438" y="-11" on="0"/>
        <pt x="353" y="-11" on="1"/>
        <pt x="268" y="-11" on="0"/>
        <pt x="168" y="47" on="0"/>
        <pt x="116" y="141" on="0"/>
        <pt x="101" y="260" on="0"/>
        <pt x="101" y="321" on="1"/>
        <pt x="101" y="640" on="1"/>
        <pt x="8" y="660" on="1"/>
        <pt x="8" y="720" on="1"/>
        <pt x="293" y="720" on="1"/>
        <pt x="293" y="660" on="1"/>
        <pt x="200" y="640" on="1"/>
        <pt x="200" y="319" on="1"/>
        <pt x="200" y="272" on="0"/>
        <pt x="209" y="180" on="0"/>
        <pt x="240" y="107" on="0"/>
        <pt x="301" y="61" on="0"/>
        <pt x="353" y="61" on="1"/>
        <pt x="405" y="61" on="0"/>
        <pt x="467" y="108" on="0"/>
        <pt x="499" y="182" on="0"/>
        <pt x="508" y="273" on="0"/>
        <pt x="508" y="317" on="1"/>
        <pt x="508" y="640" on="1"/>
        <pt x="415" y="660" on="1"/>
        <pt x="415" y="720" on="1"/>
        <pt x="700" y="720" on="1"/>
        <pt x="700" y="660" on="1"/>
      </contour>
      <contour>
        <pt x="522" y="791" on="1"/>
        <pt x="441" y="791" on="1"/>
        <pt x="355" y="863" on="1"/>
        <pt x="270" y="791" on="1"/>
        <pt x="189" y="791" on="1"/>
        <pt x="294" y="916" on="1"/>
        <pt x="417" y="916" on="1"/>
      </contour>
    </TTGlyph>
    <TTGlyph name="Udieresis" xMin="8" yMin="-11" xMax="700" yMax="909">
      <contour>
        <pt x="607" y="640" on="1"/>
        <pt x="607" y="319" on="1"/>
        <pt x="607" y="258" on="0"/>
        <pt x="591" y="140" on="0"/>
        <pt x="538" y="47" on="0"/>
        <pt x="438" y="-11" on="0"/>
        <pt x="353" y="-11" on="1"/>
        <pt x="268" y="-11" on="0"/>
        <pt x="168" y="47" on="0"/>
        <pt x="116" y="141" on="0"/>
        <pt x="101" y="260" on="0"/>
        <pt x="101" y="321" on="1"/>
        <pt x="101" y="640" on="1"/>
        <pt x="8" y="660" on="1"/>
        <pt x="8" y="720" on="1"/>
        <pt x="293" y="720" on="1"/>
        <pt x="293" y="660" on="1"/>
        <pt x="200" y="640" on="1"/>
        <pt x="200" y="319" on="1"/>
        <pt x="200" y="272" on="0"/>
        <pt x="209" y="180" on="0"/>
        <pt x="240" y="107" on="0"/>
        <pt x="301" y="61" on="0"/>
        <pt x="353" y="61" on="1"/>
        <pt x="405" y="61" on="0"/>
        <pt x="467" y="108" on="0"/>
        <pt x="499" y="182" on="0"/>
        <pt x="508" y="273" on="0"/>
        <pt x="508" y="317" on="1"/>
        <pt x="508" y="640" on="1"/>
        <pt x="415" y="660" on="1"/>
        <pt x="415" y="720" on="1"/>
        <pt x="700" y="720" on="1"/>
        <pt x="700" y="660" on="1"/>
      </contour>
      <contour>
        <pt x="251" y="791" on="1"/>
        <pt x="225" y="791" on="0"/>
        <pt x="192" y="824" on="0"/>
        <pt x="192" y="850" on="1"/>
        <pt x="192" y="876" on="0"/>
        <pt x="225" y="909" on="0"/>
        <pt x="251" y="909" on="1"/>
        <pt x="277" y="909" on="0"/>
        <pt x="311" y="876" on="0"/>
        <pt x="311" y="850" on="1"/>
        <pt x="311" y="824" on="0"/>
        <pt x="277" y="791" on="0"/>
      </contour>
      <contour>
        <pt x="457" y="791" on="1"/>
        <pt x="431" y="791" on="0"/>
        <pt x="398" y="824" on="0"/>
        <pt x="398" y="850" on="1"/>
        <pt x="398" y="876" on="0"/>
        <pt x="431" y="909" on="0"/>
        <pt x="457" y="909" on="1"/>
        <pt x="483" y="909" on="0"/>
        <pt x="517" y="876" on="0"/>
        <pt x="517" y="850" on="1"/>
        <pt x="517" y="824" on="0"/>
        <pt x="483" y="791" on="0"/>
      </contour>
    </TTGlyph>
    <TTGlyph name="Udotbelow" xMin="8" yMin="-215" xMax="700" yMax="720">
      <contour>
        <pt x="607" y="640" on="1"/>
        <pt x="607" y="319" on="1"/>
        <pt x="607" y="258" on="0"/>
        <pt x="591" y="140" on="0"/>
        <pt x="538" y="47" on="0"/>
        <pt x="438" y="-11" on="0"/>
        <pt x="353" y="-11" on="1"/>
        <pt x="268" y="-11" on="0"/>
        <pt x="168" y="47" on="0"/>
        <pt x="116" y="141" on="0"/>
        <pt x="101" y="260" on="0"/>
        <pt x="101" y="321" on="1"/>
        <pt x="101" y="640" on="1"/>
        <pt x="8" y="660" on="1"/>
        <pt x="8" y="720" on="1"/>
        <pt x="293" y="720" on="1"/>
        <pt x="293" y="660" on="1"/>
        <pt x="200" y="640" on="1"/>
        <pt x="200" y="319" on="1"/>
        <pt x="200" y="272" on="0"/>
        <pt x="209" y="180" on="0"/>
        <pt x="240" y="107" on="0"/>
        <pt x="301" y="61" on="0"/>
        <pt x="353" y="61" on="1"/>
        <pt x="405" y="61" on="0"/>
        <pt x="467" y="108" on="0"/>
        <pt x="499" y="182" on="0"/>
        <pt x="508" y="273" on="0"/>
        <pt x="508" y="317" on="1"/>
        <pt x="508" y="640" on="1"/>
        <pt x="415" y="660" on="1"/>
        <pt x="415" y="720" on="1"/>
        <pt x="700" y="720" on="1"/>
        <pt x="700" y="660" on="1"/>
      </contour>
      <contour>
        <pt x="353" y="-215" on="1"/>
        <pt x="325" y="-215" on="0"/>
        <pt x="289" y="-179" on="0"/>
        <pt x="289" y="-151" on="1"/>
        <pt x="289" y="-123" on="0"/>
        <pt x="325" y="-88" on="0"/>
        <pt x="353" y="-88" on="1"/>
        <pt x="381" y="-88" on="0"/>
        <pt x="417" y="-123" on="0"/>
        <pt x="417" y="-151" on="1"/>
        <pt x="417" y="-179" on="0"/>
        <pt x="381" y="-215" on="0"/>
      </contour>
    </TTGlyph>
    <TTGlyph name="Ugrave" xMin="8" yMin="-11" xMax="700" yMax="916">
      <contour>
        <pt x="607" y="640" on="1"/>
        <pt x="607" y="319" on="1"/>
        <pt x="607" y="258" on="0"/>
        <pt x="591" y="140" on="0"/>
        <pt x="538" y="47" on="0"/>
        <pt x="438" y="-11" on="0"/>
        <pt x="353" y="-11" on="1"/>
        <pt x="268" y="-11" on="0"/>
        <pt x="168" y="47" on="0"/>
        <pt x="116" y="141" on="0"/>
        <pt x="101" y="260" on="0"/>
        <pt x="101" y="321" on="1"/>
        <pt x="101" y="640" on="1"/>
        <pt x="8" y="660" on="1"/>
        <pt x="8" y="720" on="1"/>
        <pt x="293" y="720" on="1"/>
        <pt x="293" y="660" on="1"/>
        <pt x="200" y="640" on="1"/>
        <pt x="200" y="319" on="1"/>
        <pt x="200" y="272" on="0"/>
        <pt x="209" y="180" on="0"/>
        <pt x="240" y="107" on="0"/>
        <pt x="301" y="61" on="0"/>
        <pt x="353" y="61" on="1"/>
        <pt x="405" y="61" on="0"/>
        <pt x="467" y="108" on="0"/>
        <pt x="499" y="182" on="0"/>
        <pt x="508" y="273" on="0"/>
        <pt x="508" y="317" on="1"/>
        <pt x="508" y="640" on="1"/>
        <pt x="415" y="660" on="1"/>
        <pt x="415" y="720" on="1"/>
        <pt x="700" y="720" on="1"/>
        <pt x="700" y="660" on="1"/>
      </contour>
      <contour>
        <pt x="395" y="791" on="1"/>
        <pt x="314" y="791" on="1"/>
        <pt x="197" y="916" on="1"/>
        <pt x="320" y="916" on="1"/>
      </contour>
    </TTGlyph>
    <TTGlyph name="Uhungarumlaut" xMin="8" yMin="-11" xMax="700" yMax="916">
      <contour>
        <pt x="607" y="640" on="1"/>
        <pt x="607" y="319" on="1"/>
        <pt x="607" y="258" on="0"/>
        <pt x="591" y="140" on="0"/>
        <pt x="538" y="47" on="0"/>
        <pt x="438" y="-11" on="0"/>
        <pt x="353" y="-11" on="1"/>
        <pt x="268" y="-11" on="0"/>
        <pt x="168" y="47" on="0"/>
        <pt x="116" y="141" on="0"/>
        <pt x="101" y="260" on="0"/>
        <pt x="101" y="321" on="1"/>
        <pt x="101" y="640" on="1"/>
        <pt x="8" y="660" on="1"/>
        <pt x="8" y="720" on="1"/>
        <pt x="293" y="720" on="1"/>
        <pt x="293" y="660" on="1"/>
        <pt x="200" y="640" on="1"/>
        <pt x="200" y="319" on="1"/>
        <pt x="200" y="272" on="0"/>
        <pt x="209" y="180" on="0"/>
        <pt x="240" y="107" on="0"/>
        <pt x="301" y="61" on="0"/>
        <pt x="353" y="61" on="1"/>
        <pt x="405" y="61" on="0"/>
        <pt x="467" y="108" on="0"/>
        <pt x="499" y="182" on="0"/>
        <pt x="508" y="273" on="0"/>
        <pt x="508" y="317" on="1"/>
        <pt x="508" y="640" on="1"/>
        <pt x="415" y="660" on="1"/>
        <pt x="415" y="720" on="1"/>
        <pt x="700" y="720" on="1"/>
        <pt x="700" y="660" on="1"/>
      </contour>
      <contour>
        <pt x="314" y="916" on="1"/>
        <pt x="437" y="916" on="1"/>
        <pt x="300" y="791" on="1"/>
        <pt x="219" y="791" on="1"/>
      </contour>
      <contour>
        <pt x="499" y="916" on="1"/>
        <pt x="622" y="916" on="1"/>
        <pt x="485" y="791" on="1"/>
        <pt x="404" y="791" on="1"/>
      </contour>
    </TTGlyph>
    <TTGlyph name="Umacron" xMin="8" yMin="-11" xMax="700" yMax="884">
      <contour>
        <pt x="607" y="640" on="1"/>
        <pt x="607" y="319" on="1"/>
        <pt x="607" y="258" on="0"/>
        <pt x="591" y="140" on="0"/>
        <pt x="538" y="47" on="0"/>
        <pt x="438" y="-11" on="0"/>
        <pt x="353" y="-11" on="1"/>
        <pt x="268" y="-11" on="0"/>
        <pt x="168" y="47" on="0"/>
        <pt x="116" y="141" on="0"/>
        <pt x="101" y="260" on="0"/>
        <pt x="101" y="321" on="1"/>
        <pt x="101" y="640" on="1"/>
        <pt x="8" y="660" on="1"/>
        <pt x="8" y="720" on="1"/>
        <pt x="293" y="720" on="1"/>
        <pt x="293" y="660" on="1"/>
        <pt x="200" y="640" on="1"/>
        <pt x="200" y="319" on="1"/>
        <pt x="200" y="272" on="0"/>
        <pt x="209" y="180" on="0"/>
        <pt x="240" y="107" on="0"/>
        <pt x="301" y="61" on="0"/>
        <pt x="353" y="61" on="1"/>
        <pt x="405" y="61" on="0"/>
        <pt x="467" y="108" on="0"/>
        <pt x="499" y="182" on="0"/>
        <pt x="508" y="273" on="0"/>
        <pt x="508" y="317" on="1"/>
        <pt x="508" y="640" on="1"/>
        <pt x="415" y="660" on="1"/>
        <pt x="415" y="720" on="1"/>
        <pt x="700" y="720" on="1"/>
        <pt x="700" y="660" on="1"/>
      </contour>
      <contour>
        <pt x="217" y="884" on="1"/>
        <pt x="491" y="884" on="1"/>
        <pt x="491" y="821" on="1"/>
        <pt x="217" y="821" on="1"/>
      </contour>
    </TTGlyph>
    <TTGlyph name="Uogonek" xMin="8" yMin="-210" xMax="700" yMax="720">
      <contour>
        <pt x="607" y="640" on="1"/>
        <pt x="607" y="319" on="1"/>
        <pt x="607" y="261" on="0"/>
        <pt x="593" y="148" on="0"/>
        <pt x="547" y="57" on="0"/>
        <pt x="460" y="-4" on="0"/>
        <pt x="387" y="-10" on="1"/>
        <pt x="364" y="-38" on="0"/>
        <pt x="347" y="-88" on="0"/>
        <pt x="347" y="-102" on="1"/>
        <pt x="347" y="-118" on="0"/>
        <pt x="367" y="-141" on="0"/>
        <pt x="390" y="-141" on="1"/>
        <pt x="408" y="-141" on="0"/>
        <pt x="421" y="-136" on="1"/>
        <pt x="428" y="-133" on="0"/>
        <pt x="435" y="-130" on="1"/>
        <pt x="435" y="-199" on="1"/>
        <pt x="425" y="-202" on="0"/>
        <pt x="414" y="-205" on="1"/>
        <pt x="394" y="-210" on="0"/>
        <pt x="369" y="-210" on="1"/>
        <pt x="350" y="-210" on="0"/>
        <pt x="314" y="-200" on="0"/>
        <pt x="287" y="-177" on="0"/>
        <pt x="271" y="-142" on="0"/>
        <pt x="271" y="-118" on="1"/>
        <pt x="271" y="-85" on="0"/>
        <pt x="299" y="-37" on="0"/>
        <pt x="325" y="-10" on="1"/>
        <pt x="250" y="-5" on="0"/>
        <pt x="161" y="56" on="0"/>
        <pt x="115" y="148" on="0"/>
        <pt x="101" y="262" on="0"/>
        <pt x="101" y="321" on="1"/>
        <pt x="101" y="640" on="1"/>
        <pt x="8" y="660" on="1"/>
        <pt x="8" y="720" on="1"/>
        <pt x="293" y="720" on="1"/>
        <pt x="293" y="660" on="1"/>
        <pt x="200" y="640" on="1"/>
        <pt x="200" y="319" on="1"/>
        <pt x="200" y="272" on="0"/>
        <pt x="209" y="180" on="0"/>
        <pt x="240" y="107" on="0"/>
        <pt x="301" y="61" on="0"/>
        <pt x="353" y="61" on="1"/>
        <pt x="405" y="61" on="0"/>
        <pt x="467" y="108" on="0"/>
        <pt x="499" y="182" on="0"/>
        <pt x="508" y="273" on="0"/>
        <pt x="508" y="317" on="1"/>
        <pt x="508" y="640" on="1"/>
        <pt x="415" y="660" on="1"/>
        <pt x="415" y="720" on="1"/>
        <pt x="700" y="720" on="1"/>
        <pt x="700" y="660" on="1"/>
      </contour>
    </TTGlyph>
    <TTGlyph name="Uring" xMin="8" yMin="-11" xMax="700" yMax="933">
      <contour>
        <pt x="607" y="640" on="1"/>
        <pt x="607" y="319" on="1"/>
        <pt x="607" y="258" on="0"/>
        <pt x="591" y="140" on="0"/>
        <pt x="538" y="47" on="0"/>
        <pt x="438" y="-11" on="0"/>
        <pt x="353" y="-11" on="1"/>
        <pt x="268" y="-11" on="0"/>
        <pt x="168" y="47" on="0"/>
        <pt x="116" y="141" on="0"/>
        <pt x="101" y="260" on="0"/>
        <pt x="101" y="321" on="1"/>
        <pt x="101" y="640" on="1"/>
        <pt x="8" y="660" on="1"/>
        <pt x="8" y="720" on="1"/>
        <pt x="293" y="720" on="1"/>
        <pt x="293" y="660" on="1"/>
        <pt x="200" y="640" on="1"/>
        <pt x="200" y="319" on="1"/>
        <pt x="200" y="272" on="0"/>
        <pt x="209" y="180" on="0"/>
        <pt x="240" y="107" on="0"/>
        <pt x="301" y="61" on="0"/>
        <pt x="353" y="61" on="1"/>
        <pt x="405" y="61" on="0"/>
        <pt x="467" y="108" on="0"/>
        <pt x="499" y="182" on="0"/>
        <pt x="508" y="273" on="0"/>
        <pt x="508" y="317" on="1"/>
        <pt x="508" y="640" on="1"/>
        <pt x="415" y="660" on="1"/>
        <pt x="415" y="720" on="1"/>
        <pt x="700" y="720" on="1"/>
        <pt x="700" y="660" on="1"/>
      </contour>
      <contour>
        <pt x="354" y="791" on="1"/>
        <pt x="323" y="791" on="0"/>
        <pt x="283" y="832" on="0"/>
        <pt x="283" y="862" on="1"/>
        <pt x="283" y="894" on="0"/>
        <pt x="323" y="933" on="0"/>
        <pt x="354" y="933" on="1"/>
        <pt x="386" y="933" on="0"/>
        <pt x="426" y="894" on="0"/>
        <pt x="426" y="862" on="1"/>
        <pt x="426" y="832" on="0"/>
        <pt x="386" y="791" on="0"/>
      </contour>
      <contour>
        <pt x="354" y="837" on="1"/>
        <pt x="365" y="837" on="0"/>
        <pt x="378" y="851" on="0"/>
        <pt x="378" y="862" on="1"/>
        <pt x="378" y="873" on="0"/>
        <pt x="365" y="885" on="0"/>
        <pt x="354" y="885" on="1"/>
        <pt x="343" y="885" on="0"/>
        <pt x="330" y="873" on="0"/>
        <pt x="330" y="862" on="1"/>
        <pt x="330" y="851" on="0"/>
        <pt x="343" y="837" on="0"/>
      </contour>
    </TTGlyph>
    <TTGlyph name="Utilde" xMin="8" yMin="-11" xMax="700" yMax="927">
      <contour>
        <pt x="607" y="640" on="1"/>
        <pt x="607" y="319" on="1"/>
        <pt x="607" y="258" on="0"/>
        <pt x="591" y="140" on="0"/>
        <pt x="538" y="47" on="0"/>
        <pt x="438" y="-11" on="0"/>
        <pt x="353" y="-11" on="1"/>
        <pt x="268" y="-11" on="0"/>
        <pt x="168" y="47" on="0"/>
        <pt x="116" y="141" on="0"/>
        <pt x="101" y="260" on="0"/>
        <pt x="101" y="321" on="1"/>
        <pt x="101" y="640" on="1"/>
        <pt x="8" y="660" on="1"/>
        <pt x="8" y="720" on="1"/>
        <pt x="293" y="720" on="1"/>
        <pt x="293" y="660" on="1"/>
        <pt x="200" y="640" on="1"/>
        <pt x="200" y="319" on="1"/>
        <pt x="200" y="272" on="0"/>
        <pt x="209" y="180" on="0"/>
        <pt x="240" y="107" on="0"/>
        <pt x="301" y="61" on="0"/>
        <pt x="353" y="61" on="1"/>
        <pt x="405" y="61" on="0"/>
        <pt x="467" y="108" on="0"/>
        <pt x="499" y="182" on="0"/>
        <pt x="508" y="273" on="0"/>
        <pt x="508" y="317" on="1"/>
        <pt x="508" y="640" on="1"/>
        <pt x="415" y="660" on="1"/>
        <pt x="415" y="720" on="1"/>
        <pt x="700" y="720" on="1"/>
        <pt x="700" y="660" on="1"/>
      </contour>
      <contour>
        <pt x="540" y="924" on="1"/>
        <pt x="540" y="897" on="0"/>
        <pt x="526" y="848" on="0"/>
        <pt x="497" y="812" on="0"/>
        <pt x="456" y="791" on="0"/>
        <pt x="429" y="791" on="1"/>
        <pt x="400" y="791" on="0"/>
        <pt x="359" y="812" on="0"/>
        <pt x="325" y="836" on="0"/>
        <pt x="296" y="857" on="0"/>
        <pt x="280" y="857" on="1"/>
        <pt x="272" y="857" on="0"/>
        <pt x="255" y="851" on="0"/>
        <pt x="239" y="838" on="0"/>
        <pt x="229" y="816" on="0"/>
        <pt x="229" y="801" on="1"/>
        <pt x="168" y="801" on="1"/>
        <pt x="168" y="824" on="0"/>
        <pt x="180" y="869" on="0"/>
        <pt x="206" y="905" on="0"/>
        <pt x="247" y="927" on="0"/>
        <pt x="276" y="927" on="1"/>
        <pt x="306" y="927" on="0"/>
        <pt x="345" y="906" on="0"/>
        <pt x="376" y="882" on="0"/>
        <pt x="404" y="861" on="0"/>
        <pt x="423" y="861" on="1"/>
        <pt x="446" y="861" on="0"/>
        <pt x="480" y="895" on="0"/>
        <pt x="480" y="924" on="1"/>
      </contour>
    </TTGlyph>
    <TTGlyph name="V" xMin="-8" yMin="0" xMax="682" yMax="720">
      <contour>
        <pt x="76" y="640" on="1"/>
        <pt x="-8" y="660" on="1"/>
        <pt x="-8" y="720" on="1"/>
        <pt x="266" y="720" on="1"/>
        <pt x="266" y="660" on="1"/>
        <pt x="176" y="640" on="1"/>
        <pt x="337" y="77" on="1"/>
        <pt x="498" y="640" on="1"/>
        <pt x="409" y="660" on="1"/>
        <pt x="409" y="720" on="1"/>
        <pt x="682" y="720" on="1"/>
        <pt x="682" y="660" on="1"/>
        <pt x="598" y="640" on="1"/>
        <pt x="407" y="0" on="1"/>
        <pt x="267" y="0" on="1"/>
      </contour>
    </TTGlyph>
    <TTGlyph name="W" xMin="-4" yMin="0" xMax="963" yMax="720">
      <contour>
        <pt x="80" y="640" on="1"/>
        <pt x="-4" y="660" on="1"/>
        <pt x="-4" y="720" on="1"/>
        <pt x="270" y="720" on="1"/>
        <pt x="270" y="660" on="1"/>
        <pt x="180" y="640" on="1"/>
        <pt x="291" y="77" on="1"/>
        <pt x="414" y="720" on="1"/>
        <pt x="544" y="720" on="1"/>
        <pt x="668" y="77" on="1"/>
        <pt x="779" y="640" on="1"/>
        <pt x="690" y="660" on="1"/>
        <pt x="690" y="720" on="1"/>
        <pt x="963" y="720" on="1"/>
        <pt x="963" y="660" on="1"/>
        <pt x="879" y="640" on="1"/>
        <pt x="738" y="0" on="1"/>
        <pt x="588" y="0" on="1"/>
        <pt x="479" y="582" on="1"/>
        <pt x="371" y="0" on="1"/>
        <pt x="221" y="0" on="1"/>
      </contour>
    </TTGlyph>
    <TTGlyph name="Wacute" xMin="-4" yMin="0" xMax="963" yMax="916">
      <contour>
        <pt x="80" y="640" on="1"/>
        <pt x="-4" y="660" on="1"/>
        <pt x="-4" y="720" on="1"/>
        <pt x="270" y="720" on="1"/>
        <pt x="270" y="660" on="1"/>
        <pt x="180" y="640" on="1"/>
        <pt x="291" y="77" on="1"/>
        <pt x="414" y="720" on="1"/>
        <pt x="544" y="720" on="1"/>
        <pt x="668" y="77" on="1"/>
        <pt x="779" y="640" on="1"/>
        <pt x="690" y="660" on="1"/>
        <pt x="690" y="720" on="1"/>
        <pt x="963" y="720" on="1"/>
        <pt x="963" y="660" on="1"/>
        <pt x="879" y="640" on="1"/>
        <pt x="738" y="0" on="1"/>
        <pt x="588" y="0" on="1"/>
        <pt x="479" y="582" on="1"/>
        <pt x="371" y="0" on="1"/>
        <pt x="221" y="0" on="1"/>
      </contour>
      <contour>
        <pt x="534" y="916" on="1"/>
        <pt x="657" y="916" on="1"/>
        <pt x="520" y="791" on="1"/>
        <pt x="439" y="791" on="1"/>
      </contour>
    </TTGlyph>
    <TTGlyph name="Wcircumflex" xMin="-4" yMin="0" xMax="963" yMax="916">
      <contour>
        <pt x="80" y="640" on="1"/>
        <pt x="-4" y="660" on="1"/>
        <pt x="-4" y="720" on="1"/>
        <pt x="270" y="720" on="1"/>
        <pt x="270" y="660" on="1"/>
        <pt x="180" y="640" on="1"/>
        <pt x="291" y="77" on="1"/>
        <pt x="414" y="720" on="1"/>
        <pt x="544" y="720" on="1"/>
        <pt x="668" y="77" on="1"/>
        <pt x="779" y="640" on="1"/>
        <pt x="690" y="660" on="1"/>
        <pt x="690" y="720" on="1"/>
        <pt x="963" y="720" on="1"/>
        <pt x="963" y="660" on="1"/>
        <pt x="879" y="640" on="1"/>
        <pt x="738" y="0" on="1"/>
        <pt x="588" y="0" on="1"/>
        <pt x="479" y="582" on="1"/>
        <pt x="371" y="0" on="1"/>
        <pt x="221" y="0" on="1"/>
      </contour>
      <contour>
        <pt x="648" y="791" on="1"/>
        <pt x="567" y="791" on="1"/>
        <pt x="481" y="863" on="1"/>
        <pt x="396" y="791" on="1"/>
        <pt x="315" y="791" on="1"/>
        <pt x="420" y="916" on="1"/>
        <pt x="543" y="916" on="1"/>
      </contour>
    </TTGlyph>
</ttFont>
